<svg width="1363" height="167" viewBox="0 0 1363 167" fill="none" xmlns="http://www.w3.org/2000/svg">
<rect width="1363" height="167" rx="15" fill="#F0F0F0"/>
<path d="M0 15C0 6.71573 6.71573 0 15 0H37V167H15C6.71573 167 0 160.284 0 152V15Z" fill="#424241"/>
<path d="M100.906 54.9219L93.3945 52.2383V49.0859L103.602 53.375V55.6367L100.906 54.9219ZM93.3945 57.1719L100.918 54.4297L103.602 53.7852V56.0352L93.3945 60.3242V57.1719ZM118.578 54.5117H114.195L114.172 52.0977H117.852C118.5 52.0977 119.031 52.0156 119.445 51.8516C119.859 51.6797 120.168 51.4336 120.371 51.1133C120.582 50.7852 120.688 50.3867 120.688 49.918C120.688 49.3867 120.586 48.957 120.383 48.6289C120.188 48.3008 119.879 48.0625 119.457 47.9141C119.043 47.7656 118.508 47.6914 117.852 47.6914H115.414V62H111.898V44.9375H117.852C118.844 44.9375 119.73 45.0312 120.512 45.2188C121.301 45.4062 121.969 45.6914 122.516 46.0742C123.062 46.457 123.48 46.9414 123.77 47.5273C124.059 48.1055 124.203 48.793 124.203 49.5898C124.203 50.293 124.043 50.9414 123.723 51.5352C123.41 52.1289 122.914 52.6133 122.234 52.9883C121.562 53.3633 120.684 53.5703 119.598 53.6094L118.578 54.5117ZM118.426 62H113.234L114.605 59.2578H118.426C119.043 59.2578 119.547 59.1602 119.938 58.9648C120.328 58.7617 120.617 58.4883 120.805 58.1445C120.992 57.8008 121.086 57.4062 121.086 56.9609C121.086 56.4609 121 56.0273 120.828 55.6602C120.664 55.293 120.398 55.0117 120.031 54.8164C119.664 54.6133 119.18 54.5117 118.578 54.5117H115.191L115.215 52.0977H119.434L120.242 53.0469C121.281 53.0312 122.117 53.2148 122.75 53.5977C123.391 53.9727 123.855 54.4609 124.145 55.0625C124.441 55.6641 124.59 56.3086 124.59 56.9961C124.59 58.0898 124.352 59.0117 123.875 59.7617C123.398 60.5039 122.699 61.0625 121.777 61.4375C120.863 61.8125 119.746 62 118.426 62ZM126.477 55.7891V55.543C126.477 54.6133 126.609 53.7578 126.875 52.9766C127.141 52.1875 127.527 51.5039 128.035 50.9258C128.543 50.3477 129.168 49.8984 129.91 49.5781C130.652 49.25 131.504 49.0859 132.465 49.0859C133.426 49.0859 134.281 49.25 135.031 49.5781C135.781 49.8984 136.41 50.3477 136.918 50.9258C137.434 51.5039 137.824 52.1875 138.09 52.9766C138.355 53.7578 138.488 54.6133 138.488 55.543V55.7891C138.488 56.7109 138.355 57.5664 138.09 58.3555C137.824 59.1367 137.434 59.8203 136.918 60.4062C136.41 60.9844 135.785 61.4336 135.043 61.7539C134.301 62.0742 133.449 62.2344 132.488 62.2344C131.527 62.2344 130.672 62.0742 129.922 61.7539C129.18 61.4336 128.551 60.9844 128.035 60.4062C127.527 59.8203 127.141 59.1367 126.875 58.3555C126.609 57.5664 126.477 56.7109 126.477 55.7891ZM129.852 55.543V55.7891C129.852 56.3203 129.898 56.8164 129.992 57.2773C130.086 57.7383 130.234 58.1445 130.438 58.4961C130.648 58.8398 130.922 59.1094 131.258 59.3047C131.594 59.5 132.004 59.5977 132.488 59.5977C132.957 59.5977 133.359 59.5 133.695 59.3047C134.031 59.1094 134.301 58.8398 134.504 58.4961C134.707 58.1445 134.855 57.7383 134.949 57.2773C135.051 56.8164 135.102 56.3203 135.102 55.7891V55.543C135.102 55.0273 135.051 54.543 134.949 54.0898C134.855 53.6289 134.703 53.2227 134.492 52.8711C134.289 52.5117 134.02 52.2305 133.684 52.0273C133.348 51.8242 132.941 51.7227 132.465 51.7227C131.988 51.7227 131.582 51.8242 131.246 52.0273C130.918 52.2305 130.648 52.5117 130.438 52.8711C130.234 53.2227 130.086 53.6289 129.992 54.0898C129.898 54.543 129.852 55.0273 129.852 55.543ZM143.938 52.0859V62H140.562V49.3203H143.738L143.938 52.0859ZM147.758 49.2383L147.699 52.3672C147.535 52.3438 147.336 52.3242 147.102 52.3086C146.875 52.2852 146.668 52.2734 146.48 52.2734C146.004 52.2734 145.59 52.3359 145.238 52.4609C144.895 52.5781 144.605 52.7539 144.371 52.9883C144.145 53.2227 143.973 53.5078 143.855 53.8438C143.746 54.1797 143.684 54.5625 143.668 54.9922L142.988 54.7812C142.988 53.9609 143.07 53.207 143.234 52.5195C143.398 51.8242 143.637 51.2188 143.949 50.7031C144.27 50.1875 144.66 49.7891 145.121 49.5078C145.582 49.2266 146.109 49.0859 146.703 49.0859C146.891 49.0859 147.082 49.1016 147.277 49.1328C147.473 49.1562 147.633 49.1914 147.758 49.2383ZM152.914 49.3203V62H149.527V49.3203H152.914ZM149.316 46.0156C149.316 45.5234 149.488 45.1172 149.832 44.7969C150.176 44.4766 150.637 44.3164 151.215 44.3164C151.785 44.3164 152.242 44.4766 152.586 44.7969C152.938 45.1172 153.113 45.5234 153.113 46.0156C153.113 46.5078 152.938 46.9141 152.586 47.2344C152.242 47.5547 151.785 47.7148 151.215 47.7148C150.637 47.7148 150.176 47.5547 149.832 47.2344C149.488 46.9141 149.316 46.5078 149.316 46.0156ZM159.008 52.0273V62H155.633V49.3203H158.797L159.008 52.0273ZM158.516 55.2148H157.602C157.602 54.2773 157.723 53.4336 157.965 52.6836C158.207 51.9258 158.547 51.2812 158.984 50.75C159.422 50.2109 159.941 49.8008 160.543 49.5195C161.152 49.2305 161.832 49.0859 162.582 49.0859C163.176 49.0859 163.719 49.1719 164.211 49.3438C164.703 49.5156 165.125 49.7891 165.477 50.1641C165.836 50.5391 166.109 51.0352 166.297 51.6523C166.492 52.2695 166.59 53.0234 166.59 53.9141V62H163.191V53.9023C163.191 53.3398 163.113 52.9023 162.957 52.5898C162.801 52.2773 162.57 52.0586 162.266 51.9336C161.969 51.8008 161.602 51.7344 161.164 51.7344C160.711 51.7344 160.316 51.8242 159.98 52.0039C159.652 52.1836 159.379 52.4336 159.16 52.7539C158.949 53.0664 158.789 53.4336 158.68 53.8555C158.57 54.2773 158.516 54.7305 158.516 55.2148ZM177.184 49.3203H180.242V61.5781C180.242 62.7344 179.984 63.7148 179.469 64.5195C178.961 65.332 178.25 65.9453 177.336 66.3594C176.422 66.7812 175.359 66.9922 174.148 66.9922C173.617 66.9922 173.055 66.9219 172.461 66.7812C171.875 66.6406 171.312 66.4219 170.773 66.125C170.242 65.8281 169.797 65.4531 169.438 65L170.926 63.0078C171.316 63.4609 171.77 63.8125 172.285 64.0625C172.801 64.3203 173.371 64.4492 173.996 64.4492C174.605 64.4492 175.121 64.3359 175.543 64.1094C175.965 63.8906 176.289 63.5664 176.516 63.1367C176.742 62.7148 176.855 62.2031 176.855 61.6016V52.25L177.184 49.3203ZM168.652 55.8125V55.5664C168.652 54.5977 168.77 53.7188 169.004 52.9297C169.246 52.1328 169.586 51.4492 170.023 50.8789C170.469 50.3086 171.008 49.8672 171.641 49.5547C172.273 49.2422 172.988 49.0859 173.785 49.0859C174.629 49.0859 175.336 49.2422 175.906 49.5547C176.477 49.8672 176.945 50.3125 177.312 50.8906C177.68 51.4609 177.965 52.1367 178.168 52.918C178.379 53.6914 178.543 54.5391 178.66 55.4609V56C178.543 56.8828 178.367 57.7031 178.133 58.4609C177.898 59.2188 177.59 59.8828 177.207 60.4531C176.824 61.0156 176.348 61.4531 175.777 61.7656C175.215 62.0781 174.543 62.2344 173.762 62.2344C172.98 62.2344 172.273 62.0742 171.641 61.7539C171.016 61.4336 170.48 60.9844 170.035 60.4062C169.59 59.8281 169.246 59.1484 169.004 58.3672C168.77 57.5859 168.652 56.7344 168.652 55.8125ZM172.027 55.5664V55.8125C172.027 56.3359 172.078 56.8242 172.18 57.2773C172.281 57.7305 172.438 58.1328 172.648 58.4844C172.867 58.8281 173.137 59.0977 173.457 59.293C173.785 59.4805 174.172 59.5742 174.617 59.5742C175.234 59.5742 175.738 59.4453 176.129 59.1875C176.52 58.9219 176.812 58.5586 177.008 58.0977C177.203 57.6367 177.316 57.1055 177.348 56.5039V54.9688C177.332 54.4766 177.266 54.0352 177.148 53.6445C177.031 53.2461 176.867 52.9062 176.656 52.625C176.445 52.3438 176.172 52.125 175.836 51.9688C175.5 51.8125 175.102 51.7344 174.641 51.7344C174.195 51.7344 173.809 51.8359 173.48 52.0391C173.16 52.2344 172.891 52.5039 172.672 52.8477C172.461 53.1914 172.301 53.5977 172.191 54.0664C172.082 54.5273 172.027 55.0273 172.027 55.5664ZM198.324 59.4688L202.941 63.125L200.727 65.0469L196.18 61.3906L198.324 59.4688ZM203.059 53.0703V53.8789C203.059 55.1758 202.883 56.3398 202.531 57.3711C202.188 58.4023 201.691 59.2812 201.043 60.0078C200.395 60.7266 199.629 61.2773 198.746 61.6602C197.863 62.043 196.883 62.2344 195.805 62.2344C194.734 62.2344 193.754 62.043 192.863 61.6602C191.973 61.2773 191.203 60.7266 190.555 60.0078C189.906 59.2812 189.402 58.4023 189.043 57.3711C188.691 56.3398 188.516 55.1758 188.516 53.8789V53.0703C188.516 51.7656 188.691 50.6016 189.043 49.5781C189.402 48.5469 189.902 47.668 190.543 46.9414C191.184 46.2148 191.949 45.6602 192.84 45.2773C193.73 44.8945 194.711 44.7031 195.781 44.7031C196.859 44.7031 197.84 44.8945 198.723 45.2773C199.613 45.6602 200.383 46.2148 201.031 46.9414C201.68 47.668 202.18 48.5469 202.531 49.5781C202.883 50.6016 203.059 51.7656 203.059 53.0703ZM199.508 53.8789V53.0469C199.508 52.1406 199.422 51.3438 199.25 50.6562C199.086 49.9688 198.844 49.3906 198.523 48.9219C198.211 48.4531 197.824 48.1016 197.363 47.8672C196.902 47.625 196.375 47.5039 195.781 47.5039C195.188 47.5039 194.66 47.625 194.199 47.8672C193.738 48.1016 193.352 48.4531 193.039 48.9219C192.727 49.3906 192.488 49.9688 192.324 50.6562C192.16 51.3438 192.078 52.1406 192.078 53.0469V53.8789C192.078 54.7773 192.16 55.5742 192.324 56.2695C192.488 56.957 192.727 57.5391 193.039 58.0156C193.359 58.4844 193.75 58.8398 194.211 59.082C194.68 59.3242 195.211 59.4453 195.805 59.4453C196.398 59.4453 196.922 59.3242 197.375 59.082C197.836 58.8398 198.223 58.4844 198.535 58.0156C198.855 57.5391 199.098 56.957 199.262 56.2695C199.426 55.5742 199.508 54.7773 199.508 53.8789ZM212.891 58.9648V49.3203H216.266V62H213.09L212.891 58.9648ZM213.266 56.3633L214.262 56.3398C214.262 57.1836 214.164 57.9688 213.969 58.6953C213.773 59.4141 213.48 60.0391 213.09 60.5703C212.699 61.0938 212.207 61.5039 211.613 61.8008C211.02 62.0898 210.32 62.2344 209.516 62.2344C208.898 62.2344 208.328 62.1484 207.805 61.9766C207.289 61.7969 206.844 61.5195 206.469 61.1445C206.102 60.7617 205.812 60.2734 205.602 59.6797C205.398 59.0781 205.297 58.3555 205.297 57.5117V49.3203H208.672V57.5352C208.672 57.9102 208.715 58.2266 208.801 58.4844C208.895 58.7422 209.023 58.9531 209.188 59.1172C209.352 59.2812 209.543 59.3984 209.762 59.4688C209.988 59.5391 210.238 59.5742 210.512 59.5742C211.207 59.5742 211.754 59.4336 212.152 59.1523C212.559 58.8711 212.844 58.4883 213.008 58.0039C213.18 57.5117 213.266 56.9648 213.266 56.3633ZM224.68 62.2344C223.695 62.2344 222.812 62.0781 222.031 61.7656C221.25 61.4453 220.586 61.0039 220.039 60.4414C219.5 59.8789 219.086 59.2266 218.797 58.4844C218.508 57.7344 218.363 56.9375 218.363 56.0938V55.625C218.363 54.6641 218.5 53.7852 218.773 52.9883C219.047 52.1914 219.438 51.5 219.945 50.9141C220.461 50.3281 221.086 49.8789 221.82 49.5664C222.555 49.2461 223.383 49.0859 224.305 49.0859C225.203 49.0859 226 49.2344 226.695 49.5312C227.391 49.8281 227.973 50.25 228.441 50.7969C228.918 51.3438 229.277 52 229.52 52.7656C229.762 53.5234 229.883 54.3672 229.883 55.2969V56.7031H219.805V54.4531H226.566V54.1953C226.566 53.7266 226.48 53.3086 226.309 52.9414C226.145 52.5664 225.895 52.2695 225.559 52.0508C225.223 51.832 224.793 51.7227 224.27 51.7227C223.824 51.7227 223.441 51.8203 223.121 52.0156C222.801 52.2109 222.539 52.4844 222.336 52.8359C222.141 53.1875 221.992 53.6016 221.891 54.0781C221.797 54.5469 221.75 55.0625 221.75 55.625V56.0938C221.75 56.6016 221.82 57.0703 221.961 57.5C222.109 57.9297 222.316 58.3008 222.582 58.6133C222.855 58.9258 223.184 59.168 223.566 59.3398C223.957 59.5117 224.398 59.5977 224.891 59.5977C225.5 59.5977 226.066 59.4805 226.59 59.2461C227.121 59.0039 227.578 58.6406 227.961 58.1562L229.602 59.9375C229.336 60.3203 228.973 60.6875 228.512 61.0391C228.059 61.3906 227.512 61.6797 226.871 61.9062C226.23 62.125 225.5 62.2344 224.68 62.2344ZM238.66 58.4961C238.66 58.2539 238.59 58.0352 238.449 57.8398C238.309 57.6445 238.047 57.4648 237.664 57.3008C237.289 57.1289 236.746 56.9727 236.035 56.832C235.395 56.6914 234.797 56.5156 234.242 56.3047C233.695 56.0859 233.219 55.8242 232.812 55.5195C232.414 55.2148 232.102 54.8555 231.875 54.4414C231.648 54.0195 231.535 53.5391 231.535 53C231.535 52.4688 231.648 51.9688 231.875 51.5C232.109 51.0312 232.441 50.6172 232.871 50.2578C233.309 49.8906 233.84 49.6055 234.465 49.4023C235.098 49.1914 235.809 49.0859 236.598 49.0859C237.699 49.0859 238.645 49.2617 239.434 49.6133C240.23 49.9648 240.84 50.4492 241.262 51.0664C241.691 51.6758 241.906 52.3711 241.906 53.1523H238.531C238.531 52.8242 238.461 52.5312 238.32 52.2734C238.188 52.0078 237.977 51.8008 237.688 51.6523C237.406 51.4961 237.039 51.418 236.586 51.418C236.211 51.418 235.887 51.4844 235.613 51.6172C235.34 51.7422 235.129 51.9141 234.98 52.1328C234.84 52.3438 234.77 52.5781 234.77 52.8359C234.77 53.0312 234.809 53.207 234.887 53.3633C234.973 53.5117 235.109 53.6484 235.297 53.7734C235.484 53.8984 235.727 54.0156 236.023 54.125C236.328 54.2266 236.703 54.3203 237.148 54.4062C238.062 54.5938 238.879 54.8398 239.598 55.1445C240.316 55.4414 240.887 55.8477 241.309 56.3633C241.73 56.8711 241.941 57.5391 241.941 58.3672C241.941 58.9297 241.816 59.4453 241.566 59.9141C241.316 60.3828 240.957 60.793 240.488 61.1445C240.02 61.4883 239.457 61.7578 238.801 61.9531C238.152 62.1406 237.422 62.2344 236.609 62.2344C235.43 62.2344 234.43 62.0234 233.609 61.6016C232.797 61.1797 232.18 60.6445 231.758 59.9961C231.344 59.3398 231.137 58.668 231.137 57.9805H234.336C234.352 58.4414 234.469 58.8125 234.688 59.0938C234.914 59.375 235.199 59.5781 235.543 59.7031C235.895 59.8281 236.273 59.8906 236.68 59.8906C237.117 59.8906 237.48 59.832 237.77 59.7148C238.059 59.5898 238.277 59.4258 238.426 59.2227C238.582 59.0117 238.66 58.7695 238.66 58.4961ZM250.344 49.3203V51.7109H242.961V49.3203H250.344ZM244.789 46.1914H248.164V58.1797C248.164 58.5469 248.211 58.8281 248.305 59.0234C248.406 59.2188 248.555 59.3555 248.75 59.4336C248.945 59.5039 249.191 59.5391 249.488 59.5391C249.699 59.5391 249.887 59.5312 250.051 59.5156C250.223 59.4922 250.367 59.4688 250.484 59.4453L250.496 61.9297C250.207 62.0234 249.895 62.0977 249.559 62.1523C249.223 62.207 248.852 62.2344 248.445 62.2344C247.703 62.2344 247.055 62.1133 246.5 61.8711C245.953 61.6211 245.531 61.2227 245.234 60.6758C244.938 60.1289 244.789 59.4102 244.789 58.5195V46.1914Z" fill="#888888"/>
<path d="M109.93 86.0078V118H102.217V86.0078H109.93ZM119.554 86.0078V91.9624H92.813V86.0078H119.554ZM132.012 118.439C130.079 118.439 128.35 118.139 126.827 117.539C125.303 116.923 124.014 116.081 122.959 115.012C121.919 113.942 121.121 112.712 120.564 111.32C120.022 109.929 119.751 108.457 119.751 106.904V106.069C119.751 104.326 119.993 102.714 120.477 101.235C120.96 99.7407 121.678 98.437 122.63 97.3237C123.582 96.2104 124.776 95.3462 126.211 94.731C127.647 94.1011 129.317 93.7861 131.221 93.7861C132.906 93.7861 134.415 94.0571 135.748 94.5991C137.081 95.1411 138.208 95.9175 139.131 96.9282C140.069 97.939 140.779 99.1621 141.263 100.598C141.761 102.033 142.01 103.645 142.01 105.432V108.442H122.586V103.806H134.781V103.234C134.795 102.443 134.656 101.77 134.363 101.213C134.085 100.656 133.675 100.231 133.133 99.9385C132.591 99.6455 131.932 99.499 131.155 99.499C130.35 99.499 129.683 99.6748 129.156 100.026C128.643 100.378 128.24 100.861 127.947 101.477C127.669 102.077 127.471 102.773 127.354 103.564C127.237 104.355 127.178 105.19 127.178 106.069V106.904C127.178 107.783 127.295 108.581 127.53 109.299C127.779 110.017 128.13 110.632 128.584 111.145C129.053 111.643 129.61 112.031 130.254 112.309C130.914 112.587 131.661 112.727 132.496 112.727C133.506 112.727 134.502 112.536 135.484 112.155C136.465 111.774 137.308 111.145 138.011 110.266L141.373 114.265C140.889 114.953 140.201 115.62 139.307 116.264C138.428 116.909 137.374 117.436 136.143 117.846C134.913 118.242 133.536 118.439 132.012 118.439ZM155.062 112.727C155.75 112.727 156.336 112.602 156.819 112.353C157.317 112.089 157.691 111.723 157.94 111.254C158.204 110.771 158.328 110.192 158.313 109.519H165.279C165.293 111.306 164.854 112.873 163.96 114.221C163.082 115.554 161.88 116.594 160.357 117.341C158.848 118.073 157.142 118.439 155.237 118.439C153.377 118.439 151.751 118.139 150.359 117.539C148.968 116.923 147.803 116.074 146.866 114.99C145.943 113.891 145.247 112.609 144.778 111.145C144.324 109.68 144.097 108.09 144.097 106.376V105.871C144.097 104.157 144.324 102.568 144.778 101.103C145.247 99.6235 145.943 98.3418 146.866 97.2578C147.803 96.1592 148.96 95.3096 150.337 94.709C151.729 94.0938 153.348 93.7861 155.193 93.7861C157.171 93.7861 158.914 94.1597 160.423 94.9067C161.946 95.6538 163.14 96.7378 164.004 98.1587C164.869 99.5796 165.293 101.301 165.279 103.322H158.313C158.328 102.604 158.218 101.96 157.984 101.389C157.75 100.817 157.383 100.363 156.885 100.026C156.402 99.6748 155.779 99.499 155.018 99.499C154.256 99.499 153.641 99.6675 153.172 100.004C152.703 100.341 152.344 100.81 152.095 101.411C151.861 101.997 151.7 102.67 151.612 103.432C151.539 104.194 151.502 105.007 151.502 105.871V106.376C151.502 107.255 151.539 108.083 151.612 108.859C151.7 109.621 151.868 110.295 152.117 110.881C152.366 111.452 152.725 111.906 153.194 112.243C153.663 112.565 154.285 112.727 155.062 112.727ZM175.694 84.25V118H168.289V84.25H175.694ZM174.815 105.3L173.079 105.344C173.079 103.674 173.284 102.136 173.694 100.729C174.104 99.3232 174.69 98.1001 175.452 97.0601C176.214 96.02 177.129 95.2144 178.199 94.6431C179.268 94.0718 180.455 93.7861 181.758 93.7861C182.93 93.7861 184 93.9546 184.966 94.2915C185.948 94.6284 186.79 95.1704 187.493 95.9175C188.211 96.6646 188.76 97.6387 189.141 98.8398C189.537 100.041 189.734 101.506 189.734 103.234V118H182.286V103.19C182.286 102.224 182.146 101.477 181.868 100.949C181.604 100.407 181.224 100.034 180.726 99.8286C180.228 99.6089 179.62 99.499 178.902 99.499C178.038 99.499 177.334 99.6455 176.792 99.9385C176.25 100.231 175.833 100.642 175.54 101.169C175.262 101.682 175.071 102.29 174.969 102.993C174.866 103.696 174.815 104.465 174.815 105.3ZM221.88 109.497C221.88 108.999 221.807 108.552 221.661 108.156C221.514 107.746 221.243 107.365 220.848 107.014C220.452 106.662 219.881 106.311 219.134 105.959C218.401 105.593 217.435 105.212 216.233 104.816C214.827 104.348 213.472 103.82 212.168 103.234C210.865 102.634 209.7 101.938 208.675 101.147C207.649 100.341 206.836 99.4038 206.236 98.3345C205.635 97.2505 205.335 95.9907 205.335 94.5552C205.335 93.1782 205.643 91.9404 206.258 90.8418C206.873 89.7285 207.73 88.7837 208.829 88.0073C209.942 87.2163 211.246 86.6157 212.74 86.2056C214.234 85.7808 215.867 85.5684 217.64 85.5684C219.983 85.5684 222.049 85.9785 223.836 86.7988C225.638 87.6045 227.044 88.7544 228.055 90.2485C229.08 91.728 229.593 93.4785 229.593 95.5H221.924C221.924 94.6943 221.756 93.9839 221.419 93.3687C221.097 92.7534 220.606 92.27 219.947 91.9185C219.288 91.5669 218.46 91.3911 217.464 91.3911C216.497 91.3911 215.684 91.5376 215.025 91.8306C214.366 92.1235 213.868 92.519 213.531 93.0171C213.194 93.5005 213.025 94.0352 213.025 94.6211C213.025 95.1045 213.157 95.5439 213.421 95.9395C213.699 96.3203 214.087 96.6792 214.585 97.0161C215.098 97.353 215.713 97.6753 216.431 97.9829C217.164 98.2905 217.984 98.5908 218.892 98.8838C220.591 99.4258 222.1 100.034 223.418 100.708C224.751 101.367 225.872 102.121 226.78 102.971C227.703 103.806 228.399 104.758 228.868 105.827C229.351 106.896 229.593 108.105 229.593 109.453C229.593 110.888 229.314 112.163 228.758 113.276C228.201 114.389 227.403 115.334 226.363 116.11C225.323 116.872 224.078 117.451 222.627 117.846C221.177 118.242 219.559 118.439 217.771 118.439C216.131 118.439 214.512 118.234 212.916 117.824C211.333 117.399 209.898 116.755 208.609 115.891C207.32 115.012 206.287 113.891 205.511 112.529C204.749 111.152 204.368 109.519 204.368 107.629H212.103C212.103 108.566 212.227 109.357 212.476 110.002C212.725 110.646 213.091 111.167 213.575 111.562C214.058 111.943 214.651 112.221 215.354 112.397C216.058 112.558 216.863 112.639 217.771 112.639C218.753 112.639 219.544 112.5 220.145 112.221C220.745 111.928 221.185 111.547 221.463 111.079C221.741 110.595 221.88 110.068 221.88 109.497ZM245.743 94.2256V99.3672H231.417V94.2256H245.743ZM234.427 88.3149H241.832V110.244C241.832 110.874 241.905 111.364 242.051 111.716C242.198 112.053 242.447 112.294 242.798 112.441C243.165 112.573 243.648 112.639 244.249 112.639C244.673 112.639 245.025 112.631 245.303 112.617C245.582 112.587 245.845 112.551 246.094 112.507V117.802C245.464 118.007 244.805 118.161 244.117 118.264C243.428 118.381 242.696 118.439 241.919 118.439C240.337 118.439 238.982 118.19 237.854 117.692C236.741 117.194 235.892 116.411 235.306 115.341C234.72 114.272 234.427 112.88 234.427 111.167V88.3149ZM261.036 112.023V102.224C261.036 101.55 260.94 100.971 260.75 100.488C260.56 100.004 260.259 99.6309 259.849 99.3672C259.439 99.0889 258.89 98.9497 258.201 98.9497C257.645 98.9497 257.168 99.0449 256.773 99.2354C256.377 99.4258 256.077 99.7114 255.872 100.092C255.667 100.473 255.564 100.957 255.564 101.542H248.16C248.16 100.444 248.401 99.4258 248.885 98.4883C249.383 97.5361 250.086 96.7085 250.994 96.0054C251.917 95.3022 253.016 94.7603 254.29 94.3794C255.579 93.9839 257.015 93.7861 258.597 93.7861C260.486 93.7861 262.171 94.1011 263.65 94.731C265.145 95.3608 266.324 96.3057 267.188 97.5654C268.052 98.8105 268.484 100.378 268.484 102.268V112.001C268.484 113.554 268.572 114.733 268.748 115.539C268.924 116.33 269.173 117.026 269.495 117.626V118H262.068C261.717 117.268 261.453 116.374 261.277 115.319C261.116 114.25 261.036 113.151 261.036 112.023ZM261.937 103.476L261.98 107.431H258.707C258.018 107.431 257.432 107.526 256.949 107.717C256.48 107.907 256.099 108.171 255.806 108.508C255.528 108.83 255.323 109.196 255.191 109.606C255.074 110.017 255.015 110.449 255.015 110.903C255.015 111.342 255.118 111.738 255.323 112.089C255.542 112.426 255.835 112.69 256.202 112.88C256.568 113.071 256.978 113.166 257.432 113.166C258.252 113.166 258.948 113.012 259.52 112.705C260.105 112.382 260.552 111.994 260.86 111.54C261.167 111.086 261.321 110.661 261.321 110.266L262.947 113.298C262.654 113.884 262.317 114.477 261.937 115.078C261.57 115.678 261.109 116.235 260.552 116.748C260.01 117.246 259.344 117.656 258.553 117.978C257.762 118.286 256.802 118.439 255.674 118.439C254.209 118.439 252.862 118.139 251.631 117.539C250.416 116.938 249.441 116.103 248.709 115.034C247.977 113.95 247.61 112.705 247.61 111.298C247.61 110.068 247.83 108.969 248.27 108.002C248.724 107.036 249.405 106.215 250.313 105.542C251.221 104.868 252.378 104.355 253.785 104.003C255.191 103.652 256.846 103.476 258.75 103.476H261.937ZM282.635 112.727C283.323 112.727 283.909 112.602 284.393 112.353C284.891 112.089 285.264 111.723 285.513 111.254C285.777 110.771 285.901 110.192 285.887 109.519H292.852C292.867 111.306 292.427 112.873 291.534 114.221C290.655 115.554 289.454 116.594 287.93 117.341C286.421 118.073 284.715 118.439 282.811 118.439C280.95 118.439 279.324 118.139 277.933 117.539C276.541 116.923 275.376 116.074 274.439 114.99C273.516 113.891 272.82 112.609 272.352 111.145C271.897 109.68 271.67 108.09 271.67 106.376V105.871C271.67 104.157 271.897 102.568 272.352 101.103C272.82 99.6235 273.516 98.3418 274.439 97.2578C275.376 96.1592 276.534 95.3096 277.911 94.709C279.302 94.0938 280.921 93.7861 282.767 93.7861C284.744 93.7861 286.487 94.1597 287.996 94.9067C289.52 95.6538 290.713 96.7378 291.578 98.1587C292.442 99.5796 292.867 101.301 292.852 103.322H285.887C285.901 102.604 285.792 101.96 285.557 101.389C285.323 100.817 284.957 100.363 284.458 100.026C283.975 99.6748 283.353 99.499 282.591 99.499C281.829 99.499 281.214 99.6675 280.745 100.004C280.276 100.341 279.917 100.81 279.668 101.411C279.434 101.997 279.273 102.67 279.185 103.432C279.112 104.194 279.075 105.007 279.075 105.871V106.376C279.075 107.255 279.112 108.083 279.185 108.859C279.273 109.621 279.441 110.295 279.69 110.881C279.939 111.452 280.298 111.906 280.767 112.243C281.236 112.565 281.858 112.727 282.635 112.727ZM303.487 84.228V118H296.082V84.228H303.487ZM318.692 94.2256L308.365 106.333L302.959 111.738L299.729 107.036L304.234 101.169L309.815 94.2256H318.692ZM310.76 118L304.41 107.167L309.881 103.278L319.241 118H310.76Z" fill="#424241"/>
<path d="M1363 15C1363 6.71573 1356.28 0 1348 0H1134V167H1348C1356.28 167 1363 160.284 1363 152V15Z" fill="#118AB2"/>
<path fill-rule="evenodd" clip-rule="evenodd" d="M1218.5 55C1218.37 55 1218.24 55.0527 1218.15 55.1464C1218.05 55.2402 1218 55.3674 1218 55.5V111.5C1218 111.633 1218.05 111.76 1218.15 111.854C1218.24 111.947 1218.37 112 1218.5 112H1278C1278.13 112 1278.26 111.947 1278.35 111.854C1278.45 111.76 1278.5 111.633 1278.5 111.5V66C1278.5 65.8674 1278.45 65.7402 1278.35 65.6464C1278.26 65.5527 1278.13 65.5 1278 65.5H1248.25C1247.36 65.5 1246.52 65.1045 1245.95 64.4206L1238.09 55H1218.5ZM1213.9 50.9038C1215.12 49.6848 1216.78 49 1218.5 49H1239.5C1240.39 49 1241.23 49.3955 1241.8 50.0794L1249.66 59.5H1278C1279.72 59.5 1281.38 60.1848 1282.6 61.4038C1283.82 62.6228 1284.5 64.2761 1284.5 66V111.5C1284.5 113.224 1283.82 114.877 1282.6 116.096C1281.38 117.315 1279.72 118 1278 118H1218.5C1216.78 118 1215.12 117.315 1213.9 116.096C1212.68 114.877 1212 113.224 1212 111.5V55.5C1212 53.7761 1212.68 52.1228 1213.9 50.9038Z" fill="white"/>
<path fill-rule="evenodd" clip-rule="evenodd" d="M1243.72 77.5251C1245.09 78.892 1245.09 81.108 1243.72 82.4749L1237.45 88.75L1243.72 95.0251C1245.09 96.392 1245.09 98.608 1243.72 99.9749C1242.36 101.342 1240.14 101.342 1238.78 99.9749L1230.03 91.2249C1228.66 89.858 1228.66 87.642 1230.03 86.2751L1238.78 77.5251C1240.14 76.1583 1242.36 76.1583 1243.72 77.5251Z" fill="white"/>
<path fill-rule="evenodd" clip-rule="evenodd" d="M1252.03 99.9749C1250.66 98.608 1250.66 96.392 1252.03 95.0251L1258.3 88.75L1252.03 82.4749C1250.66 81.108 1250.66 78.892 1252.03 77.5251C1253.39 76.1583 1255.61 76.1583 1256.97 77.5251L1265.72 86.2751C1267.09 87.642 1267.09 89.858 1265.72 91.2249L1256.97 99.9749C1255.61 101.342 1253.39 101.342 1252.03 99.9749Z" fill="white"/>
</svg>
