<svg width="1363" height="167" viewBox="0 0 1363 167" fill="none" xmlns="http://www.w3.org/2000/svg">
<g style="mix-blend-mode:exclusion">
<rect width="1363" height="167" rx="15" fill="white" fill-opacity="0.05"/>
</g>
<g style="mix-blend-mode:exclusion">
<path d="M0 15C0 6.71573 6.71573 0 15 0H37V167H15C6.71573 167 0 160.284 0 152V15Z" fill="white" fill-opacity="0.25"/>
</g>
<g style="mix-blend-mode:exclusion">
<path d="M100.906 54.9219L93.3945 52.2383V49.0859L103.602 53.375V55.6367L100.906 54.9219ZM93.3945 57.1719L100.918 54.4297L103.602 53.7852V56.0352L93.3945 60.3242V57.1719ZM118.578 54.5117H114.195L114.172 52.0977H117.852C118.5 52.0977 119.031 52.0156 119.445 51.8516C119.859 51.6797 120.168 51.4336 120.371 51.1133C120.582 50.7852 120.688 50.3867 120.688 49.918C120.688 49.3867 120.586 48.957 120.383 48.6289C120.188 48.3008 119.879 48.0625 119.457 47.9141C119.043 47.7656 118.508 47.6914 117.852 47.6914H115.414V62H111.898V44.9375H117.852C118.844 44.9375 119.73 45.0312 120.512 45.2188C121.301 45.4062 121.969 45.6914 122.516 46.0742C123.062 46.457 123.48 46.9414 123.77 47.5273C124.059 48.1055 124.203 48.793 124.203 49.5898C124.203 50.293 124.043 50.9414 123.723 51.5352C123.41 52.1289 122.914 52.6133 122.234 52.9883C121.562 53.3633 120.684 53.5703 119.598 53.6094L118.578 54.5117ZM118.426 62H113.234L114.605 59.2578H118.426C119.043 59.2578 119.547 59.1602 119.938 58.9648C120.328 58.7617 120.617 58.4883 120.805 58.1445C120.992 57.8008 121.086 57.4062 121.086 56.9609C121.086 56.4609 121 56.0273 120.828 55.6602C120.664 55.293 120.398 55.0117 120.031 54.8164C119.664 54.6133 119.18 54.5117 118.578 54.5117H115.191L115.215 52.0977H119.434L120.242 53.0469C121.281 53.0312 122.117 53.2148 122.75 53.5977C123.391 53.9727 123.855 54.4609 124.145 55.0625C124.441 55.6641 124.59 56.3086 124.59 56.9961C124.59 58.0898 124.352 59.0117 123.875 59.7617C123.398 60.5039 122.699 61.0625 121.777 61.4375C120.863 61.8125 119.746 62 118.426 62ZM126.477 55.7891V55.543C126.477 54.6133 126.609 53.7578 126.875 52.9766C127.141 52.1875 127.527 51.5039 128.035 50.9258C128.543 50.3477 129.168 49.8984 129.91 49.5781C130.652 49.25 131.504 49.0859 132.465 49.0859C133.426 49.0859 134.281 49.25 135.031 49.5781C135.781 49.8984 136.41 50.3477 136.918 50.9258C137.434 51.5039 137.824 52.1875 138.09 52.9766C138.355 53.7578 138.488 54.6133 138.488 55.543V55.7891C138.488 56.7109 138.355 57.5664 138.09 58.3555C137.824 59.1367 137.434 59.8203 136.918 60.4062C136.41 60.9844 135.785 61.4336 135.043 61.7539C134.301 62.0742 133.449 62.2344 132.488 62.2344C131.527 62.2344 130.672 62.0742 129.922 61.7539C129.18 61.4336 128.551 60.9844 128.035 60.4062C127.527 59.8203 127.141 59.1367 126.875 58.3555C126.609 57.5664 126.477 56.7109 126.477 55.7891ZM129.852 55.543V55.7891C129.852 56.3203 129.898 56.8164 129.992 57.2773C130.086 57.7383 130.234 58.1445 130.438 58.4961C130.648 58.8398 130.922 59.1094 131.258 59.3047C131.594 59.5 132.004 59.5977 132.488 59.5977C132.957 59.5977 133.359 59.5 133.695 59.3047C134.031 59.1094 134.301 58.8398 134.504 58.4961C134.707 58.1445 134.855 57.7383 134.949 57.2773C135.051 56.8164 135.102 56.3203 135.102 55.7891V55.543C135.102 55.0273 135.051 54.543 134.949 54.0898C134.855 53.6289 134.703 53.2227 134.492 52.8711C134.289 52.5117 134.02 52.2305 133.684 52.0273C133.348 51.8242 132.941 51.7227 132.465 51.7227C131.988 51.7227 131.582 51.8242 131.246 52.0273C130.918 52.2305 130.648 52.5117 130.438 52.8711C130.234 53.2227 130.086 53.6289 129.992 54.0898C129.898 54.543 129.852 55.0273 129.852 55.543ZM143.938 52.0859V62H140.562V49.3203H143.738L143.938 52.0859ZM147.758 49.2383L147.699 52.3672C147.535 52.3438 147.336 52.3242 147.102 52.3086C146.875 52.2852 146.668 52.2734 146.48 52.2734C146.004 52.2734 145.59 52.3359 145.238 52.4609C144.895 52.5781 144.605 52.7539 144.371 52.9883C144.145 53.2227 143.973 53.5078 143.855 53.8438C143.746 54.1797 143.684 54.5625 143.668 54.9922L142.988 54.7812C142.988 53.9609 143.07 53.207 143.234 52.5195C143.398 51.8242 143.637 51.2188 143.949 50.7031C144.27 50.1875 144.66 49.7891 145.121 49.5078C145.582 49.2266 146.109 49.0859 146.703 49.0859C146.891 49.0859 147.082 49.1016 147.277 49.1328C147.473 49.1562 147.633 49.1914 147.758 49.2383ZM152.914 49.3203V62H149.527V49.3203H152.914ZM149.316 46.0156C149.316 45.5234 149.488 45.1172 149.832 44.7969C150.176 44.4766 150.637 44.3164 151.215 44.3164C151.785 44.3164 152.242 44.4766 152.586 44.7969C152.938 45.1172 153.113 45.5234 153.113 46.0156C153.113 46.5078 152.938 46.9141 152.586 47.2344C152.242 47.5547 151.785 47.7148 151.215 47.7148C150.637 47.7148 150.176 47.5547 149.832 47.2344C149.488 46.9141 149.316 46.5078 149.316 46.0156ZM159.008 52.0273V62H155.633V49.3203H158.797L159.008 52.0273ZM158.516 55.2148H157.602C157.602 54.2773 157.723 53.4336 157.965 52.6836C158.207 51.9258 158.547 51.2812 158.984 50.75C159.422 50.2109 159.941 49.8008 160.543 49.5195C161.152 49.2305 161.832 49.0859 162.582 49.0859C163.176 49.0859 163.719 49.1719 164.211 49.3438C164.703 49.5156 165.125 49.7891 165.477 50.1641C165.836 50.5391 166.109 51.0352 166.297 51.6523C166.492 52.2695 166.59 53.0234 166.59 53.9141V62H163.191V53.9023C163.191 53.3398 163.113 52.9023 162.957 52.5898C162.801 52.2773 162.57 52.0586 162.266 51.9336C161.969 51.8008 161.602 51.7344 161.164 51.7344C160.711 51.7344 160.316 51.8242 159.98 52.0039C159.652 52.1836 159.379 52.4336 159.16 52.7539C158.949 53.0664 158.789 53.4336 158.68 53.8555C158.57 54.2773 158.516 54.7305 158.516 55.2148ZM177.184 49.3203H180.242V61.5781C180.242 62.7344 179.984 63.7148 179.469 64.5195C178.961 65.332 178.25 65.9453 177.336 66.3594C176.422 66.7812 175.359 66.9922 174.148 66.9922C173.617 66.9922 173.055 66.9219 172.461 66.7812C171.875 66.6406 171.312 66.4219 170.773 66.125C170.242 65.8281 169.797 65.4531 169.438 65L170.926 63.0078C171.316 63.4609 171.77 63.8125 172.285 64.0625C172.801 64.3203 173.371 64.4492 173.996 64.4492C174.605 64.4492 175.121 64.3359 175.543 64.1094C175.965 63.8906 176.289 63.5664 176.516 63.1367C176.742 62.7148 176.855 62.2031 176.855 61.6016V52.25L177.184 49.3203ZM168.652 55.8125V55.5664C168.652 54.5977 168.77 53.7188 169.004 52.9297C169.246 52.1328 169.586 51.4492 170.023 50.8789C170.469 50.3086 171.008 49.8672 171.641 49.5547C172.273 49.2422 172.988 49.0859 173.785 49.0859C174.629 49.0859 175.336 49.2422 175.906 49.5547C176.477 49.8672 176.945 50.3125 177.312 50.8906C177.68 51.4609 177.965 52.1367 178.168 52.918C178.379 53.6914 178.543 54.5391 178.66 55.4609V56C178.543 56.8828 178.367 57.7031 178.133 58.4609C177.898 59.2188 177.59 59.8828 177.207 60.4531C176.824 61.0156 176.348 61.4531 175.777 61.7656C175.215 62.0781 174.543 62.2344 173.762 62.2344C172.98 62.2344 172.273 62.0742 171.641 61.7539C171.016 61.4336 170.48 60.9844 170.035 60.4062C169.59 59.8281 169.246 59.1484 169.004 58.3672C168.77 57.5859 168.652 56.7344 168.652 55.8125ZM172.027 55.5664V55.8125C172.027 56.3359 172.078 56.8242 172.18 57.2773C172.281 57.7305 172.438 58.1328 172.648 58.4844C172.867 58.8281 173.137 59.0977 173.457 59.293C173.785 59.4805 174.172 59.5742 174.617 59.5742C175.234 59.5742 175.738 59.4453 176.129 59.1875C176.52 58.9219 176.812 58.5586 177.008 58.0977C177.203 57.6367 177.316 57.1055 177.348 56.5039V54.9688C177.332 54.4766 177.266 54.0352 177.148 53.6445C177.031 53.2461 176.867 52.9062 176.656 52.625C176.445 52.3438 176.172 52.125 175.836 51.9688C175.5 51.8125 175.102 51.7344 174.641 51.7344C174.195 51.7344 173.809 51.8359 173.48 52.0391C173.16 52.2344 172.891 52.5039 172.672 52.8477C172.461 53.1914 172.301 53.5977 172.191 54.0664C172.082 54.5273 172.027 55.0273 172.027 55.5664ZM198.324 59.4688L202.941 63.125L200.727 65.0469L196.18 61.3906L198.324 59.4688ZM203.059 53.0703V53.8789C203.059 55.1758 202.883 56.3398 202.531 57.3711C202.188 58.4023 201.691 59.2812 201.043 60.0078C200.395 60.7266 199.629 61.2773 198.746 61.6602C197.863 62.043 196.883 62.2344 195.805 62.2344C194.734 62.2344 193.754 62.043 192.863 61.6602C191.973 61.2773 191.203 60.7266 190.555 60.0078C189.906 59.2812 189.402 58.4023 189.043 57.3711C188.691 56.3398 188.516 55.1758 188.516 53.8789V53.0703C188.516 51.7656 188.691 50.6016 189.043 49.5781C189.402 48.5469 189.902 47.668 190.543 46.9414C191.184 46.2148 191.949 45.6602 192.84 45.2773C193.73 44.8945 194.711 44.7031 195.781 44.7031C196.859 44.7031 197.84 44.8945 198.723 45.2773C199.613 45.6602 200.383 46.2148 201.031 46.9414C201.68 47.668 202.18 48.5469 202.531 49.5781C202.883 50.6016 203.059 51.7656 203.059 53.0703ZM199.508 53.8789V53.0469C199.508 52.1406 199.422 51.3438 199.25 50.6562C199.086 49.9688 198.844 49.3906 198.523 48.9219C198.211 48.4531 197.824 48.1016 197.363 47.8672C196.902 47.625 196.375 47.5039 195.781 47.5039C195.188 47.5039 194.66 47.625 194.199 47.8672C193.738 48.1016 193.352 48.4531 193.039 48.9219C192.727 49.3906 192.488 49.9688 192.324 50.6562C192.16 51.3438 192.078 52.1406 192.078 53.0469V53.8789C192.078 54.7773 192.16 55.5742 192.324 56.2695C192.488 56.957 192.727 57.5391 193.039 58.0156C193.359 58.4844 193.75 58.8398 194.211 59.082C194.68 59.3242 195.211 59.4453 195.805 59.4453C196.398 59.4453 196.922 59.3242 197.375 59.082C197.836 58.8398 198.223 58.4844 198.535 58.0156C198.855 57.5391 199.098 56.957 199.262 56.2695C199.426 55.5742 199.508 54.7773 199.508 53.8789ZM212.891 58.9648V49.3203H216.266V62H213.09L212.891 58.9648ZM213.266 56.3633L214.262 56.3398C214.262 57.1836 214.164 57.9688 213.969 58.6953C213.773 59.4141 213.48 60.0391 213.09 60.5703C212.699 61.0938 212.207 61.5039 211.613 61.8008C211.02 62.0898 210.32 62.2344 209.516 62.2344C208.898 62.2344 208.328 62.1484 207.805 61.9766C207.289 61.7969 206.844 61.5195 206.469 61.1445C206.102 60.7617 205.812 60.2734 205.602 59.6797C205.398 59.0781 205.297 58.3555 205.297 57.5117V49.3203H208.672V57.5352C208.672 57.9102 208.715 58.2266 208.801 58.4844C208.895 58.7422 209.023 58.9531 209.188 59.1172C209.352 59.2812 209.543 59.3984 209.762 59.4688C209.988 59.5391 210.238 59.5742 210.512 59.5742C211.207 59.5742 211.754 59.4336 212.152 59.1523C212.559 58.8711 212.844 58.4883 213.008 58.0039C213.18 57.5117 213.266 56.9648 213.266 56.3633ZM224.68 62.2344C223.695 62.2344 222.812 62.0781 222.031 61.7656C221.25 61.4453 220.586 61.0039 220.039 60.4414C219.5 59.8789 219.086 59.2266 218.797 58.4844C218.508 57.7344 218.363 56.9375 218.363 56.0938V55.625C218.363 54.6641 218.5 53.7852 218.773 52.9883C219.047 52.1914 219.438 51.5 219.945 50.9141C220.461 50.3281 221.086 49.8789 221.82 49.5664C222.555 49.2461 223.383 49.0859 224.305 49.0859C225.203 49.0859 226 49.2344 226.695 49.5312C227.391 49.8281 227.973 50.25 228.441 50.7969C228.918 51.3438 229.277 52 229.52 52.7656C229.762 53.5234 229.883 54.3672 229.883 55.2969V56.7031H219.805V54.4531H226.566V54.1953C226.566 53.7266 226.48 53.3086 226.309 52.9414C226.145 52.5664 225.895 52.2695 225.559 52.0508C225.223 51.832 224.793 51.7227 224.27 51.7227C223.824 51.7227 223.441 51.8203 223.121 52.0156C222.801 52.2109 222.539 52.4844 222.336 52.8359C222.141 53.1875 221.992 53.6016 221.891 54.0781C221.797 54.5469 221.75 55.0625 221.75 55.625V56.0938C221.75 56.6016 221.82 57.0703 221.961 57.5C222.109 57.9297 222.316 58.3008 222.582 58.6133C222.855 58.9258 223.184 59.168 223.566 59.3398C223.957 59.5117 224.398 59.5977 224.891 59.5977C225.5 59.5977 226.066 59.4805 226.59 59.2461C227.121 59.0039 227.578 58.6406 227.961 58.1562L229.602 59.9375C229.336 60.3203 228.973 60.6875 228.512 61.0391C228.059 61.3906 227.512 61.6797 226.871 61.9062C226.23 62.125 225.5 62.2344 224.68 62.2344ZM238.66 58.4961C238.66 58.2539 238.59 58.0352 238.449 57.8398C238.309 57.6445 238.047 57.4648 237.664 57.3008C237.289 57.1289 236.746 56.9727 236.035 56.832C235.395 56.6914 234.797 56.5156 234.242 56.3047C233.695 56.0859 233.219 55.8242 232.812 55.5195C232.414 55.2148 232.102 54.8555 231.875 54.4414C231.648 54.0195 231.535 53.5391 231.535 53C231.535 52.4688 231.648 51.9688 231.875 51.5C232.109 51.0312 232.441 50.6172 232.871 50.2578C233.309 49.8906 233.84 49.6055 234.465 49.4023C235.098 49.1914 235.809 49.0859 236.598 49.0859C237.699 49.0859 238.645 49.2617 239.434 49.6133C240.23 49.9648 240.84 50.4492 241.262 51.0664C241.691 51.6758 241.906 52.3711 241.906 53.1523H238.531C238.531 52.8242 238.461 52.5312 238.32 52.2734C238.188 52.0078 237.977 51.8008 237.688 51.6523C237.406 51.4961 237.039 51.418 236.586 51.418C236.211 51.418 235.887 51.4844 235.613 51.6172C235.34 51.7422 235.129 51.9141 234.98 52.1328C234.84 52.3438 234.77 52.5781 234.77 52.8359C234.77 53.0312 234.809 53.207 234.887 53.3633C234.973 53.5117 235.109 53.6484 235.297 53.7734C235.484 53.8984 235.727 54.0156 236.023 54.125C236.328 54.2266 236.703 54.3203 237.148 54.4062C238.062 54.5938 238.879 54.8398 239.598 55.1445C240.316 55.4414 240.887 55.8477 241.309 56.3633C241.73 56.8711 241.941 57.5391 241.941 58.3672C241.941 58.9297 241.816 59.4453 241.566 59.9141C241.316 60.3828 240.957 60.793 240.488 61.1445C240.02 61.4883 239.457 61.7578 238.801 61.9531C238.152 62.1406 237.422 62.2344 236.609 62.2344C235.43 62.2344 234.43 62.0234 233.609 61.6016C232.797 61.1797 232.18 60.6445 231.758 59.9961C231.344 59.3398 231.137 58.668 231.137 57.9805H234.336C234.352 58.4414 234.469 58.8125 234.688 59.0938C234.914 59.375 235.199 59.5781 235.543 59.7031C235.895 59.8281 236.273 59.8906 236.68 59.8906C237.117 59.8906 237.48 59.832 237.77 59.7148C238.059 59.5898 238.277 59.4258 238.426 59.2227C238.582 59.0117 238.66 58.7695 238.66 58.4961ZM250.344 49.3203V51.7109H242.961V49.3203H250.344ZM244.789 46.1914H248.164V58.1797C248.164 58.5469 248.211 58.8281 248.305 59.0234C248.406 59.2188 248.555 59.3555 248.75 59.4336C248.945 59.5039 249.191 59.5391 249.488 59.5391C249.699 59.5391 249.887 59.5312 250.051 59.5156C250.223 59.4922 250.367 59.4688 250.484 59.4453L250.496 61.9297C250.207 62.0234 249.895 62.0977 249.559 62.1523C249.223 62.207 248.852 62.2344 248.445 62.2344C247.703 62.2344 247.055 62.1133 246.5 61.8711C245.953 61.6211 245.531 61.2227 245.234 60.6758C244.938 60.1289 244.789 59.4102 244.789 58.5195V46.1914Z" fill="white" fill-opacity="0.5"/>
</g>
<g style="mix-blend-mode:exclusion">
<path d="M115.994 98.708V104.641H99.5806V98.708H115.994ZM102.151 86.0078V118H94.439V86.0078H102.151ZM121.18 86.0078V118H113.489V86.0078H121.18ZM124.805 106.354V105.893C124.805 104.15 125.054 102.546 125.552 101.081C126.05 99.6016 126.783 98.3198 127.75 97.2358C128.716 96.1519 129.91 95.3096 131.331 94.709C132.752 94.0938 134.393 93.7861 136.253 93.7861C138.128 93.7861 139.776 94.0938 141.197 94.709C142.632 95.3096 143.833 96.1519 144.8 97.2358C145.767 98.3198 146.5 99.6016 146.998 101.081C147.496 102.546 147.745 104.15 147.745 105.893V106.354C147.745 108.083 147.496 109.687 146.998 111.167C146.5 112.631 145.767 113.913 144.8 115.012C143.833 116.096 142.64 116.938 141.219 117.539C139.798 118.139 138.157 118.439 136.297 118.439C134.437 118.439 132.789 118.139 131.353 117.539C129.917 116.938 128.716 116.096 127.75 115.012C126.783 113.913 126.05 112.631 125.552 111.167C125.054 109.687 124.805 108.083 124.805 106.354ZM132.21 105.893V106.354C132.21 107.248 132.276 108.083 132.408 108.859C132.54 109.636 132.759 110.317 133.067 110.903C133.375 111.474 133.792 111.921 134.319 112.243C134.847 112.565 135.506 112.727 136.297 112.727C137.073 112.727 137.718 112.565 138.23 112.243C138.758 111.921 139.175 111.474 139.483 110.903C139.791 110.317 140.01 109.636 140.142 108.859C140.274 108.083 140.34 107.248 140.34 106.354V105.893C140.34 105.029 140.274 104.216 140.142 103.454C140.01 102.678 139.791 101.997 139.483 101.411C139.175 100.81 138.758 100.341 138.23 100.004C137.703 99.6675 137.044 99.499 136.253 99.499C135.477 99.499 134.825 99.6675 134.297 100.004C133.785 100.341 133.375 100.81 133.067 101.411C132.759 101.997 132.54 102.678 132.408 103.454C132.276 104.216 132.21 105.029 132.21 105.893ZM158.27 110.925L162.664 94.2256H167.3L165.652 102.597L161.302 118H157.588L158.27 110.925ZM156.534 94.2256L159.258 110.793L159.566 118H155.062L149.437 94.2256H156.534ZM171.211 110.441L173.958 94.2256H181.055L175.474 118H170.97L171.211 110.441ZM167.828 94.2256L172.266 110.881L172.947 118H169.19L164.927 102.641L163.345 94.2256H167.828ZM209.466 86.0078V118H201.753V86.0078H209.466ZM219.09 86.0078V91.9624H192.349V86.0078H219.09ZM216.475 106.354V105.893C216.475 104.15 216.724 102.546 217.222 101.081C217.72 99.6016 218.453 98.3198 219.419 97.2358C220.386 96.1519 221.58 95.3096 223.001 94.709C224.422 94.0938 226.062 93.7861 227.923 93.7861C229.798 93.7861 231.446 94.0938 232.867 94.709C234.302 95.3096 235.503 96.1519 236.47 97.2358C237.437 98.3198 238.169 99.6016 238.667 101.081C239.166 102.546 239.415 104.15 239.415 105.893V106.354C239.415 108.083 239.166 109.687 238.667 111.167C238.169 112.631 237.437 113.913 236.47 115.012C235.503 116.096 234.31 116.938 232.889 117.539C231.468 118.139 229.827 118.439 227.967 118.439C226.106 118.439 224.458 118.139 223.023 117.539C221.587 116.938 220.386 116.096 219.419 115.012C218.453 113.913 217.72 112.631 217.222 111.167C216.724 109.687 216.475 108.083 216.475 106.354ZM223.88 105.893V106.354C223.88 107.248 223.946 108.083 224.078 108.859C224.209 109.636 224.429 110.317 224.737 110.903C225.044 111.474 225.462 111.921 225.989 112.243C226.517 112.565 227.176 112.727 227.967 112.727C228.743 112.727 229.388 112.565 229.9 112.243C230.428 111.921 230.845 111.474 231.153 110.903C231.46 110.317 231.68 109.636 231.812 108.859C231.944 108.083 232.01 107.248 232.01 106.354V105.893C232.01 105.029 231.944 104.216 231.812 103.454C231.68 102.678 231.46 101.997 231.153 101.411C230.845 100.81 230.428 100.341 229.9 100.004C229.373 99.6675 228.714 99.499 227.923 99.499C227.146 99.499 226.495 99.6675 225.967 100.004C225.455 100.341 225.044 100.81 224.737 101.411C224.429 101.997 224.209 102.678 224.078 103.454C223.946 104.216 223.88 105.029 223.88 105.893ZM254.268 86.0078H266.858C269.319 86.0078 271.458 86.374 273.274 87.1064C275.091 87.8389 276.49 88.9229 277.471 90.3584C278.467 91.7939 278.965 93.5664 278.965 95.6758C278.965 97.5068 278.68 99.0376 278.108 100.268C277.537 101.499 276.739 102.517 275.713 103.322C274.703 104.113 273.523 104.765 272.176 105.278L269.649 106.706H259.08L259.036 100.751H266.858C267.84 100.751 268.653 100.576 269.297 100.224C269.942 99.8726 270.425 99.3745 270.748 98.73C271.084 98.0708 271.253 97.2871 271.253 96.3789C271.253 95.4561 271.084 94.665 270.748 94.0059C270.411 93.3467 269.913 92.8413 269.253 92.4897C268.609 92.1382 267.811 91.9624 266.858 91.9624H261.98V118H254.268V86.0078ZM271.78 118L264.705 103.85L272.879 103.806L280.042 117.67V118H271.78ZM297.159 112.221V94.2256H304.585V118H297.642L297.159 112.221ZM297.862 107.387L299.795 107.343C299.795 108.94 299.605 110.419 299.224 111.782C298.843 113.129 298.279 114.301 297.532 115.297C296.8 116.293 295.892 117.07 294.808 117.626C293.738 118.168 292.5 118.439 291.094 118.439C289.922 118.439 288.846 118.278 287.864 117.956C286.897 117.619 286.062 117.099 285.359 116.396C284.656 115.678 284.107 114.763 283.711 113.649C283.331 112.521 283.14 111.174 283.14 109.606V94.2256H290.545V109.65C290.545 110.178 290.611 110.632 290.743 111.013C290.875 111.394 291.065 111.716 291.314 111.979C291.563 112.229 291.871 112.419 292.237 112.551C292.618 112.668 293.05 112.727 293.533 112.727C294.646 112.727 295.518 112.492 296.148 112.023C296.778 111.555 297.217 110.917 297.466 110.112C297.73 109.306 297.862 108.398 297.862 107.387ZM315.945 99.3013V118H308.541V94.2256H315.484L315.945 99.3013ZM315.066 105.3L313.331 105.344C313.331 103.527 313.55 101.909 313.99 100.488C314.429 99.0522 315.052 97.8364 315.857 96.8403C316.663 95.8442 317.623 95.0898 318.736 94.5771C319.864 94.0498 321.116 93.7861 322.493 93.7861C323.592 93.7861 324.595 93.9473 325.503 94.2695C326.426 94.5918 327.217 95.1118 327.876 95.8296C328.55 96.5474 329.063 97.4995 329.415 98.686C329.781 99.8579 329.964 101.308 329.964 103.037V118H322.515V103.015C322.515 102.062 322.383 101.337 322.12 100.839C321.856 100.327 321.475 99.9751 320.977 99.7847C320.479 99.5942 319.871 99.499 319.153 99.499C318.392 99.499 317.747 99.6455 317.22 99.9385C316.692 100.231 316.268 100.642 315.945 101.169C315.638 101.682 315.411 102.29 315.264 102.993C315.132 103.696 315.066 104.465 315.066 105.3ZM345.85 107.871H339.544C339.544 106.582 339.632 105.446 339.808 104.465C339.998 103.469 340.32 102.575 340.774 101.784C341.229 100.993 341.844 100.261 342.62 99.5869C343.309 99.0156 343.902 98.4663 344.4 97.939C344.898 97.4116 345.279 96.877 345.542 96.335C345.806 95.793 345.938 95.2144 345.938 94.5991C345.938 93.8374 345.828 93.2148 345.608 92.7314C345.403 92.248 345.088 91.8892 344.664 91.6548C344.253 91.4058 343.733 91.2812 343.104 91.2812C342.591 91.2812 342.107 91.4058 341.653 91.6548C341.214 91.9038 340.855 92.292 340.577 92.8193C340.298 93.332 340.145 94.0132 340.115 94.8628H332.667C332.71 92.6802 333.194 90.9077 334.117 89.5454C335.054 88.1685 336.299 87.165 337.852 86.5352C339.419 85.8906 341.17 85.5684 343.104 85.5684C345.242 85.5684 347.081 85.8979 348.619 86.5571C350.157 87.2163 351.336 88.1978 352.156 89.5015C352.977 90.7905 353.387 92.3799 353.387 94.2695C353.387 95.5293 353.145 96.6279 352.662 97.5654C352.193 98.4883 351.556 99.3525 350.75 100.158C349.959 100.949 349.073 101.799 348.091 102.707C347.242 103.454 346.663 104.216 346.355 104.992C346.048 105.754 345.879 106.713 345.85 107.871ZM338.643 114.55C338.643 113.496 339.024 112.617 339.786 111.914C340.547 111.196 341.536 110.837 342.752 110.837C343.968 110.837 344.957 111.196 345.718 111.914C346.48 112.617 346.861 113.496 346.861 114.55C346.861 115.605 346.48 116.491 345.718 117.209C344.957 117.912 343.968 118.264 342.752 118.264C341.536 118.264 340.547 117.912 339.786 117.209C339.024 116.491 338.643 115.605 338.643 114.55Z" fill="white"/>
</g>
<path d="M1363 15C1363 6.71573 1356.28 0 1348 0H1134V167H1348C1356.28 167 1363 160.284 1363 152V15Z" fill="#118AB2"/>
<path d="M1260.77 81.3079C1263.96 81.3079 1267.09 82.2553 1269.74 84.0303C1272.4 85.8053 1274.47 88.3282 1275.69 91.2799C1276.92 94.2316 1277.24 97.4796 1276.61 100.613C1275.99 103.747 1274.45 106.625 1272.19 108.884C1269.93 111.143 1267.05 112.682 1263.92 113.305C1260.79 113.928 1257.54 113.608 1254.59 112.386C1251.64 111.163 1249.11 109.093 1247.34 106.436C1245.56 103.78 1244.62 100.657 1244.62 97.4617C1244.62 93.1774 1246.32 89.0686 1249.35 86.0392C1252.38 83.0098 1256.48 81.3079 1260.77 81.3079V81.3079ZM1260.77 75.9233C1256.51 75.9233 1252.35 77.1865 1248.8 79.5532C1245.26 81.9198 1242.5 85.2837 1240.87 89.2193C1239.24 93.1549 1238.81 97.4856 1239.64 101.664C1240.48 105.842 1242.53 109.679 1245.54 112.692C1248.55 115.704 1252.39 117.755 1256.57 118.586C1260.75 119.417 1265.08 118.991 1269.01 117.361C1272.95 115.73 1276.31 112.97 1278.68 109.428C1281.04 105.886 1282.31 101.722 1282.31 97.4617C1282.31 91.7493 1280.04 86.271 1276 82.2317C1271.96 78.1925 1266.48 75.9233 1260.77 75.9233Z" fill="white"/>
<path d="M1274.23 49H1220.38C1218.96 49 1217.59 49.5673 1216.58 50.5771C1215.57 51.5869 1215 52.9565 1215 54.3846V108.231C1215 109.659 1215.57 111.028 1216.58 112.038C1217.59 113.048 1218.96 113.615 1220.38 113.615H1231.15V108.231H1220.38V70.5384H1279.62V54.3846C1279.62 52.9565 1279.05 51.5869 1278.04 50.5771C1277.03 49.5673 1275.66 49 1274.23 49V49ZM1220.38 65.1538V54.3846H1274.23V65.1538H1220.38Z" fill="white"/>
<path d="M1255.39 89.3849V105.539L1268.85 97.4618L1255.39 89.3849Z" fill="white"/>
</svg>
