<svg width="1363" height="167" viewBox="0 0 1363 167" fill="none" xmlns="http://www.w3.org/2000/svg">
<g style="mix-blend-mode:exclusion">
<rect width="1363" height="167" rx="15" fill="white" fill-opacity="0.05"/>
</g>
<g style="mix-blend-mode:exclusion">
<path d="M0 15C0 6.71573 6.71573 0 15 0H37V167H15C6.71573 167 0 160.284 0 152V15Z" fill="white" fill-opacity="0.25"/>
</g>
<g style="mix-blend-mode:exclusion">
<path d="M100.906 54.9219L93.3945 52.2383V49.0859L103.602 53.375V55.6367L100.906 54.9219ZM93.3945 57.1719L100.918 54.4297L103.602 53.7852V56.0352L93.3945 60.3242V57.1719ZM118.578 54.5117H114.195L114.172 52.0977H117.852C118.5 52.0977 119.031 52.0156 119.445 51.8516C119.859 51.6797 120.168 51.4336 120.371 51.1133C120.582 50.7852 120.688 50.3867 120.688 49.918C120.688 49.3867 120.586 48.957 120.383 48.6289C120.188 48.3008 119.879 48.0625 119.457 47.9141C119.043 47.7656 118.508 47.6914 117.852 47.6914H115.414V62H111.898V44.9375H117.852C118.844 44.9375 119.73 45.0312 120.512 45.2188C121.301 45.4062 121.969 45.6914 122.516 46.0742C123.062 46.457 123.48 46.9414 123.77 47.5273C124.059 48.1055 124.203 48.793 124.203 49.5898C124.203 50.293 124.043 50.9414 123.723 51.5352C123.41 52.1289 122.914 52.6133 122.234 52.9883C121.562 53.3633 120.684 53.5703 119.598 53.6094L118.578 54.5117ZM118.426 62H113.234L114.605 59.2578H118.426C119.043 59.2578 119.547 59.1602 119.938 58.9648C120.328 58.7617 120.617 58.4883 120.805 58.1445C120.992 57.8008 121.086 57.4062 121.086 56.9609C121.086 56.4609 121 56.0273 120.828 55.6602C120.664 55.293 120.398 55.0117 120.031 54.8164C119.664 54.6133 119.18 54.5117 118.578 54.5117H115.191L115.215 52.0977H119.434L120.242 53.0469C121.281 53.0312 122.117 53.2148 122.75 53.5977C123.391 53.9727 123.855 54.4609 124.145 55.0625C124.441 55.6641 124.59 56.3086 124.59 56.9961C124.59 58.0898 124.352 59.0117 123.875 59.7617C123.398 60.5039 122.699 61.0625 121.777 61.4375C120.863 61.8125 119.746 62 118.426 62ZM126.477 55.7891V55.543C126.477 54.6133 126.609 53.7578 126.875 52.9766C127.141 52.1875 127.527 51.5039 128.035 50.9258C128.543 50.3477 129.168 49.8984 129.91 49.5781C130.652 49.25 131.504 49.0859 132.465 49.0859C133.426 49.0859 134.281 49.25 135.031 49.5781C135.781 49.8984 136.41 50.3477 136.918 50.9258C137.434 51.5039 137.824 52.1875 138.09 52.9766C138.355 53.7578 138.488 54.6133 138.488 55.543V55.7891C138.488 56.7109 138.355 57.5664 138.09 58.3555C137.824 59.1367 137.434 59.8203 136.918 60.4062C136.41 60.9844 135.785 61.4336 135.043 61.7539C134.301 62.0742 133.449 62.2344 132.488 62.2344C131.527 62.2344 130.672 62.0742 129.922 61.7539C129.18 61.4336 128.551 60.9844 128.035 60.4062C127.527 59.8203 127.141 59.1367 126.875 58.3555C126.609 57.5664 126.477 56.7109 126.477 55.7891ZM129.852 55.543V55.7891C129.852 56.3203 129.898 56.8164 129.992 57.2773C130.086 57.7383 130.234 58.1445 130.438 58.4961C130.648 58.8398 130.922 59.1094 131.258 59.3047C131.594 59.5 132.004 59.5977 132.488 59.5977C132.957 59.5977 133.359 59.5 133.695 59.3047C134.031 59.1094 134.301 58.8398 134.504 58.4961C134.707 58.1445 134.855 57.7383 134.949 57.2773C135.051 56.8164 135.102 56.3203 135.102 55.7891V55.543C135.102 55.0273 135.051 54.543 134.949 54.0898C134.855 53.6289 134.703 53.2227 134.492 52.8711C134.289 52.5117 134.02 52.2305 133.684 52.0273C133.348 51.8242 132.941 51.7227 132.465 51.7227C131.988 51.7227 131.582 51.8242 131.246 52.0273C130.918 52.2305 130.648 52.5117 130.438 52.8711C130.234 53.2227 130.086 53.6289 129.992 54.0898C129.898 54.543 129.852 55.0273 129.852 55.543ZM143.938 52.0859V62H140.562V49.3203H143.738L143.938 52.0859ZM147.758 49.2383L147.699 52.3672C147.535 52.3438 147.336 52.3242 147.102 52.3086C146.875 52.2852 146.668 52.2734 146.48 52.2734C146.004 52.2734 145.59 52.3359 145.238 52.4609C144.895 52.5781 144.605 52.7539 144.371 52.9883C144.145 53.2227 143.973 53.5078 143.855 53.8438C143.746 54.1797 143.684 54.5625 143.668 54.9922L142.988 54.7812C142.988 53.9609 143.07 53.207 143.234 52.5195C143.398 51.8242 143.637 51.2188 143.949 50.7031C144.27 50.1875 144.66 49.7891 145.121 49.5078C145.582 49.2266 146.109 49.0859 146.703 49.0859C146.891 49.0859 147.082 49.1016 147.277 49.1328C147.473 49.1562 147.633 49.1914 147.758 49.2383ZM152.914 49.3203V62H149.527V49.3203H152.914ZM149.316 46.0156C149.316 45.5234 149.488 45.1172 149.832 44.7969C150.176 44.4766 150.637 44.3164 151.215 44.3164C151.785 44.3164 152.242 44.4766 152.586 44.7969C152.938 45.1172 153.113 45.5234 153.113 46.0156C153.113 46.5078 152.938 46.9141 152.586 47.2344C152.242 47.5547 151.785 47.7148 151.215 47.7148C150.637 47.7148 150.176 47.5547 149.832 47.2344C149.488 46.9141 149.316 46.5078 149.316 46.0156ZM159.008 52.0273V62H155.633V49.3203H158.797L159.008 52.0273ZM158.516 55.2148H157.602C157.602 54.2773 157.723 53.4336 157.965 52.6836C158.207 51.9258 158.547 51.2812 158.984 50.75C159.422 50.2109 159.941 49.8008 160.543 49.5195C161.152 49.2305 161.832 49.0859 162.582 49.0859C163.176 49.0859 163.719 49.1719 164.211 49.3438C164.703 49.5156 165.125 49.7891 165.477 50.1641C165.836 50.5391 166.109 51.0352 166.297 51.6523C166.492 52.2695 166.59 53.0234 166.59 53.9141V62H163.191V53.9023C163.191 53.3398 163.113 52.9023 162.957 52.5898C162.801 52.2773 162.57 52.0586 162.266 51.9336C161.969 51.8008 161.602 51.7344 161.164 51.7344C160.711 51.7344 160.316 51.8242 159.98 52.0039C159.652 52.1836 159.379 52.4336 159.16 52.7539C158.949 53.0664 158.789 53.4336 158.68 53.8555C158.57 54.2773 158.516 54.7305 158.516 55.2148ZM177.184 49.3203H180.242V61.5781C180.242 62.7344 179.984 63.7148 179.469 64.5195C178.961 65.332 178.25 65.9453 177.336 66.3594C176.422 66.7812 175.359 66.9922 174.148 66.9922C173.617 66.9922 173.055 66.9219 172.461 66.7812C171.875 66.6406 171.312 66.4219 170.773 66.125C170.242 65.8281 169.797 65.4531 169.438 65L170.926 63.0078C171.316 63.4609 171.77 63.8125 172.285 64.0625C172.801 64.3203 173.371 64.4492 173.996 64.4492C174.605 64.4492 175.121 64.3359 175.543 64.1094C175.965 63.8906 176.289 63.5664 176.516 63.1367C176.742 62.7148 176.855 62.2031 176.855 61.6016V52.25L177.184 49.3203ZM168.652 55.8125V55.5664C168.652 54.5977 168.77 53.7188 169.004 52.9297C169.246 52.1328 169.586 51.4492 170.023 50.8789C170.469 50.3086 171.008 49.8672 171.641 49.5547C172.273 49.2422 172.988 49.0859 173.785 49.0859C174.629 49.0859 175.336 49.2422 175.906 49.5547C176.477 49.8672 176.945 50.3125 177.312 50.8906C177.68 51.4609 177.965 52.1367 178.168 52.918C178.379 53.6914 178.543 54.5391 178.66 55.4609V56C178.543 56.8828 178.367 57.7031 178.133 58.4609C177.898 59.2188 177.59 59.8828 177.207 60.4531C176.824 61.0156 176.348 61.4531 175.777 61.7656C175.215 62.0781 174.543 62.2344 173.762 62.2344C172.98 62.2344 172.273 62.0742 171.641 61.7539C171.016 61.4336 170.48 60.9844 170.035 60.4062C169.59 59.8281 169.246 59.1484 169.004 58.3672C168.77 57.5859 168.652 56.7344 168.652 55.8125ZM172.027 55.5664V55.8125C172.027 56.3359 172.078 56.8242 172.18 57.2773C172.281 57.7305 172.438 58.1328 172.648 58.4844C172.867 58.8281 173.137 59.0977 173.457 59.293C173.785 59.4805 174.172 59.5742 174.617 59.5742C175.234 59.5742 175.738 59.4453 176.129 59.1875C176.52 58.9219 176.812 58.5586 177.008 58.0977C177.203 57.6367 177.316 57.1055 177.348 56.5039V54.9688C177.332 54.4766 177.266 54.0352 177.148 53.6445C177.031 53.2461 176.867 52.9062 176.656 52.625C176.445 52.3438 176.172 52.125 175.836 51.9688C175.5 51.8125 175.102 51.7344 174.641 51.7344C174.195 51.7344 173.809 51.8359 173.48 52.0391C173.16 52.2344 172.891 52.5039 172.672 52.8477C172.461 53.1914 172.301 53.5977 172.191 54.0664C172.082 54.5273 172.027 55.0273 172.027 55.5664ZM198.324 59.4688L202.941 63.125L200.727 65.0469L196.18 61.3906L198.324 59.4688ZM203.059 53.0703V53.8789C203.059 55.1758 202.883 56.3398 202.531 57.3711C202.188 58.4023 201.691 59.2812 201.043 60.0078C200.395 60.7266 199.629 61.2773 198.746 61.6602C197.863 62.043 196.883 62.2344 195.805 62.2344C194.734 62.2344 193.754 62.043 192.863 61.6602C191.973 61.2773 191.203 60.7266 190.555 60.0078C189.906 59.2812 189.402 58.4023 189.043 57.3711C188.691 56.3398 188.516 55.1758 188.516 53.8789V53.0703C188.516 51.7656 188.691 50.6016 189.043 49.5781C189.402 48.5469 189.902 47.668 190.543 46.9414C191.184 46.2148 191.949 45.6602 192.84 45.2773C193.73 44.8945 194.711 44.7031 195.781 44.7031C196.859 44.7031 197.84 44.8945 198.723 45.2773C199.613 45.6602 200.383 46.2148 201.031 46.9414C201.68 47.668 202.18 48.5469 202.531 49.5781C202.883 50.6016 203.059 51.7656 203.059 53.0703ZM199.508 53.8789V53.0469C199.508 52.1406 199.422 51.3438 199.25 50.6562C199.086 49.9688 198.844 49.3906 198.523 48.9219C198.211 48.4531 197.824 48.1016 197.363 47.8672C196.902 47.625 196.375 47.5039 195.781 47.5039C195.188 47.5039 194.66 47.625 194.199 47.8672C193.738 48.1016 193.352 48.4531 193.039 48.9219C192.727 49.3906 192.488 49.9688 192.324 50.6562C192.16 51.3438 192.078 52.1406 192.078 53.0469V53.8789C192.078 54.7773 192.16 55.5742 192.324 56.2695C192.488 56.957 192.727 57.5391 193.039 58.0156C193.359 58.4844 193.75 58.8398 194.211 59.082C194.68 59.3242 195.211 59.4453 195.805 59.4453C196.398 59.4453 196.922 59.3242 197.375 59.082C197.836 58.8398 198.223 58.4844 198.535 58.0156C198.855 57.5391 199.098 56.957 199.262 56.2695C199.426 55.5742 199.508 54.7773 199.508 53.8789ZM212.891 58.9648V49.3203H216.266V62H213.09L212.891 58.9648ZM213.266 56.3633L214.262 56.3398C214.262 57.1836 214.164 57.9688 213.969 58.6953C213.773 59.4141 213.48 60.0391 213.09 60.5703C212.699 61.0938 212.207 61.5039 211.613 61.8008C211.02 62.0898 210.32 62.2344 209.516 62.2344C208.898 62.2344 208.328 62.1484 207.805 61.9766C207.289 61.7969 206.844 61.5195 206.469 61.1445C206.102 60.7617 205.812 60.2734 205.602 59.6797C205.398 59.0781 205.297 58.3555 205.297 57.5117V49.3203H208.672V57.5352C208.672 57.9102 208.715 58.2266 208.801 58.4844C208.895 58.7422 209.023 58.9531 209.188 59.1172C209.352 59.2812 209.543 59.3984 209.762 59.4688C209.988 59.5391 210.238 59.5742 210.512 59.5742C211.207 59.5742 211.754 59.4336 212.152 59.1523C212.559 58.8711 212.844 58.4883 213.008 58.0039C213.18 57.5117 213.266 56.9648 213.266 56.3633ZM224.68 62.2344C223.695 62.2344 222.812 62.0781 222.031 61.7656C221.25 61.4453 220.586 61.0039 220.039 60.4414C219.5 59.8789 219.086 59.2266 218.797 58.4844C218.508 57.7344 218.363 56.9375 218.363 56.0938V55.625C218.363 54.6641 218.5 53.7852 218.773 52.9883C219.047 52.1914 219.438 51.5 219.945 50.9141C220.461 50.3281 221.086 49.8789 221.82 49.5664C222.555 49.2461 223.383 49.0859 224.305 49.0859C225.203 49.0859 226 49.2344 226.695 49.5312C227.391 49.8281 227.973 50.25 228.441 50.7969C228.918 51.3438 229.277 52 229.52 52.7656C229.762 53.5234 229.883 54.3672 229.883 55.2969V56.7031H219.805V54.4531H226.566V54.1953C226.566 53.7266 226.48 53.3086 226.309 52.9414C226.145 52.5664 225.895 52.2695 225.559 52.0508C225.223 51.832 224.793 51.7227 224.27 51.7227C223.824 51.7227 223.441 51.8203 223.121 52.0156C222.801 52.2109 222.539 52.4844 222.336 52.8359C222.141 53.1875 221.992 53.6016 221.891 54.0781C221.797 54.5469 221.75 55.0625 221.75 55.625V56.0938C221.75 56.6016 221.82 57.0703 221.961 57.5C222.109 57.9297 222.316 58.3008 222.582 58.6133C222.855 58.9258 223.184 59.168 223.566 59.3398C223.957 59.5117 224.398 59.5977 224.891 59.5977C225.5 59.5977 226.066 59.4805 226.59 59.2461C227.121 59.0039 227.578 58.6406 227.961 58.1562L229.602 59.9375C229.336 60.3203 228.973 60.6875 228.512 61.0391C228.059 61.3906 227.512 61.6797 226.871 61.9062C226.23 62.125 225.5 62.2344 224.68 62.2344ZM238.66 58.4961C238.66 58.2539 238.59 58.0352 238.449 57.8398C238.309 57.6445 238.047 57.4648 237.664 57.3008C237.289 57.1289 236.746 56.9727 236.035 56.832C235.395 56.6914 234.797 56.5156 234.242 56.3047C233.695 56.0859 233.219 55.8242 232.812 55.5195C232.414 55.2148 232.102 54.8555 231.875 54.4414C231.648 54.0195 231.535 53.5391 231.535 53C231.535 52.4688 231.648 51.9688 231.875 51.5C232.109 51.0312 232.441 50.6172 232.871 50.2578C233.309 49.8906 233.84 49.6055 234.465 49.4023C235.098 49.1914 235.809 49.0859 236.598 49.0859C237.699 49.0859 238.645 49.2617 239.434 49.6133C240.23 49.9648 240.84 50.4492 241.262 51.0664C241.691 51.6758 241.906 52.3711 241.906 53.1523H238.531C238.531 52.8242 238.461 52.5312 238.32 52.2734C238.188 52.0078 237.977 51.8008 237.688 51.6523C237.406 51.4961 237.039 51.418 236.586 51.418C236.211 51.418 235.887 51.4844 235.613 51.6172C235.34 51.7422 235.129 51.9141 234.98 52.1328C234.84 52.3438 234.77 52.5781 234.77 52.8359C234.77 53.0312 234.809 53.207 234.887 53.3633C234.973 53.5117 235.109 53.6484 235.297 53.7734C235.484 53.8984 235.727 54.0156 236.023 54.125C236.328 54.2266 236.703 54.3203 237.148 54.4062C238.062 54.5938 238.879 54.8398 239.598 55.1445C240.316 55.4414 240.887 55.8477 241.309 56.3633C241.73 56.8711 241.941 57.5391 241.941 58.3672C241.941 58.9297 241.816 59.4453 241.566 59.9141C241.316 60.3828 240.957 60.793 240.488 61.1445C240.02 61.4883 239.457 61.7578 238.801 61.9531C238.152 62.1406 237.422 62.2344 236.609 62.2344C235.43 62.2344 234.43 62.0234 233.609 61.6016C232.797 61.1797 232.18 60.6445 231.758 59.9961C231.344 59.3398 231.137 58.668 231.137 57.9805H234.336C234.352 58.4414 234.469 58.8125 234.688 59.0938C234.914 59.375 235.199 59.5781 235.543 59.7031C235.895 59.8281 236.273 59.8906 236.68 59.8906C237.117 59.8906 237.48 59.832 237.77 59.7148C238.059 59.5898 238.277 59.4258 238.426 59.2227C238.582 59.0117 238.66 58.7695 238.66 58.4961ZM250.344 49.3203V51.7109H242.961V49.3203H250.344ZM244.789 46.1914H248.164V58.1797C248.164 58.5469 248.211 58.8281 248.305 59.0234C248.406 59.2188 248.555 59.3555 248.75 59.4336C248.945 59.5039 249.191 59.5391 249.488 59.5391C249.699 59.5391 249.887 59.5312 250.051 59.5156C250.223 59.4922 250.367 59.4688 250.484 59.4453L250.496 61.9297C250.207 62.0234 249.895 62.0977 249.559 62.1523C249.223 62.207 248.852 62.2344 248.445 62.2344C247.703 62.2344 247.055 62.1133 246.5 61.8711C245.953 61.6211 245.531 61.2227 245.234 60.6758C244.938 60.1289 244.789 59.4102 244.789 58.5195V46.1914Z" fill="white" fill-opacity="0.5"/>
</g>
<g style="mix-blend-mode:exclusion">
<path d="M107.205 107.146H99.251V101.191H107.205C108.289 101.191 109.168 101.008 109.842 100.642C110.516 100.275 111.006 99.77 111.314 99.1255C111.636 98.4663 111.797 97.7266 111.797 96.9062C111.797 96.0273 111.636 95.2144 111.314 94.4673C111.006 93.7202 110.516 93.1196 109.842 92.6655C109.168 92.1968 108.289 91.9624 107.205 91.9624H102.151V118H94.439V86.0078H107.205C109.769 86.0078 111.973 86.4766 113.819 87.4141C115.679 88.3516 117.107 89.6406 118.104 91.2812C119.1 92.9072 119.598 94.7676 119.598 96.8623C119.598 98.9277 119.1 100.729 118.104 102.268C117.107 103.806 115.679 105.007 113.819 105.871C111.973 106.721 109.769 107.146 107.205 107.146ZM130.87 100.114V118H123.465V94.2256H130.386L130.87 100.114ZM137.901 94.0498L137.769 100.927C137.476 100.898 137.081 100.861 136.583 100.817C136.084 100.773 135.667 100.751 135.33 100.751C134.466 100.751 133.719 100.854 133.089 101.059C132.474 101.25 131.961 101.542 131.551 101.938C131.155 102.319 130.862 102.802 130.672 103.388C130.496 103.974 130.416 104.655 130.43 105.432L129.09 104.553C129.09 102.956 129.244 101.506 129.551 100.202C129.874 98.8838 130.328 97.7485 130.914 96.7964C131.5 95.8296 132.21 95.0898 133.045 94.5771C133.88 94.0498 134.817 93.7861 135.857 93.7861C136.224 93.7861 136.583 93.8081 136.934 93.8521C137.3 93.896 137.623 93.9619 137.901 94.0498ZM138.736 106.354V105.893C138.736 104.15 138.985 102.546 139.483 101.081C139.981 99.6016 140.713 98.3198 141.68 97.2358C142.647 96.1519 143.841 95.3096 145.262 94.709C146.683 94.0938 148.323 93.7861 150.184 93.7861C152.059 93.7861 153.707 94.0938 155.127 94.709C156.563 95.3096 157.764 96.1519 158.731 97.2358C159.698 98.3198 160.43 99.6016 160.928 101.081C161.426 102.546 161.675 104.15 161.675 105.893V106.354C161.675 108.083 161.426 109.687 160.928 111.167C160.43 112.631 159.698 113.913 158.731 115.012C157.764 116.096 156.57 116.938 155.149 117.539C153.729 118.139 152.088 118.439 150.228 118.439C148.367 118.439 146.719 118.139 145.284 117.539C143.848 116.938 142.647 116.096 141.68 115.012C140.713 113.913 139.981 112.631 139.483 111.167C138.985 109.687 138.736 108.083 138.736 106.354ZM146.141 105.893V106.354C146.141 107.248 146.207 108.083 146.338 108.859C146.47 109.636 146.69 110.317 146.998 110.903C147.305 111.474 147.723 111.921 148.25 112.243C148.777 112.565 149.437 112.727 150.228 112.727C151.004 112.727 151.648 112.565 152.161 112.243C152.688 111.921 153.106 111.474 153.414 110.903C153.721 110.317 153.941 109.636 154.073 108.859C154.205 108.083 154.271 107.248 154.271 106.354V105.893C154.271 105.029 154.205 104.216 154.073 103.454C153.941 102.678 153.721 101.997 153.414 101.411C153.106 100.81 152.688 100.341 152.161 100.004C151.634 99.6675 150.975 99.499 150.184 99.499C149.407 99.499 148.755 99.6675 148.228 100.004C147.715 100.341 147.305 100.81 146.998 101.411C146.69 101.997 146.47 102.678 146.338 103.454C146.207 104.216 146.141 105.029 146.141 105.893ZM177.496 94.2256V99.3672H163.169V94.2256H177.496ZM166.18 88.3149H173.584V110.244C173.584 110.874 173.658 111.364 173.804 111.716C173.951 112.053 174.2 112.294 174.551 112.441C174.917 112.573 175.401 112.639 176.001 112.639C176.426 112.639 176.778 112.631 177.056 112.617C177.334 112.587 177.598 112.551 177.847 112.507V117.802C177.217 118.007 176.558 118.161 175.87 118.264C175.181 118.381 174.449 118.439 173.672 118.439C172.09 118.439 170.735 118.19 169.607 117.692C168.494 117.194 167.645 116.411 167.059 115.341C166.473 114.272 166.18 112.88 166.18 111.167V88.3149ZM178.858 106.354V105.893C178.858 104.15 179.107 102.546 179.605 101.081C180.103 99.6016 180.835 98.3198 181.802 97.2358C182.769 96.1519 183.963 95.3096 185.384 94.709C186.805 94.0938 188.445 93.7861 190.306 93.7861C192.181 93.7861 193.829 94.0938 195.25 94.709C196.685 95.3096 197.886 96.1519 198.853 97.2358C199.82 98.3198 200.552 99.6016 201.05 101.081C201.548 102.546 201.797 104.15 201.797 105.893V106.354C201.797 108.083 201.548 109.687 201.05 111.167C200.552 112.631 199.82 113.913 198.853 115.012C197.886 116.096 196.692 116.938 195.271 117.539C193.851 118.139 192.21 118.439 190.35 118.439C188.489 118.439 186.841 118.139 185.406 117.539C183.97 116.938 182.769 116.096 181.802 115.012C180.835 113.913 180.103 112.631 179.605 111.167C179.107 109.687 178.858 108.083 178.858 106.354ZM186.263 105.893V106.354C186.263 107.248 186.329 108.083 186.46 108.859C186.592 109.636 186.812 110.317 187.12 110.903C187.427 111.474 187.845 111.921 188.372 112.243C188.899 112.565 189.559 112.727 190.35 112.727C191.126 112.727 191.771 112.565 192.283 112.243C192.811 111.921 193.228 111.474 193.536 110.903C193.843 110.317 194.063 109.636 194.195 108.859C194.327 108.083 194.393 107.248 194.393 106.354V105.893C194.393 105.029 194.327 104.216 194.195 103.454C194.063 102.678 193.843 101.997 193.536 101.411C193.228 100.81 192.811 100.341 192.283 100.004C191.756 99.6675 191.097 99.499 190.306 99.499C189.529 99.499 188.877 99.6675 188.35 100.004C187.837 100.341 187.427 100.81 187.12 101.411C186.812 101.997 186.592 102.678 186.46 103.454C186.329 104.216 186.263 105.029 186.263 105.893ZM217.618 94.2256V99.3672H203.292V94.2256H217.618ZM206.302 88.3149H213.707V110.244C213.707 110.874 213.78 111.364 213.926 111.716C214.073 112.053 214.322 112.294 214.673 112.441C215.04 112.573 215.523 112.639 216.124 112.639C216.548 112.639 216.9 112.631 217.178 112.617C217.457 112.587 217.72 112.551 217.969 112.507V117.802C217.339 118.007 216.68 118.161 215.992 118.264C215.303 118.381 214.571 118.439 213.794 118.439C212.212 118.439 210.857 118.19 209.729 117.692C208.616 117.194 207.767 116.411 207.181 115.341C206.595 114.272 206.302 112.88 206.302 111.167V88.3149ZM227.857 115.209L234.009 94.2256H241.963L232.405 121.538C232.2 122.138 231.929 122.783 231.592 123.471C231.255 124.174 230.794 124.841 230.208 125.471C229.622 126.101 228.868 126.613 227.945 127.009C227.037 127.404 225.909 127.602 224.561 127.602C223.843 127.602 223.316 127.565 222.979 127.492C222.657 127.434 222.159 127.324 221.485 127.163V121.867C221.675 121.867 221.836 121.867 221.968 121.867C222.115 121.867 222.276 121.867 222.452 121.867C223.243 121.867 223.873 121.787 224.341 121.625C224.825 121.464 225.191 121.23 225.44 120.922C225.704 120.615 225.909 120.241 226.055 119.802L227.857 115.209ZM226.297 94.2256L230.977 110.859L231.79 118.703H226.824L218.365 94.2256H226.297ZM251.368 98.7959V127.141H243.963V94.2256H250.862L251.368 98.7959ZM265.958 105.827V106.289C265.958 108.017 265.76 109.621 265.364 111.101C264.969 112.58 264.383 113.869 263.606 114.968C262.83 116.066 261.863 116.923 260.706 117.539C259.563 118.139 258.238 118.439 256.729 118.439C255.308 118.439 254.085 118.125 253.06 117.495C252.034 116.865 251.177 115.993 250.489 114.88C249.8 113.767 249.244 112.492 248.819 111.057C248.394 109.621 248.057 108.105 247.808 106.508V105.915C248.057 104.201 248.394 102.612 248.819 101.147C249.244 99.6675 249.8 98.3784 250.489 97.2798C251.177 96.1812 252.027 95.3242 253.038 94.709C254.063 94.0938 255.286 93.7861 256.707 93.7861C258.216 93.7861 259.542 94.0718 260.684 94.6431C261.841 95.2144 262.808 96.0347 263.584 97.104C264.375 98.1587 264.969 99.4258 265.364 100.905C265.76 102.385 265.958 104.025 265.958 105.827ZM258.553 106.289V105.827C258.553 104.904 258.487 104.062 258.355 103.3C258.223 102.524 258.011 101.85 257.718 101.279C257.439 100.708 257.066 100.268 256.597 99.9604C256.128 99.6528 255.55 99.499 254.861 99.499C254.07 99.499 253.404 99.6235 252.862 99.8726C252.334 100.107 251.91 100.473 251.587 100.971C251.28 101.455 251.06 102.062 250.928 102.795C250.811 103.513 250.76 104.355 250.774 105.322V107.124C250.745 108.237 250.855 109.218 251.104 110.068C251.353 110.903 251.785 111.555 252.4 112.023C253.016 112.492 253.851 112.727 254.905 112.727C255.608 112.727 256.194 112.565 256.663 112.243C257.132 111.906 257.505 111.445 257.784 110.859C258.062 110.258 258.26 109.57 258.377 108.793C258.494 108.017 258.553 107.182 258.553 106.289ZM277.076 94.2256V118H269.649V94.2256H277.076ZM269.209 88.0952C269.209 87.0405 269.59 86.1763 270.352 85.5024C271.114 84.8286 272.103 84.4917 273.318 84.4917C274.534 84.4917 275.523 84.8286 276.285 85.5024C277.046 86.1763 277.427 87.0405 277.427 88.0952C277.427 89.1499 277.046 90.0142 276.285 90.688C275.523 91.3618 274.534 91.6987 273.318 91.6987C272.103 91.6987 271.114 91.3618 270.352 90.688C269.59 90.0142 269.209 89.1499 269.209 88.0952ZM288.919 99.3013V118H281.514V94.2256H288.458L288.919 99.3013ZM288.04 105.3L286.304 105.344C286.304 103.527 286.524 101.909 286.963 100.488C287.403 99.0522 288.025 97.8364 288.831 96.8403C289.637 95.8442 290.596 95.0898 291.709 94.5771C292.837 94.0498 294.09 93.7861 295.467 93.7861C296.565 93.7861 297.569 93.9473 298.477 94.2695C299.4 94.5918 300.191 95.1118 300.85 95.8296C301.524 96.5474 302.037 97.4995 302.388 98.686C302.754 99.8579 302.938 101.308 302.938 103.037V118H295.489V103.015C295.489 102.062 295.357 101.337 295.093 100.839C294.83 100.327 294.449 99.9751 293.951 99.7847C293.453 99.5942 292.845 99.499 292.127 99.499C291.365 99.499 290.721 99.6455 290.193 99.9385C289.666 100.231 289.241 100.642 288.919 101.169C288.611 101.682 288.384 102.29 288.238 102.993C288.106 103.696 288.04 104.465 288.04 105.3ZM321.988 94.2256H328.711V117.077C328.711 119.274 328.206 121.135 327.195 122.658C326.185 124.196 324.771 125.361 322.955 126.152C321.153 126.958 319.043 127.36 316.626 127.36C315.557 127.36 314.466 127.221 313.353 126.943C312.239 126.679 311.199 126.284 310.232 125.756C309.266 125.229 308.453 124.577 307.793 123.801L310.892 119.45C311.492 120.124 312.247 120.695 313.155 121.164C314.063 121.647 315.132 121.889 316.363 121.889C317.432 121.889 318.326 121.699 319.043 121.318C319.776 120.937 320.333 120.38 320.713 119.648C321.094 118.93 321.285 118.059 321.285 117.033V99.8506L321.988 94.2256ZM306.189 106.398V105.937C306.189 104.135 306.409 102.495 306.849 101.015C307.303 99.521 307.947 98.2393 308.782 97.1699C309.632 96.0859 310.657 95.251 311.858 94.665C313.06 94.0791 314.415 93.7861 315.923 93.7861C317.549 93.7861 318.882 94.1011 319.922 94.731C320.977 95.3462 321.819 96.2104 322.449 97.3237C323.094 98.437 323.592 99.7407 323.943 101.235C324.31 102.714 324.617 104.311 324.866 106.025V106.574C324.617 108.186 324.273 109.709 323.833 111.145C323.409 112.565 322.852 113.825 322.164 114.924C321.475 116.022 320.611 116.887 319.571 117.517C318.545 118.132 317.315 118.439 315.879 118.439C314.385 118.439 313.038 118.139 311.836 117.539C310.65 116.938 309.632 116.096 308.782 115.012C307.947 113.928 307.303 112.653 306.849 111.188C306.409 109.724 306.189 108.127 306.189 106.398ZM313.594 105.937V106.398C313.594 107.292 313.675 108.12 313.836 108.881C314.012 109.643 314.275 110.317 314.627 110.903C314.979 111.474 315.411 111.921 315.923 112.243C316.451 112.565 317.066 112.727 317.769 112.727C318.838 112.727 319.703 112.5 320.362 112.045C321.021 111.591 321.497 110.947 321.79 110.112C322.083 109.277 322.208 108.295 322.164 107.167V105.432C322.193 104.465 322.127 103.615 321.966 102.883C321.805 102.136 321.548 101.513 321.197 101.015C320.86 100.517 320.406 100.144 319.834 99.8945C319.278 99.6309 318.604 99.499 317.813 99.499C317.125 99.499 316.517 99.6602 315.989 99.9824C315.462 100.305 315.022 100.759 314.671 101.345C314.319 101.916 314.048 102.597 313.858 103.388C313.682 104.165 313.594 105.014 313.594 105.937Z" fill="white"/>
</g>
<path d="M1363 15C1363 6.71573 1356.28 0 1348 0H1134V167H1348C1356.28 167 1363 160.284 1363 152V15Z" fill="#118AB2"/>
<path fill-rule="evenodd" clip-rule="evenodd" d="M1203 49C1203 47.8954 1203.9 47 1205 47H1292.5C1293.6 47 1294.5 47.8954 1294.5 49V118.996C1294.5 120.101 1293.6 120.996 1292.5 120.996H1205C1203.9 120.996 1203 120.101 1203 118.996V49ZM1207 51V55.4945H1290.5V51H1207ZM1290.5 59.4945H1235.44V116.996H1290.5V59.4945ZM1231.44 116.996V59.4945H1207V116.996H1231.44Z" fill="white"/>
<path fill-rule="evenodd" clip-rule="evenodd" d="M1209.97 64.8004C1209.97 63.6958 1210.87 62.8004 1211.97 62.8004H1225.97C1227.08 62.8004 1227.97 63.6958 1227.97 64.8004V84.1956C1227.97 85.3001 1227.08 86.1956 1225.97 86.1956H1211.97C1210.87 86.1956 1209.97 85.3001 1209.97 84.1956V64.8004ZM1213.97 66.8004V82.1956H1223.97V66.8004H1213.97ZM1239.58 65.6964C1239.58 64.5918 1240.47 63.6964 1241.58 63.6964H1284.5C1285.61 63.6964 1286.5 64.5918 1286.5 65.6964V111.905C1286.5 113.01 1285.61 113.905 1284.5 113.905H1241.58C1240.47 113.905 1239.58 113.01 1239.58 111.905V65.6964ZM1243.58 67.6964V109.905H1282.5V67.6964H1243.58ZM1209.81 95.9363C1209.81 94.8317 1210.71 93.9363 1211.81 93.9363H1220.73C1221.84 93.9363 1222.73 94.8317 1222.73 95.9363C1222.73 97.0409 1221.84 97.9363 1220.73 97.9363H1211.81C1210.71 97.9363 1209.81 97.0409 1209.81 95.9363ZM1209.81 102.936C1209.81 101.832 1210.71 100.936 1211.81 100.936H1226.35C1227.46 100.936 1228.35 101.832 1228.35 102.936C1228.35 104.041 1227.46 104.936 1226.35 104.936H1211.81C1210.71 104.936 1209.81 104.041 1209.81 102.936ZM1209.81 109.936C1209.81 108.832 1210.71 107.936 1211.81 107.936H1220.73C1221.84 107.936 1222.73 108.832 1222.73 109.936C1222.73 111.041 1221.84 111.936 1220.73 111.936H1211.81C1210.71 111.936 1209.81 111.041 1209.81 109.936Z" fill="white"/>
</svg>
