<svg width="1363" height="301" viewBox="0 0 1363 301" fill="none" xmlns="http://www.w3.org/2000/svg">
<g style="mix-blend-mode:exclusion">
<rect width="1363" height="301" rx="15" fill="white" fill-opacity="0.05"/>
</g>
<path d="M0 15C0 6.71573 6.71573 0 15 0H37V301H15C6.71573 301 0 294.284 0 286V15Z" fill="#118AB2"/>
<g style="mix-blend-mode:exclusion">
<path d="M110.933 127.376H100.862L100.809 121.2H108.973C110.441 121.2 111.613 121.039 112.491 120.716C113.368 120.376 114.004 119.884 114.397 119.239C114.809 118.595 115.015 117.789 115.015 116.822C115.015 115.712 114.809 114.817 114.397 114.137C113.986 113.456 113.332 112.964 112.437 112.66C111.56 112.337 110.423 112.176 109.026 112.176H104.407V144H94.981V104.898H109.026C111.443 104.898 113.601 105.122 115.499 105.57C117.396 106 119.008 106.662 120.333 107.557C121.675 108.452 122.696 109.58 123.394 110.941C124.092 112.284 124.441 113.868 124.441 115.694C124.441 117.288 124.101 118.783 123.421 120.179C122.741 121.576 121.604 122.713 120.01 123.59C118.435 124.449 116.277 124.897 113.538 124.933L110.933 127.376ZM110.557 144H98.5796L101.802 136.749H110.557C111.846 136.749 112.876 136.552 113.646 136.158C114.433 135.746 114.997 135.209 115.337 134.547C115.695 133.867 115.875 133.115 115.875 132.291C115.875 131.288 115.704 130.42 115.364 129.686C115.042 128.952 114.523 128.388 113.807 127.994C113.09 127.582 112.133 127.376 110.933 127.376H103.011L103.064 121.2H112.544L114.747 123.67C117.361 123.563 119.428 123.93 120.95 124.771C122.49 125.613 123.591 126.723 124.253 128.102C124.916 129.48 125.247 130.921 125.247 132.425C125.247 134.986 124.692 137.125 123.582 138.844C122.49 140.562 120.852 141.852 118.667 142.711C116.483 143.57 113.78 144 110.557 144ZM128.926 129.767V129.203C128.926 127.072 129.231 125.112 129.839 123.321C130.448 121.513 131.343 119.946 132.525 118.622C133.707 117.297 135.166 116.267 136.902 115.533C138.639 114.781 140.644 114.405 142.918 114.405C145.21 114.405 147.224 114.781 148.96 115.533C150.715 116.267 152.183 117.297 153.365 118.622C154.546 119.946 155.442 121.513 156.05 123.321C156.659 125.112 156.963 127.072 156.963 129.203V129.767C156.963 131.879 156.659 133.84 156.05 135.648C155.442 137.438 154.546 139.005 153.365 140.348C152.183 141.673 150.724 142.702 148.987 143.436C147.251 144.17 145.245 144.537 142.972 144.537C140.698 144.537 138.684 144.17 136.929 143.436C135.175 142.702 133.707 141.673 132.525 140.348C131.343 139.005 130.448 137.438 129.839 135.648C129.231 133.84 128.926 131.879 128.926 129.767ZM137.977 129.203V129.767C137.977 130.859 138.057 131.879 138.218 132.828C138.379 133.777 138.648 134.61 139.024 135.326C139.4 136.024 139.91 136.57 140.555 136.964C141.199 137.358 142.005 137.555 142.972 137.555C143.921 137.555 144.708 137.358 145.335 136.964C145.979 136.57 146.49 136.024 146.866 135.326C147.242 134.61 147.51 133.777 147.671 132.828C147.833 131.879 147.913 130.859 147.913 129.767V129.203C147.913 128.146 147.833 127.153 147.671 126.222C147.51 125.273 147.242 124.44 146.866 123.724C146.49 122.99 145.979 122.417 145.335 122.005C144.69 121.594 143.885 121.388 142.918 121.388C141.969 121.388 141.172 121.594 140.528 122.005C139.901 122.417 139.4 122.99 139.024 123.724C138.648 124.44 138.379 125.273 138.218 126.222C138.057 127.153 137.977 128.146 137.977 129.203ZM170.123 122.14V144H161.072V114.942H169.532L170.123 122.14ZM178.716 114.728L178.555 123.133C178.197 123.097 177.714 123.053 177.105 122.999C176.496 122.945 175.986 122.918 175.574 122.918C174.518 122.918 173.605 123.044 172.835 123.294C172.083 123.527 171.456 123.885 170.955 124.369C170.472 124.834 170.114 125.425 169.881 126.141C169.666 126.857 169.568 127.69 169.585 128.639L167.947 127.564C167.947 125.613 168.135 123.84 168.511 122.247C168.905 120.636 169.46 119.248 170.176 118.084C170.892 116.903 171.761 115.999 172.781 115.372C173.802 114.728 174.948 114.405 176.219 114.405C176.666 114.405 177.105 114.432 177.535 114.486C177.982 114.54 178.376 114.62 178.716 114.728ZM191.392 114.942V144H182.315V114.942H191.392ZM181.778 107.45C181.778 106.161 182.243 105.104 183.174 104.281C184.105 103.457 185.314 103.045 186.8 103.045C188.286 103.045 189.494 103.457 190.425 104.281C191.356 105.104 191.822 106.161 191.822 107.45C191.822 108.739 191.356 109.795 190.425 110.619C189.494 111.442 188.286 111.854 186.8 111.854C185.314 111.854 184.105 111.442 183.174 110.619C182.243 109.795 181.778 108.739 181.778 107.45ZM205.867 121.146V144H196.817V114.942H205.303L205.867 121.146ZM204.793 128.478L202.671 128.531C202.671 126.311 202.94 124.333 203.477 122.596C204.014 120.842 204.775 119.356 205.76 118.138C206.744 116.921 207.917 115.999 209.278 115.372C210.656 114.728 212.187 114.405 213.87 114.405C215.213 114.405 216.439 114.602 217.549 114.996C218.677 115.39 219.644 116.026 220.45 116.903C221.273 117.78 221.9 118.944 222.33 120.394C222.777 121.826 223.001 123.599 223.001 125.711V144H213.897V125.685C213.897 124.521 213.736 123.635 213.414 123.026C213.091 122.399 212.626 121.97 212.017 121.737C211.408 121.504 210.665 121.388 209.788 121.388C208.857 121.388 208.069 121.567 207.425 121.925C206.78 122.283 206.261 122.784 205.867 123.429C205.491 124.055 205.214 124.798 205.035 125.658C204.874 126.517 204.793 127.457 204.793 128.478ZM246.285 114.942H254.502V142.872C254.502 145.558 253.885 147.831 252.649 149.693C251.414 151.573 249.686 152.997 247.466 153.963C245.264 154.948 242.686 155.44 239.732 155.44C238.425 155.44 237.091 155.27 235.73 154.93C234.37 154.608 233.099 154.125 231.917 153.48C230.735 152.835 229.742 152.039 228.936 151.09L232.723 145.772C233.457 146.596 234.379 147.294 235.489 147.867C236.599 148.458 237.906 148.753 239.41 148.753C240.717 148.753 241.809 148.521 242.686 148.055C243.581 147.59 244.262 146.909 244.727 146.014C245.193 145.137 245.425 144.072 245.425 142.818V121.817L246.285 114.942ZM226.976 129.82V129.256C226.976 127.054 227.244 125.049 227.781 123.241C228.336 121.415 229.124 119.848 230.145 118.541C231.183 117.216 232.436 116.196 233.904 115.479C235.372 114.763 237.028 114.405 238.873 114.405C240.86 114.405 242.489 114.79 243.76 115.56C245.049 116.312 246.079 117.368 246.849 118.729C247.636 120.09 248.245 121.683 248.675 123.509C249.122 125.318 249.498 127.269 249.803 129.364V130.035C249.498 132.005 249.078 133.867 248.541 135.621C248.021 137.358 247.341 138.897 246.5 140.24C245.658 141.583 244.602 142.639 243.331 143.409C242.077 144.161 240.573 144.537 238.819 144.537C236.993 144.537 235.346 144.17 233.877 143.436C232.427 142.702 231.183 141.673 230.145 140.348C229.124 139.023 228.336 137.465 227.781 135.675C227.244 133.884 226.976 131.933 226.976 129.82ZM236.026 129.256V129.82C236.026 130.912 236.124 131.924 236.321 132.855C236.536 133.786 236.858 134.61 237.288 135.326C237.718 136.024 238.246 136.57 238.873 136.964C239.517 137.358 240.269 137.555 241.128 137.555C242.435 137.555 243.492 137.277 244.297 136.722C245.103 136.167 245.685 135.379 246.043 134.359C246.401 133.338 246.553 132.139 246.5 130.76V128.639C246.535 127.457 246.455 126.419 246.258 125.523C246.061 124.61 245.748 123.849 245.318 123.241C244.906 122.632 244.351 122.175 243.653 121.871C242.972 121.549 242.149 121.388 241.182 121.388C240.341 121.388 239.598 121.585 238.953 121.979C238.309 122.372 237.771 122.927 237.342 123.644C236.912 124.342 236.581 125.174 236.348 126.141C236.133 127.09 236.026 128.128 236.026 129.256ZM295.645 137.555L306.548 146.202L300.694 151.144L289.979 142.496L295.645 137.555ZM307.005 123.67V125.255C307.005 128.245 306.584 130.93 305.743 133.312C304.919 135.675 303.737 137.698 302.198 139.381C300.676 141.046 298.877 142.326 296.8 143.221C294.723 144.098 292.431 144.537 289.925 144.537C287.4 144.537 285.091 144.098 282.996 143.221C280.919 142.326 279.111 141.046 277.571 139.381C276.049 137.698 274.868 135.675 274.026 133.312C273.203 130.93 272.791 128.245 272.791 125.255V123.67C272.791 120.681 273.203 117.995 274.026 115.614C274.868 113.233 276.041 111.209 277.544 109.544C279.066 107.861 280.866 106.581 282.942 105.704C285.037 104.809 287.347 104.361 289.871 104.361C292.378 104.361 294.669 104.809 296.746 105.704C298.841 106.581 300.649 107.861 302.171 109.544C303.711 111.209 304.901 113.233 305.743 115.614C306.584 117.995 307.005 120.681 307.005 123.67ZM297.417 125.255V123.617C297.417 121.683 297.247 119.982 296.907 118.514C296.585 117.028 296.102 115.784 295.457 114.781C294.812 113.779 294.016 113.027 293.067 112.525C292.136 112.006 291.071 111.747 289.871 111.747C288.618 111.747 287.526 112.006 286.595 112.525C285.664 113.027 284.885 113.779 284.258 114.781C283.632 115.784 283.157 117.028 282.835 118.514C282.531 119.982 282.378 121.683 282.378 123.617V125.255C282.378 127.171 282.531 128.871 282.835 130.357C283.157 131.826 283.632 133.07 284.258 134.09C284.903 135.111 285.691 135.881 286.622 136.4C287.57 136.919 288.672 137.179 289.925 137.179C291.124 137.179 292.19 136.919 293.121 136.4C294.052 135.881 294.83 135.111 295.457 134.09C296.102 133.07 296.585 131.826 296.907 130.357C297.247 128.871 297.417 127.171 297.417 125.255ZM328.355 136.937V114.942H337.432V144H328.946L328.355 136.937ZM329.214 131.029L331.578 130.975C331.578 132.927 331.345 134.735 330.879 136.4C330.414 138.047 329.725 139.479 328.812 140.697C327.916 141.914 326.806 142.863 325.481 143.543C324.174 144.206 322.662 144.537 320.943 144.537C319.511 144.537 318.195 144.34 316.995 143.946C315.813 143.535 314.793 142.899 313.934 142.04C313.074 141.162 312.403 140.043 311.919 138.683C311.454 137.304 311.221 135.657 311.221 133.741V114.942H320.271V133.795C320.271 134.439 320.352 134.994 320.513 135.46C320.674 135.925 320.907 136.319 321.211 136.642C321.516 136.946 321.892 137.179 322.339 137.34C322.805 137.483 323.333 137.555 323.924 137.555C325.285 137.555 326.35 137.268 327.12 136.695C327.889 136.122 328.427 135.344 328.731 134.359C329.053 133.374 329.214 132.264 329.214 131.029ZM356.5 144.537C354.136 144.537 352.024 144.17 350.162 143.436C348.3 142.684 346.724 141.655 345.435 140.348C344.164 139.041 343.188 137.537 342.508 135.836C341.845 134.135 341.514 132.336 341.514 130.438V129.417C341.514 127.287 341.81 125.318 342.4 123.509C342.991 121.683 343.868 120.09 345.032 118.729C346.196 117.368 347.655 116.312 349.41 115.56C351.164 114.79 353.205 114.405 355.533 114.405C357.592 114.405 359.436 114.736 361.065 115.399C362.694 116.061 364.073 117.01 365.201 118.246C366.347 119.481 367.215 120.976 367.806 122.73C368.414 124.485 368.719 126.454 368.719 128.639V132.318H344.979V126.651H359.883V125.953C359.901 124.986 359.731 124.163 359.373 123.482C359.033 122.802 358.532 122.283 357.869 121.925C357.207 121.567 356.401 121.388 355.452 121.388C354.467 121.388 353.653 121.603 353.008 122.032C352.382 122.462 351.889 123.053 351.531 123.805C351.191 124.539 350.949 125.389 350.806 126.356C350.663 127.323 350.591 128.343 350.591 129.417V130.438C350.591 131.512 350.735 132.488 351.021 133.365C351.325 134.243 351.755 134.994 352.31 135.621C352.883 136.23 353.563 136.704 354.351 137.044C355.157 137.385 356.07 137.555 357.09 137.555C358.326 137.555 359.543 137.322 360.743 136.856C361.942 136.391 362.972 135.621 363.831 134.547L367.94 139.435C367.349 140.276 366.508 141.091 365.416 141.878C364.341 142.666 363.052 143.311 361.548 143.812C360.044 144.295 358.361 144.537 356.5 144.537ZM387.625 135.836C387.625 135.335 387.455 134.905 387.115 134.547C386.792 134.171 386.22 133.831 385.396 133.526C384.572 133.204 383.418 132.882 381.932 132.56C380.517 132.255 379.183 131.852 377.93 131.351C376.695 130.85 375.612 130.241 374.681 129.525C373.75 128.809 373.016 127.958 372.479 126.974C371.959 125.989 371.7 124.861 371.7 123.59C371.7 122.354 371.959 121.191 372.479 120.099C373.016 118.989 373.794 118.013 374.815 117.171C375.853 116.312 377.116 115.641 378.602 115.157C380.088 114.656 381.779 114.405 383.677 114.405C386.291 114.405 388.547 114.808 390.445 115.614C392.343 116.402 393.802 117.512 394.822 118.944C395.861 120.358 396.38 121.996 396.38 123.858H387.33C387.33 123.124 387.204 122.498 386.954 121.979C386.721 121.459 386.336 121.065 385.799 120.797C385.262 120.51 384.546 120.367 383.65 120.367C383.024 120.367 382.451 120.484 381.932 120.716C381.43 120.949 381.028 121.271 380.723 121.683C380.419 122.095 380.267 122.578 380.267 123.133C380.267 123.527 380.356 123.885 380.535 124.208C380.732 124.512 381.028 124.798 381.421 125.067C381.815 125.318 382.317 125.55 382.925 125.765C383.534 125.962 384.268 126.141 385.127 126.302C387.079 126.66 388.905 127.171 390.606 127.833C392.307 128.495 393.685 129.435 394.742 130.653C395.816 131.87 396.353 133.508 396.353 135.567C396.353 136.856 396.058 138.047 395.467 139.139C394.876 140.213 394.026 141.162 392.916 141.986C391.806 142.792 390.472 143.418 388.914 143.866C387.356 144.313 385.602 144.537 383.65 144.537C380.875 144.537 378.53 144.045 376.614 143.06C374.699 142.057 373.248 140.804 372.264 139.3C371.297 137.778 370.813 136.239 370.813 134.681H379.246C379.282 135.576 379.497 136.31 379.891 136.883C380.302 137.456 380.848 137.877 381.529 138.146C382.209 138.414 382.997 138.548 383.892 138.548C384.716 138.548 385.396 138.432 385.933 138.199C386.488 137.966 386.909 137.653 387.195 137.259C387.482 136.847 387.625 136.373 387.625 135.836ZM415.904 114.942V121.227H398.394V114.942H415.904ZM402.073 107.718H411.124V134.52C411.124 135.29 411.213 135.89 411.392 136.319C411.571 136.731 411.875 137.027 412.305 137.206C412.753 137.367 413.344 137.447 414.078 137.447C414.597 137.447 415.027 137.438 415.367 137.42C415.707 137.385 416.029 137.34 416.333 137.286V143.758C415.564 144.009 414.758 144.197 413.917 144.322C413.075 144.465 412.18 144.537 411.231 144.537C409.297 144.537 407.641 144.233 406.263 143.624C404.902 143.015 403.864 142.057 403.147 140.75C402.431 139.444 402.073 137.743 402.073 135.648V107.718Z" fill="white"/>
</g>
<g style="mix-blend-mode:exclusion">
<path d="M99.6733 55.1172V80H94.5635V55.1172H99.6733ZM108.97 53.75V80H104.048V53.75H108.97ZM108.27 70.105H106.919C106.931 68.8175 107.102 67.6326 107.432 66.5503C107.763 65.4565 108.235 64.5109 108.851 63.7134C109.466 62.9045 110.201 62.2778 111.055 61.8335C111.921 61.3892 112.878 61.167 113.926 61.167C114.838 61.167 115.664 61.298 116.404 61.5601C117.156 61.8107 117.8 62.2209 118.335 62.7905C118.882 63.3488 119.304 64.0837 119.6 64.9951C119.896 65.9066 120.044 67.0117 120.044 68.3105V80H115.088V68.2764C115.088 67.4561 114.969 66.8123 114.729 66.3452C114.502 65.8667 114.166 65.5306 113.721 65.3369C113.288 65.1318 112.753 65.0293 112.115 65.0293C111.408 65.0293 110.805 65.1603 110.303 65.4224C109.813 65.6844 109.42 66.049 109.124 66.5161C108.828 66.9718 108.611 67.5073 108.475 68.1226C108.338 68.7378 108.27 69.3986 108.27 70.105ZM133.768 75.8301V67.5928C133.768 67.0003 133.671 66.4933 133.477 66.0718C133.283 65.6388 132.981 65.3027 132.571 65.0635C132.173 64.8242 131.654 64.7046 131.016 64.7046C130.469 64.7046 129.996 64.8014 129.598 64.9951C129.199 65.1774 128.891 65.4451 128.675 65.7983C128.458 66.1401 128.35 66.5446 128.35 67.0117H123.428C123.428 66.2256 123.611 65.4793 123.975 64.7729C124.34 64.0666 124.869 63.4456 125.564 62.9102C126.259 62.3633 127.085 61.936 128.042 61.6284C129.011 61.3208 130.093 61.167 131.29 61.167C132.725 61.167 134.001 61.4062 135.118 61.8848C136.234 62.3633 137.111 63.0811 137.75 64.0381C138.399 64.9951 138.724 66.1914 138.724 67.627V75.5396C138.724 76.5535 138.786 77.3853 138.912 78.0347C139.037 78.6727 139.219 79.231 139.458 79.7095V80H134.485C134.246 79.4987 134.064 78.8721 133.938 78.1201C133.825 77.3568 133.768 76.5934 133.768 75.8301ZM134.417 68.7378L134.451 71.5234H131.7C131.05 71.5234 130.486 71.5975 130.008 71.7456C129.529 71.8937 129.136 72.1045 128.829 72.3779C128.521 72.64 128.293 72.9476 128.145 73.3008C128.008 73.654 127.94 74.0413 127.94 74.4629C127.94 74.8844 128.037 75.2661 128.23 75.6079C128.424 75.9383 128.703 76.2004 129.068 76.394C129.432 76.5763 129.86 76.6675 130.35 76.6675C131.09 76.6675 131.734 76.5194 132.281 76.2231C132.828 75.9269 133.249 75.5623 133.545 75.1294C133.853 74.6965 134.013 74.2863 134.024 73.8989L135.323 75.9839C135.14 76.451 134.89 76.9352 134.571 77.4365C134.263 77.9378 133.87 78.4106 133.392 78.855C132.913 79.2879 132.338 79.6468 131.666 79.9316C130.993 80.2051 130.196 80.3418 129.273 80.3418C128.099 80.3418 127.034 80.1082 126.077 79.6411C125.132 79.1626 124.38 78.5075 123.821 77.6758C123.274 76.8327 123.001 75.8757 123.001 74.8047C123.001 73.8363 123.183 72.9761 123.548 72.2241C123.912 71.4722 124.448 70.8398 125.154 70.3271C125.872 69.8031 126.766 69.41 127.837 69.1479C128.908 68.8745 130.15 68.7378 131.563 68.7378H134.417ZM142.518 53.75H147.439V75.7617L146.944 80H142.518V53.75ZM159.146 70.5664V70.9253C159.146 72.3039 158.998 73.5685 158.702 74.7192C158.417 75.87 157.972 76.8669 157.369 77.71C156.765 78.5417 156.013 79.1911 155.113 79.6582C154.224 80.1139 153.176 80.3418 151.968 80.3418C150.84 80.3418 149.861 80.1139 149.029 79.6582C148.208 79.2025 147.519 78.5588 146.961 77.7271C146.403 76.8953 145.953 75.9212 145.611 74.8047C145.269 73.6882 145.013 72.4691 144.842 71.1475V70.3613C145.013 69.0397 145.269 67.8206 145.611 66.7041C145.953 65.5876 146.403 64.6134 146.961 63.7817C147.519 62.95 148.208 62.3063 149.029 61.8506C149.849 61.3949 150.818 61.167 151.934 61.167C153.153 61.167 154.213 61.4006 155.113 61.8677C156.024 62.3234 156.776 62.9728 157.369 63.8159C157.972 64.6476 158.417 65.6388 158.702 66.7896C158.998 67.9289 159.146 69.1878 159.146 70.5664ZM154.224 70.9253V70.5664C154.224 69.8145 154.167 69.1081 154.053 68.4473C153.951 67.7751 153.768 67.1883 153.506 66.687C153.244 66.1743 152.885 65.7699 152.43 65.4736C151.985 65.1774 151.41 65.0293 150.704 65.0293C150.031 65.0293 149.462 65.1432 148.995 65.3711C148.528 65.599 148.14 65.918 147.833 66.3281C147.536 66.7383 147.314 67.2282 147.166 67.7979C147.018 68.3561 146.927 68.9714 146.893 69.6436V71.8823C146.927 72.7824 147.075 73.5799 147.337 74.2749C147.61 74.9585 148.021 75.4997 148.567 75.8984C149.126 76.2858 149.849 76.4795 150.738 76.4795C151.433 76.4795 152.008 76.3428 152.464 76.0693C152.92 75.7959 153.273 75.4085 153.523 74.9072C153.785 74.4059 153.968 73.8192 154.07 73.147C154.173 72.4634 154.224 71.7228 154.224 70.9253ZM181.346 59.3726L174.578 80H169.126L178.372 55.1172H181.841L181.346 59.3726ZM186.968 80L180.184 59.3726L179.637 55.1172H183.14L192.437 80H186.968ZM186.661 70.7373V74.7534H173.519V70.7373H186.661ZM194.437 53.75H199.358V75.7617L198.863 80H194.437V53.75ZM211.065 70.5664V70.9253C211.065 72.3039 210.917 73.5685 210.621 74.7192C210.336 75.87 209.891 76.8669 209.288 77.71C208.684 78.5417 207.932 79.1911 207.032 79.6582C206.143 80.1139 205.095 80.3418 203.887 80.3418C202.759 80.3418 201.779 80.1139 200.948 79.6582C200.127 79.2025 199.438 78.5588 198.88 77.7271C198.322 76.8953 197.872 75.9212 197.53 74.8047C197.188 73.6882 196.932 72.4691 196.761 71.1475V70.3613C196.932 69.0397 197.188 67.8206 197.53 66.7041C197.872 65.5876 198.322 64.6134 198.88 63.7817C199.438 62.95 200.127 62.3063 200.948 61.8506C201.768 61.3949 202.736 61.167 203.853 61.167C205.072 61.167 206.132 61.4006 207.032 61.8677C207.943 62.3234 208.695 62.9728 209.288 63.8159C209.891 64.6476 210.336 65.6388 210.621 66.7896C210.917 67.9289 211.065 69.1878 211.065 70.5664ZM206.143 70.9253V70.5664C206.143 69.8145 206.086 69.1081 205.972 68.4473C205.87 67.7751 205.687 67.1883 205.425 66.687C205.163 66.1743 204.804 65.7699 204.349 65.4736C203.904 65.1774 203.329 65.0293 202.623 65.0293C201.95 65.0293 201.381 65.1432 200.914 65.3711C200.446 65.599 200.059 65.918 199.751 66.3281C199.455 66.7383 199.233 67.2282 199.085 67.7979C198.937 68.3561 198.846 68.9714 198.812 69.6436V71.8823C198.846 72.7824 198.994 73.5799 199.256 74.2749C199.529 74.9585 199.939 75.4997 200.486 75.8984C201.045 76.2858 201.768 76.4795 202.657 76.4795C203.352 76.4795 203.927 76.3428 204.383 76.0693C204.839 75.7959 205.192 75.4085 205.442 74.9072C205.704 74.4059 205.887 73.8192 205.989 73.147C206.092 72.4634 206.143 71.7228 206.143 70.9253ZM213.338 70.9424V70.5835C213.338 69.2277 213.532 67.9801 213.919 66.8408C214.306 65.6901 214.87 64.6932 215.611 63.8501C216.351 63.007 217.263 62.3519 218.345 61.8848C219.428 61.4062 220.669 61.167 222.071 61.167C223.472 61.167 224.72 61.4062 225.813 61.8848C226.907 62.3519 227.824 63.007 228.565 63.8501C229.317 64.6932 229.887 65.6901 230.274 66.8408C230.661 67.9801 230.855 69.2277 230.855 70.5835V70.9424C230.855 72.2868 230.661 73.5343 230.274 74.6851C229.887 75.8244 229.317 76.8213 228.565 77.6758C227.824 78.5189 226.913 79.174 225.831 79.6411C224.748 80.1082 223.506 80.3418 222.105 80.3418C220.704 80.3418 219.456 80.1082 218.362 79.6411C217.28 79.174 216.363 78.5189 215.611 77.6758C214.87 76.8213 214.306 75.8244 213.919 74.6851C213.532 73.5343 213.338 72.2868 213.338 70.9424ZM218.26 70.5835V70.9424C218.26 71.7171 218.328 72.4406 218.465 73.1128C218.602 73.785 218.818 74.3774 219.114 74.8901C219.422 75.3914 219.821 75.7845 220.311 76.0693C220.8 76.3542 221.399 76.4966 222.105 76.4966C222.789 76.4966 223.375 76.3542 223.865 76.0693C224.355 75.7845 224.748 75.3914 225.044 74.8901C225.341 74.3774 225.557 73.785 225.694 73.1128C225.842 72.4406 225.916 71.7171 225.916 70.9424V70.5835C225.916 69.8315 225.842 69.1252 225.694 68.4644C225.557 67.7922 225.335 67.1997 225.027 66.687C224.731 66.1629 224.338 65.7528 223.848 65.4565C223.358 65.1603 222.766 65.0122 222.071 65.0122C221.376 65.0122 220.783 65.1603 220.293 65.4565C219.815 65.7528 219.422 66.1629 219.114 66.687C218.818 67.1997 218.602 67.7922 218.465 68.4644C218.328 69.1252 218.26 69.8315 218.26 70.5835ZM244.817 75.5737V61.5088H249.739V80H245.108L244.817 75.5737ZM245.364 71.7798L246.817 71.7456C246.817 72.9761 246.674 74.1211 246.39 75.1807C246.105 76.2288 245.678 77.1403 245.108 77.915C244.538 78.6784 243.82 79.2765 242.955 79.7095C242.089 80.131 241.069 80.3418 239.896 80.3418C238.995 80.3418 238.164 80.2165 237.4 79.9658C236.648 79.7038 235.999 79.2993 235.452 78.7524C234.917 78.1942 234.495 77.4821 234.188 76.6162C233.891 75.7389 233.743 74.6851 233.743 73.4546V61.5088H238.665V73.4888C238.665 74.0356 238.728 74.4971 238.853 74.873C238.99 75.249 239.178 75.5566 239.417 75.7959C239.656 76.0352 239.935 76.2061 240.254 76.3086C240.585 76.4111 240.949 76.4624 241.348 76.4624C242.362 76.4624 243.16 76.2573 243.741 75.8472C244.333 75.437 244.749 74.8787 244.988 74.1724C245.239 73.4546 245.364 72.6571 245.364 71.7798ZM282.244 66.9946V76.8555C281.857 77.3226 281.259 77.8296 280.45 78.3765C279.641 78.9119 278.598 79.3734 277.322 79.7607C276.046 80.1481 274.502 80.3418 272.691 80.3418C271.084 80.3418 269.62 80.0798 268.299 79.5557C266.977 79.0202 265.838 78.2397 264.881 77.2144C263.935 76.189 263.206 74.9357 262.693 73.4546C262.181 71.9621 261.924 70.2588 261.924 68.3447V66.7896C261.924 64.8755 262.169 63.1722 262.659 61.6797C263.16 60.1872 263.873 58.9282 264.795 57.9028C265.718 56.8774 266.818 56.097 268.094 55.5615C269.37 55.026 270.788 54.7583 272.349 54.7583C274.514 54.7583 276.291 55.1115 277.681 55.8179C279.071 56.5129 280.131 57.4813 280.86 58.7231C281.6 59.9536 282.056 61.3664 282.227 62.9614H277.254C277.129 62.1183 276.889 61.3835 276.536 60.7568C276.183 60.1302 275.676 59.6403 275.015 59.2871C274.366 58.9339 273.523 58.7573 272.486 58.7573C271.631 58.7573 270.868 58.9339 270.196 59.2871C269.535 59.6289 268.977 60.1359 268.521 60.8081C268.065 61.4803 267.718 62.312 267.479 63.3032C267.239 64.2944 267.12 65.4451 267.12 66.7554V68.3447C267.12 69.6436 267.245 70.7943 267.496 71.7969C267.746 72.7881 268.117 73.6255 268.606 74.3091C269.108 74.9813 269.723 75.4883 270.452 75.8301C271.181 76.1719 272.03 76.3428 272.999 76.3428C273.807 76.3428 274.48 76.2744 275.015 76.1377C275.562 76.001 276.001 75.8358 276.331 75.6421C276.673 75.437 276.935 75.2433 277.117 75.061V70.6519H272.435V66.9946H282.244ZM290.875 53.75V80H285.953V53.75H290.875ZM290.174 70.105H288.824C288.835 68.8175 289.006 67.6326 289.336 66.5503C289.667 65.4565 290.14 64.5109 290.755 63.7134C291.37 62.9045 292.105 62.2778 292.959 61.8335C293.825 61.3892 294.782 61.167 295.831 61.167C296.742 61.167 297.568 61.298 298.309 61.5601C299.061 61.8107 299.704 62.2209 300.24 62.7905C300.787 63.3488 301.208 64.0837 301.504 64.9951C301.801 65.9066 301.949 67.0117 301.949 68.3105V80H296.993V68.2764C296.993 67.4561 296.873 66.8123 296.634 66.3452C296.406 65.8667 296.07 65.5306 295.625 65.3369C295.193 65.1318 294.657 65.0293 294.019 65.0293C293.313 65.0293 292.709 65.1603 292.208 65.4224C291.718 65.6844 291.325 66.049 291.028 66.5161C290.732 66.9718 290.516 67.5073 290.379 68.1226C290.242 68.7378 290.174 69.3986 290.174 70.105ZM315.672 75.8301V67.5928C315.672 67.0003 315.575 66.4933 315.381 66.0718C315.188 65.6388 314.886 65.3027 314.476 65.0635C314.077 64.8242 313.558 64.7046 312.92 64.7046C312.374 64.7046 311.901 64.8014 311.502 64.9951C311.103 65.1774 310.796 65.4451 310.579 65.7983C310.363 66.1401 310.254 66.5446 310.254 67.0117H305.333C305.333 66.2256 305.515 65.4793 305.879 64.7729C306.244 64.0666 306.774 63.4456 307.469 62.9102C308.164 62.3633 308.99 61.936 309.947 61.6284C310.915 61.3208 311.998 61.167 313.194 61.167C314.629 61.167 315.905 61.4062 317.022 61.8848C318.139 62.3633 319.016 63.0811 319.654 64.0381C320.303 64.9951 320.628 66.1914 320.628 67.627V75.5396C320.628 76.5535 320.691 77.3853 320.816 78.0347C320.941 78.6727 321.124 79.231 321.363 79.7095V80H316.39C316.15 79.4987 315.968 78.8721 315.843 78.1201C315.729 77.3568 315.672 76.5934 315.672 75.8301ZM316.321 68.7378L316.355 71.5234H313.604C312.955 71.5234 312.391 71.5975 311.912 71.7456C311.434 71.8937 311.041 72.1045 310.733 72.3779C310.425 72.64 310.197 72.9476 310.049 73.3008C309.913 73.654 309.844 74.0413 309.844 74.4629C309.844 74.8844 309.941 75.2661 310.135 75.6079C310.328 75.9383 310.608 76.2004 310.972 76.394C311.337 76.5763 311.764 76.6675 312.254 76.6675C312.994 76.6675 313.638 76.5194 314.185 76.2231C314.732 75.9269 315.153 75.5623 315.45 75.1294C315.757 74.6965 315.917 74.2863 315.928 73.8989L317.227 75.9839C317.045 76.451 316.794 76.9352 316.475 77.4365C316.167 77.9378 315.774 78.4106 315.296 78.855C314.817 79.2879 314.242 79.6468 313.57 79.9316C312.898 80.2051 312.1 80.3418 311.177 80.3418C310.004 80.3418 308.938 80.1082 307.981 79.6411C307.036 79.1626 306.284 78.5075 305.726 77.6758C305.179 76.8327 304.905 75.8757 304.905 74.8047C304.905 73.8363 305.088 72.9761 305.452 72.2241C305.817 71.4722 306.352 70.8398 307.059 70.3271C307.776 69.8031 308.671 69.41 309.742 69.1479C310.813 68.8745 312.055 68.7378 313.467 68.7378H316.321ZM329.241 65.4565V80H324.319V61.5088H328.934L329.241 65.4565ZM328.523 70.105H327.19C327.19 68.7378 327.367 67.5073 327.72 66.4136C328.073 65.3084 328.569 64.3685 329.207 63.5938C329.845 62.8076 330.603 62.2095 331.48 61.7993C332.369 61.3778 333.36 61.167 334.454 61.167C335.319 61.167 336.111 61.2923 336.829 61.543C337.547 61.7936 338.162 62.1924 338.675 62.7393C339.199 63.2861 339.598 64.0096 339.871 64.9097C340.156 65.8097 340.298 66.9092 340.298 68.208V80H335.342V68.1909C335.342 67.3706 335.228 66.7326 335 66.2769C334.773 65.8211 334.437 65.5021 333.992 65.3198C333.559 65.1261 333.024 65.0293 332.386 65.0293C331.725 65.0293 331.15 65.1603 330.66 65.4224C330.181 65.6844 329.782 66.049 329.463 66.5161C329.156 66.9718 328.922 67.5073 328.763 68.1226C328.603 68.7378 328.523 69.3986 328.523 70.105ZM348.86 65.4565V80H343.938V61.5088H348.553L348.86 65.4565ZM348.143 70.105H346.81C346.81 68.7378 346.986 67.5073 347.339 66.4136C347.693 65.3084 348.188 64.3685 348.826 63.5938C349.464 62.8076 350.222 62.2095 351.099 61.7993C351.988 61.3778 352.979 61.167 354.073 61.167C354.939 61.167 355.73 61.2923 356.448 61.543C357.166 61.7936 357.781 62.1924 358.294 62.7393C358.818 63.2861 359.217 64.0096 359.49 64.9097C359.775 65.8097 359.917 66.9092 359.917 68.208V80H354.961V68.1909C354.961 67.3706 354.847 66.7326 354.62 66.2769C354.392 65.8211 354.056 65.5021 353.611 65.3198C353.178 65.1261 352.643 65.0293 352.005 65.0293C351.344 65.0293 350.769 65.1603 350.279 65.4224C349.8 65.6844 349.402 66.049 349.083 66.5161C348.775 66.9718 348.541 67.5073 348.382 68.1226C348.222 68.7378 348.143 69.3986 348.143 70.105ZM373.641 75.8301V67.5928C373.641 67.0003 373.544 66.4933 373.35 66.0718C373.156 65.6388 372.854 65.3027 372.444 65.0635C372.046 64.8242 371.527 64.7046 370.889 64.7046C370.342 64.7046 369.869 64.8014 369.471 64.9951C369.072 65.1774 368.764 65.4451 368.548 65.7983C368.331 66.1401 368.223 66.5446 368.223 67.0117H363.301C363.301 66.2256 363.484 65.4793 363.848 64.7729C364.213 64.0666 364.743 63.4456 365.438 62.9102C366.132 62.3633 366.958 61.936 367.916 61.6284C368.884 61.3208 369.966 61.167 371.163 61.167C372.598 61.167 373.874 61.4062 374.991 61.8848C376.107 62.3633 376.985 63.0811 377.623 64.0381C378.272 64.9951 378.597 66.1914 378.597 67.627V75.5396C378.597 76.5535 378.659 77.3853 378.785 78.0347C378.91 78.6727 379.092 79.231 379.332 79.7095V80H374.358C374.119 79.4987 373.937 78.8721 373.812 78.1201C373.698 77.3568 373.641 76.5934 373.641 75.8301ZM374.29 68.7378L374.324 71.5234H371.573C370.923 71.5234 370.359 71.5975 369.881 71.7456C369.402 71.8937 369.009 72.1045 368.702 72.3779C368.394 72.64 368.166 72.9476 368.018 73.3008C367.881 73.654 367.813 74.0413 367.813 74.4629C367.813 74.8844 367.91 75.2661 368.104 75.6079C368.297 75.9383 368.576 76.2004 368.941 76.394C369.306 76.5763 369.733 76.6675 370.223 76.6675C370.963 76.6675 371.607 76.5194 372.154 76.2231C372.701 75.9269 373.122 75.5623 373.418 75.1294C373.726 74.6965 373.886 74.2863 373.897 73.8989L375.196 75.9839C375.014 76.451 374.763 76.9352 374.444 77.4365C374.136 77.9378 373.743 78.4106 373.265 78.855C372.786 79.2879 372.211 79.6468 371.539 79.9316C370.866 80.2051 370.069 80.3418 369.146 80.3418C367.972 80.3418 366.907 80.1082 365.95 79.6411C365.005 79.1626 364.253 78.5075 363.694 77.6758C363.147 76.8327 362.874 75.8757 362.874 74.8047C362.874 73.8363 363.056 72.9761 363.421 72.2241C363.785 71.4722 364.321 70.8398 365.027 70.3271C365.745 69.8031 366.639 69.41 367.71 69.1479C368.781 68.8745 370.023 68.7378 371.436 68.7378H374.29ZM387.312 65.3369V80H382.374V61.5088H387.005L387.312 65.3369ZM386.629 70.105H385.262C385.262 68.8175 385.416 67.6326 385.723 66.5503C386.042 65.4565 386.504 64.5109 387.107 63.7134C387.723 62.9045 388.48 62.2778 389.38 61.8335C390.28 61.3892 391.323 61.167 392.508 61.167C393.328 61.167 394.08 61.2923 394.764 61.543C395.447 61.7822 396.034 62.1639 396.524 62.688C397.025 63.2007 397.413 63.8729 397.686 64.7046C397.959 65.5249 398.096 66.5104 398.096 67.6611V80H393.174V68.208C393.174 67.3649 393.06 66.7155 392.833 66.2598C392.605 65.804 392.28 65.485 391.858 65.3027C391.448 65.1204 390.953 65.0293 390.372 65.0293C389.734 65.0293 389.175 65.1603 388.697 65.4224C388.23 65.6844 387.842 66.049 387.535 66.5161C387.227 66.9718 386.999 67.5073 386.851 68.1226C386.703 68.7378 386.629 69.3986 386.629 70.105ZM397.635 69.541L395.875 69.7632C395.875 68.5555 396.023 67.4333 396.319 66.3965C396.626 65.3597 397.076 64.4482 397.669 63.6621C398.273 62.876 399.019 62.2664 399.908 61.8335C400.796 61.3892 401.822 61.167 402.984 61.167C403.873 61.167 404.681 61.298 405.411 61.5601C406.14 61.8107 406.761 62.2152 407.273 62.7734C407.798 63.3203 408.196 64.0381 408.47 64.9268C408.755 65.8154 408.897 66.9035 408.897 68.1909V80H403.958V68.1909C403.958 67.3364 403.844 66.687 403.616 66.2427C403.4 65.7869 403.081 65.4736 402.659 65.3027C402.249 65.1204 401.759 65.0293 401.189 65.0293C400.597 65.0293 400.079 65.1489 399.634 65.3882C399.19 65.616 398.82 65.9351 398.523 66.3452C398.227 66.7554 398.005 67.2339 397.857 67.7808C397.709 68.3162 397.635 68.903 397.635 69.541Z" fill="white" fill-opacity="0.5"/>
</g>
<g style="mix-blend-mode:exclusion">
<rect x="92" y="181" width="1179" height="80" rx="13.3333" fill="white" fill-opacity="0.1"/>
</g>
<g style="mix-blend-mode:exclusion">
<rect x="105" y="194.333" width="212" height="53.3333" rx="6.66667" fill="white" fill-opacity="0.35"/>
</g>
<path d="M186.844 213.167V228.333H183.198L177.833 218.896V228.333H174.177V213.167H177.833L183.198 222.604V213.167H186.844ZM188.552 222.812V222.594C188.552 221.767 188.67 221.007 188.906 220.312C189.142 219.611 189.49 219.003 189.948 218.49C190.406 217.976 190.972 217.576 191.646 217.292C192.319 217 193.097 216.854 193.979 216.854C194.868 216.854 195.649 217 196.323 217.292C197.003 217.576 197.573 217.976 198.031 218.49C198.49 219.003 198.837 219.611 199.073 220.312C199.309 221.007 199.427 221.767 199.427 222.594V222.812C199.427 223.632 199.309 224.392 199.073 225.094C198.837 225.788 198.49 226.396 198.031 226.917C197.573 227.431 197.007 227.83 196.333 228.115C195.66 228.399 194.882 228.542 194 228.542C193.118 228.542 192.337 228.399 191.656 228.115C190.976 227.83 190.406 227.431 189.948 226.917C189.49 226.396 189.142 225.788 188.906 225.094C188.67 224.392 188.552 223.632 188.552 222.812ZM192.062 222.594V222.812C192.062 223.236 192.094 223.632 192.156 224C192.219 224.368 192.323 224.691 192.469 224.969C192.615 225.24 192.812 225.451 193.062 225.604C193.312 225.757 193.625 225.833 194 225.833C194.368 225.833 194.674 225.757 194.917 225.604C195.167 225.451 195.365 225.24 195.51 224.969C195.656 224.691 195.76 224.368 195.823 224C195.885 223.632 195.917 223.236 195.917 222.812V222.594C195.917 222.184 195.885 221.799 195.823 221.437C195.76 221.069 195.656 220.747 195.51 220.469C195.365 220.184 195.167 219.962 194.917 219.802C194.667 219.642 194.354 219.562 193.979 219.562C193.611 219.562 193.302 219.642 193.052 219.802C192.809 219.962 192.615 220.184 192.469 220.469C192.323 220.747 192.219 221.069 192.156 221.437C192.094 221.799 192.062 222.184 192.062 222.594ZM207.469 225.75V212.333H211V228.333H207.833L207.469 225.75ZM200.552 222.833V222.615C200.552 221.76 200.646 220.983 200.833 220.281C201.021 219.573 201.299 218.965 201.667 218.458C202.035 217.944 202.493 217.549 203.042 217.271C203.59 216.993 204.222 216.854 204.938 216.854C205.576 216.854 206.135 217.003 206.615 217.302C207.094 217.594 207.503 218.003 207.844 218.531C208.184 219.059 208.462 219.677 208.677 220.385C208.892 221.087 209.056 221.844 209.167 222.656V222.917C209.056 223.681 208.892 224.403 208.677 225.083C208.462 225.757 208.184 226.354 207.844 226.875C207.503 227.396 207.09 227.806 206.604 228.104C206.125 228.396 205.563 228.542 204.917 228.542C204.201 228.542 203.569 228.399 203.021 228.115C202.479 227.83 202.024 227.431 201.656 226.917C201.295 226.403 201.021 225.799 200.833 225.104C200.646 224.41 200.552 223.653 200.552 222.833ZM204.063 222.615V222.833C204.063 223.257 204.09 223.649 204.146 224.01C204.201 224.372 204.295 224.691 204.427 224.969C204.566 225.24 204.747 225.451 204.969 225.604C205.198 225.757 205.479 225.833 205.813 225.833C206.264 225.833 206.635 225.726 206.927 225.51C207.226 225.295 207.444 224.99 207.583 224.594C207.729 224.198 207.792 223.733 207.771 223.198V222.375C207.785 221.917 207.753 221.514 207.677 221.167C207.601 220.812 207.479 220.517 207.313 220.281C207.153 220.045 206.948 219.868 206.698 219.75C206.455 219.625 206.167 219.562 205.833 219.562C205.507 219.562 205.229 219.639 205 219.792C204.778 219.944 204.597 220.16 204.458 220.437C204.319 220.708 204.219 221.031 204.156 221.406C204.094 221.774 204.063 222.177 204.063 222.615ZM218.448 228.542C217.531 228.542 216.712 228.399 215.99 228.115C215.267 227.823 214.656 227.424 214.156 226.917C213.663 226.41 213.285 225.826 213.021 225.167C212.764 224.507 212.635 223.809 212.635 223.073V222.677C212.635 221.851 212.75 221.087 212.979 220.385C213.208 219.677 213.549 219.059 214 218.531C214.451 218.003 215.017 217.594 215.698 217.302C216.378 217.003 217.17 216.854 218.073 216.854C218.872 216.854 219.587 216.983 220.219 217.24C220.851 217.497 221.385 217.865 221.823 218.344C222.267 218.823 222.604 219.403 222.833 220.083C223.069 220.764 223.188 221.528 223.188 222.375V223.802H213.979V221.604H219.76V221.333C219.767 220.958 219.701 220.639 219.563 220.375C219.431 220.111 219.236 219.91 218.979 219.771C218.722 219.632 218.41 219.562 218.042 219.562C217.66 219.562 217.344 219.646 217.094 219.812C216.851 219.979 216.66 220.208 216.521 220.5C216.389 220.785 216.295 221.115 216.24 221.49C216.184 221.865 216.156 222.26 216.156 222.677V223.073C216.156 223.49 216.212 223.868 216.323 224.208C216.441 224.549 216.608 224.84 216.823 225.083C217.045 225.319 217.309 225.503 217.615 225.635C217.927 225.767 218.281 225.833 218.677 225.833C219.156 225.833 219.628 225.743 220.094 225.562C220.559 225.382 220.958 225.083 221.292 224.667L222.885 226.562C222.656 226.889 222.33 227.205 221.906 227.51C221.49 227.816 220.99 228.066 220.406 228.26C219.823 228.448 219.17 228.542 218.448 228.542ZM230.813 223.573V213.167H234.458V223.573C234.458 224.587 234.226 225.465 233.76 226.208C233.302 226.951 232.677 227.528 231.885 227.937C231.101 228.34 230.219 228.542 229.24 228.542C228.226 228.542 227.323 228.372 226.531 228.031C225.747 227.691 225.128 227.167 224.677 226.458C224.233 225.75 224.01 224.847 224.01 223.75H227.677C227.677 224.264 227.736 224.667 227.854 224.958C227.972 225.243 228.146 225.444 228.375 225.562C228.611 225.674 228.899 225.729 229.24 225.729C229.573 225.729 229.854 225.646 230.083 225.479C230.319 225.306 230.5 225.059 230.625 224.74C230.75 224.413 230.813 224.024 230.813 223.573ZM244.594 224.302C244.594 224.066 244.559 223.854 244.49 223.667C244.42 223.472 244.292 223.292 244.104 223.125C243.917 222.958 243.646 222.792 243.292 222.625C242.944 222.451 242.486 222.271 241.917 222.083C241.25 221.861 240.608 221.611 239.99 221.333C239.372 221.049 238.819 220.719 238.333 220.344C237.847 219.962 237.462 219.517 237.177 219.01C236.892 218.497 236.75 217.899 236.75 217.219C236.75 216.566 236.896 215.979 237.188 215.458C237.479 214.931 237.885 214.483 238.406 214.115C238.934 213.74 239.552 213.455 240.26 213.26C240.969 213.059 241.743 212.958 242.583 212.958C243.694 212.958 244.674 213.153 245.521 213.542C246.375 213.924 247.042 214.469 247.521 215.177C248.007 215.878 248.25 216.708 248.25 217.667H244.615C244.615 217.285 244.535 216.948 244.375 216.656C244.222 216.365 243.99 216.135 243.677 215.969C243.365 215.802 242.972 215.719 242.5 215.719C242.042 215.719 241.656 215.788 241.344 215.927C241.031 216.066 240.795 216.253 240.635 216.49C240.476 216.719 240.396 216.972 240.396 217.25C240.396 217.479 240.458 217.687 240.583 217.875C240.715 218.056 240.899 218.226 241.135 218.385C241.378 218.545 241.67 218.698 242.01 218.844C242.358 218.99 242.747 219.132 243.177 219.271C243.983 219.528 244.698 219.816 245.323 220.135C245.955 220.448 246.486 220.806 246.917 221.208C247.354 221.604 247.684 222.056 247.906 222.562C248.135 223.069 248.25 223.642 248.25 224.281C248.25 224.962 248.118 225.566 247.854 226.094C247.59 226.622 247.212 227.069 246.719 227.437C246.226 227.799 245.635 228.073 244.948 228.26C244.26 228.448 243.493 228.542 242.646 228.542C241.868 228.542 241.101 228.444 240.344 228.25C239.594 228.049 238.913 227.743 238.302 227.333C237.691 226.917 237.201 226.385 236.833 225.74C236.472 225.087 236.292 224.312 236.292 223.417H239.958C239.958 223.861 240.017 224.236 240.135 224.542C240.253 224.847 240.427 225.094 240.656 225.281C240.885 225.462 241.167 225.594 241.5 225.677C241.833 225.753 242.215 225.792 242.646 225.792C243.111 225.792 243.486 225.726 243.771 225.594C244.056 225.455 244.264 225.274 244.396 225.052C244.528 224.823 244.594 224.573 244.594 224.302Z" fill="white"/>
<g style="mix-blend-mode:exclusion">
<rect x="337" y="194.333" width="212" height="53.3333" rx="6.66667" fill="white" fill-opacity="0.35"/>
</g>
<path d="M382.833 213.167H388.802C389.969 213.167 390.983 213.34 391.844 213.687C392.705 214.035 393.368 214.549 393.833 215.229C394.306 215.91 394.542 216.75 394.542 217.75C394.542 218.618 394.406 219.344 394.135 219.927C393.865 220.51 393.486 220.993 393 221.375C392.521 221.75 391.962 222.059 391.323 222.302L390.125 222.979H385.115L385.094 220.156H388.802C389.267 220.156 389.653 220.073 389.958 219.906C390.264 219.74 390.493 219.503 390.646 219.198C390.806 218.885 390.885 218.514 390.885 218.083C390.885 217.646 390.806 217.271 390.646 216.958C390.486 216.646 390.25 216.406 389.937 216.24C389.632 216.073 389.253 215.99 388.802 215.99H386.49V228.333H382.833V213.167ZM391.135 228.333L387.781 221.625L391.656 221.604L395.052 228.177V228.333H391.135ZM402.042 228.542C401.125 228.542 400.306 228.399 399.583 228.115C398.861 227.823 398.25 227.424 397.75 226.917C397.257 226.41 396.878 225.826 396.615 225.167C396.358 224.507 396.229 223.809 396.229 223.073V222.677C396.229 221.851 396.344 221.087 396.573 220.385C396.802 219.677 397.142 219.059 397.594 218.531C398.045 218.003 398.611 217.594 399.292 217.302C399.972 217.003 400.764 216.854 401.667 216.854C402.465 216.854 403.181 216.983 403.813 217.24C404.444 217.497 404.979 217.865 405.417 218.344C405.861 218.823 406.198 219.403 406.427 220.083C406.663 220.764 406.781 221.528 406.781 222.375V223.802H397.573V221.604H403.354V221.333C403.361 220.958 403.295 220.639 403.156 220.375C403.024 220.111 402.83 219.91 402.573 219.771C402.316 219.632 402.003 219.562 401.635 219.562C401.253 219.562 400.938 219.646 400.688 219.812C400.444 219.979 400.253 220.208 400.115 220.5C399.983 220.785 399.889 221.115 399.833 221.49C399.778 221.865 399.75 222.26 399.75 222.677V223.073C399.75 223.49 399.806 223.868 399.917 224.208C400.035 224.549 400.201 224.84 400.417 225.083C400.639 225.319 400.903 225.503 401.208 225.635C401.521 225.767 401.875 225.833 402.271 225.833C402.75 225.833 403.222 225.743 403.688 225.562C404.153 225.382 404.552 225.083 404.885 224.667L406.479 226.562C406.25 226.889 405.924 227.205 405.5 227.51C405.083 227.816 404.583 228.066 404 228.26C403.417 228.448 402.764 228.542 402.042 228.542ZM414.063 225.5V220.854C414.063 220.535 414.017 220.26 413.927 220.031C413.837 219.802 413.694 219.625 413.5 219.5C413.306 219.368 413.045 219.302 412.719 219.302C412.455 219.302 412.229 219.347 412.042 219.437C411.854 219.528 411.712 219.663 411.615 219.844C411.517 220.024 411.469 220.253 411.469 220.531H407.958C407.958 220.01 408.073 219.528 408.302 219.083C408.538 218.632 408.872 218.24 409.302 217.906C409.74 217.573 410.26 217.316 410.865 217.135C411.476 216.948 412.156 216.854 412.906 216.854C413.802 216.854 414.601 217.003 415.302 217.302C416.01 217.601 416.569 218.049 416.979 218.646C417.389 219.236 417.594 219.979 417.594 220.875V225.49C417.594 226.226 417.635 226.785 417.719 227.167C417.802 227.542 417.92 227.872 418.073 228.156V228.333H414.552C414.385 227.986 414.26 227.562 414.177 227.062C414.101 226.556 414.063 226.035 414.063 225.5ZM414.49 221.448L414.51 223.323H412.958C412.632 223.323 412.354 223.368 412.125 223.458C411.903 223.549 411.722 223.674 411.583 223.833C411.451 223.986 411.354 224.16 411.292 224.354C411.236 224.549 411.208 224.753 411.208 224.969C411.208 225.177 411.257 225.365 411.354 225.531C411.458 225.691 411.597 225.816 411.771 225.906C411.944 225.997 412.139 226.042 412.354 226.042C412.743 226.042 413.073 225.969 413.344 225.823C413.622 225.67 413.833 225.486 413.979 225.271C414.125 225.056 414.198 224.854 414.198 224.667L414.969 226.104C414.83 226.382 414.67 226.663 414.49 226.948C414.316 227.233 414.097 227.497 413.833 227.74C413.576 227.976 413.26 228.17 412.885 228.323C412.51 228.469 412.056 228.542 411.521 228.542C410.826 228.542 410.188 228.399 409.604 228.115C409.028 227.83 408.566 227.434 408.219 226.927C407.872 226.413 407.698 225.823 407.698 225.156C407.698 224.573 407.802 224.052 408.01 223.594C408.226 223.135 408.549 222.747 408.979 222.427C409.41 222.108 409.958 221.865 410.625 221.698C411.292 221.531 412.076 221.448 412.979 221.448H414.49ZM424.302 225.833C424.628 225.833 424.906 225.774 425.135 225.656C425.372 225.531 425.549 225.358 425.667 225.135C425.792 224.906 425.851 224.632 425.844 224.312H429.146C429.153 225.16 428.944 225.903 428.521 226.542C428.104 227.174 427.535 227.667 426.812 228.021C426.097 228.368 425.288 228.542 424.385 228.542C423.503 228.542 422.733 228.399 422.073 228.115C421.413 227.823 420.861 227.42 420.417 226.906C419.979 226.385 419.649 225.778 419.427 225.083C419.212 224.389 419.104 223.635 419.104 222.823V222.583C419.104 221.771 419.212 221.017 419.427 220.323C419.649 219.622 419.979 219.014 420.417 218.5C420.861 217.979 421.41 217.576 422.062 217.292C422.722 217 423.49 216.854 424.365 216.854C425.302 216.854 426.128 217.031 426.844 217.385C427.566 217.74 428.132 218.253 428.542 218.927C428.951 219.601 429.153 220.417 429.146 221.375H425.844C425.851 221.035 425.799 220.729 425.687 220.458C425.576 220.187 425.403 219.972 425.167 219.812C424.937 219.646 424.642 219.562 424.281 219.562C423.92 219.562 423.628 219.642 423.406 219.802C423.184 219.962 423.014 220.184 422.896 220.469C422.785 220.747 422.708 221.066 422.667 221.427C422.632 221.788 422.615 222.174 422.615 222.583V222.823C422.615 223.24 422.632 223.632 422.667 224C422.708 224.361 422.788 224.681 422.906 224.958C423.024 225.229 423.194 225.444 423.417 225.604C423.639 225.757 423.934 225.833 424.302 225.833ZM436.583 217.062V219.5H429.792V217.062H436.583ZM431.219 214.26H434.729V224.656C434.729 224.955 434.764 225.187 434.833 225.354C434.903 225.514 435.021 225.628 435.188 225.698C435.361 225.76 435.59 225.792 435.875 225.792C436.076 225.792 436.243 225.788 436.375 225.781C436.507 225.767 436.632 225.75 436.75 225.729V228.24C436.451 228.337 436.139 228.41 435.813 228.458C435.486 228.514 435.139 228.542 434.771 228.542C434.021 228.542 433.378 228.424 432.844 228.187C432.316 227.951 431.913 227.58 431.635 227.073C431.358 226.566 431.219 225.906 431.219 225.094V214.26ZM456.125 213.167V228.333H452.479L447.115 218.896V228.333H443.458V213.167H447.115L452.479 222.604V213.167H456.125ZM464.125 225.5V220.854C464.125 220.535 464.08 220.26 463.99 220.031C463.899 219.802 463.757 219.625 463.563 219.5C463.368 219.368 463.108 219.302 462.781 219.302C462.517 219.302 462.292 219.347 462.104 219.437C461.917 219.528 461.774 219.663 461.677 219.844C461.58 220.024 461.531 220.253 461.531 220.531H458.021C458.021 220.01 458.135 219.528 458.365 219.083C458.601 218.632 458.934 218.24 459.365 217.906C459.802 217.573 460.323 217.316 460.927 217.135C461.538 216.948 462.219 216.854 462.969 216.854C463.865 216.854 464.663 217.003 465.365 217.302C466.073 217.601 466.632 218.049 467.042 218.646C467.451 219.236 467.656 219.979 467.656 220.875V225.49C467.656 226.226 467.698 226.785 467.781 227.167C467.865 227.542 467.983 227.872 468.135 228.156V228.333H464.615C464.448 227.986 464.323 227.562 464.24 227.062C464.163 226.556 464.125 226.035 464.125 225.5ZM464.552 221.448L464.573 223.323H463.021C462.694 223.323 462.417 223.368 462.188 223.458C461.965 223.549 461.785 223.674 461.646 223.833C461.514 223.986 461.417 224.16 461.354 224.354C461.299 224.549 461.271 224.753 461.271 224.969C461.271 225.177 461.319 225.365 461.417 225.531C461.521 225.691 461.66 225.816 461.833 225.906C462.007 225.997 462.201 226.042 462.417 226.042C462.806 226.042 463.135 225.969 463.406 225.823C463.684 225.67 463.896 225.486 464.042 225.271C464.188 225.056 464.26 224.854 464.26 224.667L465.031 226.104C464.892 226.382 464.733 226.663 464.552 226.948C464.378 227.233 464.16 227.497 463.896 227.74C463.639 227.976 463.323 228.17 462.948 228.323C462.573 228.469 462.118 228.542 461.583 228.542C460.889 228.542 460.25 228.399 459.667 228.115C459.09 227.83 458.628 227.434 458.281 226.927C457.934 226.413 457.76 225.823 457.76 225.156C457.76 224.573 457.865 224.052 458.073 223.594C458.288 223.135 458.611 222.747 459.042 222.427C459.472 222.108 460.021 221.865 460.688 221.698C461.354 221.531 462.139 221.448 463.042 221.448H464.552ZM475.542 217.062V219.5H468.75V217.062H475.542ZM470.177 214.26H473.687V224.656C473.687 224.955 473.722 225.187 473.792 225.354C473.861 225.514 473.979 225.628 474.146 225.698C474.319 225.76 474.549 225.792 474.833 225.792C475.035 225.792 475.201 225.788 475.333 225.781C475.465 225.767 475.59 225.75 475.708 225.729V228.24C475.41 228.337 475.097 228.41 474.771 228.458C474.444 228.514 474.097 228.542 473.729 228.542C472.979 228.542 472.337 228.424 471.802 228.187C471.274 227.951 470.872 227.58 470.594 227.073C470.316 226.566 470.177 225.906 470.177 225.094V214.26ZM480.646 217.062V228.333H477.125V217.062H480.646ZM476.917 214.156C476.917 213.656 477.097 213.247 477.458 212.927C477.819 212.608 478.288 212.448 478.865 212.448C479.441 212.448 479.91 212.608 480.271 212.927C480.632 213.247 480.813 213.656 480.813 214.156C480.813 214.656 480.632 215.066 480.271 215.385C479.91 215.705 479.441 215.865 478.865 215.865C478.288 215.865 477.819 215.705 477.458 215.385C477.097 215.066 476.917 214.656 476.917 214.156ZM486.875 225.927L489.094 217.062H492.792L489.104 228.333H486.917L486.875 225.927ZM485.563 217.062L487.75 225.927L487.729 228.333H485.531L481.854 217.062H485.563ZM499.146 228.542C498.229 228.542 497.41 228.399 496.688 228.115C495.965 227.823 495.354 227.424 494.854 226.917C494.361 226.41 493.983 225.826 493.719 225.167C493.462 224.507 493.333 223.809 493.333 223.073V222.677C493.333 221.851 493.448 221.087 493.677 220.385C493.906 219.677 494.247 219.059 494.698 218.531C495.149 218.003 495.715 217.594 496.396 217.302C497.076 217.003 497.868 216.854 498.771 216.854C499.569 216.854 500.285 216.983 500.917 217.24C501.549 217.497 502.083 217.865 502.521 218.344C502.965 218.823 503.302 219.403 503.531 220.083C503.767 220.764 503.885 221.528 503.885 222.375V223.802H494.677V221.604H500.458V221.333C500.465 220.958 500.399 220.639 500.26 220.375C500.128 220.111 499.934 219.91 499.677 219.771C499.42 219.632 499.108 219.562 498.74 219.562C498.358 219.562 498.042 219.646 497.792 219.812C497.549 219.979 497.358 220.208 497.219 220.5C497.087 220.785 496.993 221.115 496.938 221.49C496.882 221.865 496.854 222.26 496.854 222.677V223.073C496.854 223.49 496.91 223.868 497.021 224.208C497.139 224.549 497.306 224.84 497.521 225.083C497.743 225.319 498.007 225.503 498.313 225.635C498.625 225.767 498.979 225.833 499.375 225.833C499.854 225.833 500.326 225.743 500.792 225.562C501.257 225.382 501.656 225.083 501.99 224.667L503.583 226.562C503.354 226.889 503.028 227.205 502.604 227.51C502.188 227.816 501.688 228.066 501.104 228.26C500.521 228.448 499.868 228.542 499.146 228.542Z" fill="white"/>
</svg>
