<svg width="1363" height="167" viewBox="0 0 1363 167" fill="none" xmlns="http://www.w3.org/2000/svg">
<rect width="1363" height="167" rx="15" fill="#F0F0F0"/>
<path d="M0 15C0 6.71573 6.71573 0 15 0H37V167H15C6.71573 167 0 160.284 0 152V15Z" fill="#424241"/>
<path d="M100.906 50.9219L93.3945 48.2383V45.0859L103.602 49.375V51.6367L100.906 50.9219ZM93.3945 53.1719L100.918 50.4297L103.602 49.7852V52.0352L93.3945 56.3242V53.1719ZM118.578 50.5117H114.195L114.172 48.0977H117.852C118.5 48.0977 119.031 48.0156 119.445 47.8516C119.859 47.6797 120.168 47.4336 120.371 47.1133C120.582 46.7852 120.688 46.3867 120.688 45.918C120.688 45.3867 120.586 44.957 120.383 44.6289C120.188 44.3008 119.879 44.0625 119.457 43.9141C119.043 43.7656 118.508 43.6914 117.852 43.6914H115.414V58H111.898V40.9375H117.852C118.844 40.9375 119.73 41.0312 120.512 41.2188C121.301 41.4062 121.969 41.6914 122.516 42.0742C123.062 42.457 123.48 42.9414 123.77 43.5273C124.059 44.1055 124.203 44.793 124.203 45.5898C124.203 46.293 124.043 46.9414 123.723 47.5352C123.41 48.1289 122.914 48.6133 122.234 48.9883C121.562 49.3633 120.684 49.5703 119.598 49.6094L118.578 50.5117ZM118.426 58H113.234L114.605 55.2578H118.426C119.043 55.2578 119.547 55.1602 119.938 54.9648C120.328 54.7617 120.617 54.4883 120.805 54.1445C120.992 53.8008 121.086 53.4062 121.086 52.9609C121.086 52.4609 121 52.0273 120.828 51.6602C120.664 51.293 120.398 51.0117 120.031 50.8164C119.664 50.6133 119.18 50.5117 118.578 50.5117H115.191L115.215 48.0977H119.434L120.242 49.0469C121.281 49.0312 122.117 49.2148 122.75 49.5977C123.391 49.9727 123.855 50.4609 124.145 51.0625C124.441 51.6641 124.59 52.3086 124.59 52.9961C124.59 54.0898 124.352 55.0117 123.875 55.7617C123.398 56.5039 122.699 57.0625 121.777 57.4375C120.863 57.8125 119.746 58 118.426 58ZM126.477 51.7891V51.543C126.477 50.6133 126.609 49.7578 126.875 48.9766C127.141 48.1875 127.527 47.5039 128.035 46.9258C128.543 46.3477 129.168 45.8984 129.91 45.5781C130.652 45.25 131.504 45.0859 132.465 45.0859C133.426 45.0859 134.281 45.25 135.031 45.5781C135.781 45.8984 136.41 46.3477 136.918 46.9258C137.434 47.5039 137.824 48.1875 138.09 48.9766C138.355 49.7578 138.488 50.6133 138.488 51.543V51.7891C138.488 52.7109 138.355 53.5664 138.09 54.3555C137.824 55.1367 137.434 55.8203 136.918 56.4062C136.41 56.9844 135.785 57.4336 135.043 57.7539C134.301 58.0742 133.449 58.2344 132.488 58.2344C131.527 58.2344 130.672 58.0742 129.922 57.7539C129.18 57.4336 128.551 56.9844 128.035 56.4062C127.527 55.8203 127.141 55.1367 126.875 54.3555C126.609 53.5664 126.477 52.7109 126.477 51.7891ZM129.852 51.543V51.7891C129.852 52.3203 129.898 52.8164 129.992 53.2773C130.086 53.7383 130.234 54.1445 130.438 54.4961C130.648 54.8398 130.922 55.1094 131.258 55.3047C131.594 55.5 132.004 55.5977 132.488 55.5977C132.957 55.5977 133.359 55.5 133.695 55.3047C134.031 55.1094 134.301 54.8398 134.504 54.4961C134.707 54.1445 134.855 53.7383 134.949 53.2773C135.051 52.8164 135.102 52.3203 135.102 51.7891V51.543C135.102 51.0273 135.051 50.543 134.949 50.0898C134.855 49.6289 134.703 49.2227 134.492 48.8711C134.289 48.5117 134.02 48.2305 133.684 48.0273C133.348 47.8242 132.941 47.7227 132.465 47.7227C131.988 47.7227 131.582 47.8242 131.246 48.0273C130.918 48.2305 130.648 48.5117 130.438 48.8711C130.234 49.2227 130.086 49.6289 129.992 50.0898C129.898 50.543 129.852 51.0273 129.852 51.543ZM143.938 48.0859V58H140.562V45.3203H143.738L143.938 48.0859ZM147.758 45.2383L147.699 48.3672C147.535 48.3438 147.336 48.3242 147.102 48.3086C146.875 48.2852 146.668 48.2734 146.48 48.2734C146.004 48.2734 145.59 48.3359 145.238 48.4609C144.895 48.5781 144.605 48.7539 144.371 48.9883C144.145 49.2227 143.973 49.5078 143.855 49.8438C143.746 50.1797 143.684 50.5625 143.668 50.9922L142.988 50.7812C142.988 49.9609 143.07 49.207 143.234 48.5195C143.398 47.8242 143.637 47.2188 143.949 46.7031C144.27 46.1875 144.66 45.7891 145.121 45.5078C145.582 45.2266 146.109 45.0859 146.703 45.0859C146.891 45.0859 147.082 45.1016 147.277 45.1328C147.473 45.1562 147.633 45.1914 147.758 45.2383ZM152.914 45.3203V58H149.527V45.3203H152.914ZM149.316 42.0156C149.316 41.5234 149.488 41.1172 149.832 40.7969C150.176 40.4766 150.637 40.3164 151.215 40.3164C151.785 40.3164 152.242 40.4766 152.586 40.7969C152.938 41.1172 153.113 41.5234 153.113 42.0156C153.113 42.5078 152.938 42.9141 152.586 43.2344C152.242 43.5547 151.785 43.7148 151.215 43.7148C150.637 43.7148 150.176 43.5547 149.832 43.2344C149.488 42.9141 149.316 42.5078 149.316 42.0156ZM159.008 48.0273V58H155.633V45.3203H158.797L159.008 48.0273ZM158.516 51.2148H157.602C157.602 50.2773 157.723 49.4336 157.965 48.6836C158.207 47.9258 158.547 47.2812 158.984 46.75C159.422 46.2109 159.941 45.8008 160.543 45.5195C161.152 45.2305 161.832 45.0859 162.582 45.0859C163.176 45.0859 163.719 45.1719 164.211 45.3438C164.703 45.5156 165.125 45.7891 165.477 46.1641C165.836 46.5391 166.109 47.0352 166.297 47.6523C166.492 48.2695 166.59 49.0234 166.59 49.9141V58H163.191V49.9023C163.191 49.3398 163.113 48.9023 162.957 48.5898C162.801 48.2773 162.57 48.0586 162.266 47.9336C161.969 47.8008 161.602 47.7344 161.164 47.7344C160.711 47.7344 160.316 47.8242 159.98 48.0039C159.652 48.1836 159.379 48.4336 159.16 48.7539C158.949 49.0664 158.789 49.4336 158.68 49.8555C158.57 50.2773 158.516 50.7305 158.516 51.2148ZM177.184 45.3203H180.242V57.5781C180.242 58.7344 179.984 59.7148 179.469 60.5195C178.961 61.332 178.25 61.9453 177.336 62.3594C176.422 62.7812 175.359 62.9922 174.148 62.9922C173.617 62.9922 173.055 62.9219 172.461 62.7812C171.875 62.6406 171.312 62.4219 170.773 62.125C170.242 61.8281 169.797 61.4531 169.438 61L170.926 59.0078C171.316 59.4609 171.77 59.8125 172.285 60.0625C172.801 60.3203 173.371 60.4492 173.996 60.4492C174.605 60.4492 175.121 60.3359 175.543 60.1094C175.965 59.8906 176.289 59.5664 176.516 59.1367C176.742 58.7148 176.855 58.2031 176.855 57.6016V48.25L177.184 45.3203ZM168.652 51.8125V51.5664C168.652 50.5977 168.77 49.7188 169.004 48.9297C169.246 48.1328 169.586 47.4492 170.023 46.8789C170.469 46.3086 171.008 45.8672 171.641 45.5547C172.273 45.2422 172.988 45.0859 173.785 45.0859C174.629 45.0859 175.336 45.2422 175.906 45.5547C176.477 45.8672 176.945 46.3125 177.312 46.8906C177.68 47.4609 177.965 48.1367 178.168 48.918C178.379 49.6914 178.543 50.5391 178.66 51.4609V52C178.543 52.8828 178.367 53.7031 178.133 54.4609C177.898 55.2188 177.59 55.8828 177.207 56.4531C176.824 57.0156 176.348 57.4531 175.777 57.7656C175.215 58.0781 174.543 58.2344 173.762 58.2344C172.98 58.2344 172.273 58.0742 171.641 57.7539C171.016 57.4336 170.48 56.9844 170.035 56.4062C169.59 55.8281 169.246 55.1484 169.004 54.3672C168.77 53.5859 168.652 52.7344 168.652 51.8125ZM172.027 51.5664V51.8125C172.027 52.3359 172.078 52.8242 172.18 53.2773C172.281 53.7305 172.438 54.1328 172.648 54.4844C172.867 54.8281 173.137 55.0977 173.457 55.293C173.785 55.4805 174.172 55.5742 174.617 55.5742C175.234 55.5742 175.738 55.4453 176.129 55.1875C176.52 54.9219 176.812 54.5586 177.008 54.0977C177.203 53.6367 177.316 53.1055 177.348 52.5039V50.9688C177.332 50.4766 177.266 50.0352 177.148 49.6445C177.031 49.2461 176.867 48.9062 176.656 48.625C176.445 48.3438 176.172 48.125 175.836 47.9688C175.5 47.8125 175.102 47.7344 174.641 47.7344C174.195 47.7344 173.809 47.8359 173.48 48.0391C173.16 48.2344 172.891 48.5039 172.672 48.8477C172.461 49.1914 172.301 49.5977 172.191 50.0664C172.082 50.5273 172.027 51.0273 172.027 51.5664ZM198.324 55.4688L202.941 59.125L200.727 61.0469L196.18 57.3906L198.324 55.4688ZM203.059 49.0703V49.8789C203.059 51.1758 202.883 52.3398 202.531 53.3711C202.188 54.4023 201.691 55.2812 201.043 56.0078C200.395 56.7266 199.629 57.2773 198.746 57.6602C197.863 58.043 196.883 58.2344 195.805 58.2344C194.734 58.2344 193.754 58.043 192.863 57.6602C191.973 57.2773 191.203 56.7266 190.555 56.0078C189.906 55.2812 189.402 54.4023 189.043 53.3711C188.691 52.3398 188.516 51.1758 188.516 49.8789V49.0703C188.516 47.7656 188.691 46.6016 189.043 45.5781C189.402 44.5469 189.902 43.668 190.543 42.9414C191.184 42.2148 191.949 41.6602 192.84 41.2773C193.73 40.8945 194.711 40.7031 195.781 40.7031C196.859 40.7031 197.84 40.8945 198.723 41.2773C199.613 41.6602 200.383 42.2148 201.031 42.9414C201.68 43.668 202.18 44.5469 202.531 45.5781C202.883 46.6016 203.059 47.7656 203.059 49.0703ZM199.508 49.8789V49.0469C199.508 48.1406 199.422 47.3438 199.25 46.6562C199.086 45.9688 198.844 45.3906 198.523 44.9219C198.211 44.4531 197.824 44.1016 197.363 43.8672C196.902 43.625 196.375 43.5039 195.781 43.5039C195.188 43.5039 194.66 43.625 194.199 43.8672C193.738 44.1016 193.352 44.4531 193.039 44.9219C192.727 45.3906 192.488 45.9688 192.324 46.6562C192.16 47.3438 192.078 48.1406 192.078 49.0469V49.8789C192.078 50.7773 192.16 51.5742 192.324 52.2695C192.488 52.957 192.727 53.5391 193.039 54.0156C193.359 54.4844 193.75 54.8398 194.211 55.082C194.68 55.3242 195.211 55.4453 195.805 55.4453C196.398 55.4453 196.922 55.3242 197.375 55.082C197.836 54.8398 198.223 54.4844 198.535 54.0156C198.855 53.5391 199.098 52.957 199.262 52.2695C199.426 51.5742 199.508 50.7773 199.508 49.8789ZM212.891 54.9648V45.3203H216.266V58H213.09L212.891 54.9648ZM213.266 52.3633L214.262 52.3398C214.262 53.1836 214.164 53.9688 213.969 54.6953C213.773 55.4141 213.48 56.0391 213.09 56.5703C212.699 57.0938 212.207 57.5039 211.613 57.8008C211.02 58.0898 210.32 58.2344 209.516 58.2344C208.898 58.2344 208.328 58.1484 207.805 57.9766C207.289 57.7969 206.844 57.5195 206.469 57.1445C206.102 56.7617 205.812 56.2734 205.602 55.6797C205.398 55.0781 205.297 54.3555 205.297 53.5117V45.3203H208.672V53.5352C208.672 53.9102 208.715 54.2266 208.801 54.4844C208.895 54.7422 209.023 54.9531 209.188 55.1172C209.352 55.2812 209.543 55.3984 209.762 55.4688C209.988 55.5391 210.238 55.5742 210.512 55.5742C211.207 55.5742 211.754 55.4336 212.152 55.1523C212.559 54.8711 212.844 54.4883 213.008 54.0039C213.18 53.5117 213.266 52.9648 213.266 52.3633ZM224.68 58.2344C223.695 58.2344 222.812 58.0781 222.031 57.7656C221.25 57.4453 220.586 57.0039 220.039 56.4414C219.5 55.8789 219.086 55.2266 218.797 54.4844C218.508 53.7344 218.363 52.9375 218.363 52.0938V51.625C218.363 50.6641 218.5 49.7852 218.773 48.9883C219.047 48.1914 219.438 47.5 219.945 46.9141C220.461 46.3281 221.086 45.8789 221.82 45.5664C222.555 45.2461 223.383 45.0859 224.305 45.0859C225.203 45.0859 226 45.2344 226.695 45.5312C227.391 45.8281 227.973 46.25 228.441 46.7969C228.918 47.3438 229.277 48 229.52 48.7656C229.762 49.5234 229.883 50.3672 229.883 51.2969V52.7031H219.805V50.4531H226.566V50.1953C226.566 49.7266 226.48 49.3086 226.309 48.9414C226.145 48.5664 225.895 48.2695 225.559 48.0508C225.223 47.832 224.793 47.7227 224.27 47.7227C223.824 47.7227 223.441 47.8203 223.121 48.0156C222.801 48.2109 222.539 48.4844 222.336 48.8359C222.141 49.1875 221.992 49.6016 221.891 50.0781C221.797 50.5469 221.75 51.0625 221.75 51.625V52.0938C221.75 52.6016 221.82 53.0703 221.961 53.5C222.109 53.9297 222.316 54.3008 222.582 54.6133C222.855 54.9258 223.184 55.168 223.566 55.3398C223.957 55.5117 224.398 55.5977 224.891 55.5977C225.5 55.5977 226.066 55.4805 226.59 55.2461C227.121 55.0039 227.578 54.6406 227.961 54.1562L229.602 55.9375C229.336 56.3203 228.973 56.6875 228.512 57.0391C228.059 57.3906 227.512 57.6797 226.871 57.9062C226.23 58.125 225.5 58.2344 224.68 58.2344ZM238.66 54.4961C238.66 54.2539 238.59 54.0352 238.449 53.8398C238.309 53.6445 238.047 53.4648 237.664 53.3008C237.289 53.1289 236.746 52.9727 236.035 52.832C235.395 52.6914 234.797 52.5156 234.242 52.3047C233.695 52.0859 233.219 51.8242 232.812 51.5195C232.414 51.2148 232.102 50.8555 231.875 50.4414C231.648 50.0195 231.535 49.5391 231.535 49C231.535 48.4688 231.648 47.9688 231.875 47.5C232.109 47.0312 232.441 46.6172 232.871 46.2578C233.309 45.8906 233.84 45.6055 234.465 45.4023C235.098 45.1914 235.809 45.0859 236.598 45.0859C237.699 45.0859 238.645 45.2617 239.434 45.6133C240.23 45.9648 240.84 46.4492 241.262 47.0664C241.691 47.6758 241.906 48.3711 241.906 49.1523H238.531C238.531 48.8242 238.461 48.5312 238.32 48.2734C238.188 48.0078 237.977 47.8008 237.688 47.6523C237.406 47.4961 237.039 47.418 236.586 47.418C236.211 47.418 235.887 47.4844 235.613 47.6172C235.34 47.7422 235.129 47.9141 234.98 48.1328C234.84 48.3438 234.77 48.5781 234.77 48.8359C234.77 49.0312 234.809 49.207 234.887 49.3633C234.973 49.5117 235.109 49.6484 235.297 49.7734C235.484 49.8984 235.727 50.0156 236.023 50.125C236.328 50.2266 236.703 50.3203 237.148 50.4062C238.062 50.5938 238.879 50.8398 239.598 51.1445C240.316 51.4414 240.887 51.8477 241.309 52.3633C241.73 52.8711 241.941 53.5391 241.941 54.3672C241.941 54.9297 241.816 55.4453 241.566 55.9141C241.316 56.3828 240.957 56.793 240.488 57.1445C240.02 57.4883 239.457 57.7578 238.801 57.9531C238.152 58.1406 237.422 58.2344 236.609 58.2344C235.43 58.2344 234.43 58.0234 233.609 57.6016C232.797 57.1797 232.18 56.6445 231.758 55.9961C231.344 55.3398 231.137 54.668 231.137 53.9805H234.336C234.352 54.4414 234.469 54.8125 234.688 55.0938C234.914 55.375 235.199 55.5781 235.543 55.7031C235.895 55.8281 236.273 55.8906 236.68 55.8906C237.117 55.8906 237.48 55.832 237.77 55.7148C238.059 55.5898 238.277 55.4258 238.426 55.2227C238.582 55.0117 238.66 54.7695 238.66 54.4961ZM250.344 45.3203V47.7109H242.961V45.3203H250.344ZM244.789 42.1914H248.164V54.1797C248.164 54.5469 248.211 54.8281 248.305 55.0234C248.406 55.2188 248.555 55.3555 248.75 55.4336C248.945 55.5039 249.191 55.5391 249.488 55.5391C249.699 55.5391 249.887 55.5312 250.051 55.5156C250.223 55.4922 250.367 55.4688 250.484 55.4453L250.496 57.9297C250.207 58.0234 249.895 58.0977 249.559 58.1523C249.223 58.207 248.852 58.2344 248.445 58.2344C247.703 58.2344 247.055 58.1133 246.5 57.8711C245.953 57.6211 245.531 57.2227 245.234 56.6758C244.938 56.1289 244.789 55.4102 244.789 54.5195V42.1914Z" fill="#888888"/>
<path d="M107.205 107.146H99.251V101.191H107.205C108.289 101.191 109.168 101.008 109.842 100.642C110.516 100.275 111.006 99.77 111.314 99.1255C111.636 98.4663 111.797 97.7266 111.797 96.9062C111.797 96.0273 111.636 95.2144 111.314 94.4673C111.006 93.7202 110.516 93.1196 109.842 92.6655C109.168 92.1968 108.289 91.9624 107.205 91.9624H102.151V118H94.439V86.0078H107.205C109.769 86.0078 111.973 86.4766 113.819 87.4141C115.679 88.3516 117.107 89.6406 118.104 91.2812C119.1 92.9072 119.598 94.7676 119.598 96.8623C119.598 98.9277 119.1 100.729 118.104 102.268C117.107 103.806 115.679 105.007 113.819 105.871C111.973 106.721 109.769 107.146 107.205 107.146ZM130.87 100.114V118H123.465V94.2256H130.386L130.87 100.114ZM137.901 94.0498L137.769 100.927C137.476 100.898 137.081 100.861 136.583 100.817C136.084 100.773 135.667 100.751 135.33 100.751C134.466 100.751 133.719 100.854 133.089 101.059C132.474 101.25 131.961 101.542 131.551 101.938C131.155 102.319 130.862 102.802 130.672 103.388C130.496 103.974 130.416 104.655 130.43 105.432L129.09 104.553C129.09 102.956 129.244 101.506 129.551 100.202C129.874 98.8838 130.328 97.7485 130.914 96.7964C131.5 95.8296 132.21 95.0898 133.045 94.5771C133.88 94.0498 134.817 93.7861 135.857 93.7861C136.224 93.7861 136.583 93.8081 136.934 93.8521C137.3 93.896 137.623 93.9619 137.901 94.0498ZM138.736 106.354V105.893C138.736 104.15 138.985 102.546 139.483 101.081C139.981 99.6016 140.713 98.3198 141.68 97.2358C142.647 96.1519 143.841 95.3096 145.262 94.709C146.683 94.0938 148.323 93.7861 150.184 93.7861C152.059 93.7861 153.707 94.0938 155.127 94.709C156.563 95.3096 157.764 96.1519 158.731 97.2358C159.698 98.3198 160.43 99.6016 160.928 101.081C161.426 102.546 161.675 104.15 161.675 105.893V106.354C161.675 108.083 161.426 109.687 160.928 111.167C160.43 112.631 159.698 113.913 158.731 115.012C157.764 116.096 156.57 116.938 155.149 117.539C153.729 118.139 152.088 118.439 150.228 118.439C148.367 118.439 146.719 118.139 145.284 117.539C143.848 116.938 142.647 116.096 141.68 115.012C140.713 113.913 139.981 112.631 139.483 111.167C138.985 109.687 138.736 108.083 138.736 106.354ZM146.141 105.893V106.354C146.141 107.248 146.207 108.083 146.338 108.859C146.47 109.636 146.69 110.317 146.998 110.903C147.305 111.474 147.723 111.921 148.25 112.243C148.777 112.565 149.437 112.727 150.228 112.727C151.004 112.727 151.648 112.565 152.161 112.243C152.688 111.921 153.106 111.474 153.414 110.903C153.721 110.317 153.941 109.636 154.073 108.859C154.205 108.083 154.271 107.248 154.271 106.354V105.893C154.271 105.029 154.205 104.216 154.073 103.454C153.941 102.678 153.721 101.997 153.414 101.411C153.106 100.81 152.688 100.341 152.161 100.004C151.634 99.6675 150.975 99.499 150.184 99.499C149.407 99.499 148.755 99.6675 148.228 100.004C147.715 100.341 147.305 100.81 146.998 101.411C146.69 101.997 146.47 102.678 146.338 103.454C146.207 104.216 146.141 105.029 146.141 105.893ZM165.521 94.2256H172.947V118.769C172.947 120.673 172.581 122.277 171.849 123.581C171.116 124.899 170.069 125.896 168.707 126.569C167.344 127.258 165.718 127.602 163.829 127.602C163.199 127.602 162.62 127.573 162.093 127.514C161.551 127.47 160.958 127.375 160.313 127.229V121.625C160.694 121.684 161.045 121.728 161.368 121.757C161.69 121.801 162.042 121.823 162.422 121.823C163.096 121.823 163.66 121.713 164.114 121.494C164.568 121.274 164.913 120.937 165.147 120.483C165.396 120.029 165.521 119.458 165.521 118.769V94.2256ZM164.971 88.0952C164.971 87.0405 165.352 86.1763 166.114 85.5024C166.875 84.8286 167.864 84.4917 169.08 84.4917C170.296 84.4917 171.285 84.8286 172.046 85.5024C172.808 86.1763 173.189 87.0405 173.189 88.0952C173.189 89.1499 172.808 90.0142 172.046 90.688C171.285 91.3618 170.296 91.6987 169.08 91.6987C167.864 91.6987 166.875 91.3618 166.114 90.688C165.352 90.0142 164.971 89.1499 164.971 88.0952ZM188.658 118.439C186.724 118.439 184.996 118.139 183.472 117.539C181.949 116.923 180.66 116.081 179.605 115.012C178.565 113.942 177.767 112.712 177.21 111.32C176.668 109.929 176.397 108.457 176.397 106.904V106.069C176.397 104.326 176.639 102.714 177.122 101.235C177.605 99.7407 178.323 98.437 179.275 97.3237C180.228 96.2104 181.421 95.3462 182.857 94.731C184.292 94.1011 185.962 93.7861 187.867 93.7861C189.551 93.7861 191.06 94.0571 192.393 94.5991C193.726 95.1411 194.854 95.9175 195.777 96.9282C196.714 97.939 197.425 99.1621 197.908 100.598C198.406 102.033 198.655 103.645 198.655 105.432V108.442H179.231V103.806H191.426V103.234C191.441 102.443 191.302 101.77 191.009 101.213C190.73 100.656 190.32 100.231 189.778 99.9385C189.236 99.6455 188.577 99.499 187.801 99.499C186.995 99.499 186.329 99.6748 185.801 100.026C185.289 100.378 184.886 100.861 184.593 101.477C184.314 102.077 184.117 102.773 184 103.564C183.882 104.355 183.824 105.19 183.824 106.069V106.904C183.824 107.783 183.941 108.581 184.175 109.299C184.424 110.017 184.776 110.632 185.23 111.145C185.699 111.643 186.255 112.031 186.9 112.309C187.559 112.587 188.306 112.727 189.141 112.727C190.152 112.727 191.148 112.536 192.129 112.155C193.111 111.774 193.953 111.145 194.656 110.266L198.018 114.265C197.535 114.953 196.846 115.62 195.953 116.264C195.074 116.909 194.019 117.436 192.789 117.846C191.558 118.242 190.181 118.439 188.658 118.439ZM211.707 112.727C212.396 112.727 212.981 112.602 213.465 112.353C213.963 112.089 214.336 111.723 214.585 111.254C214.849 110.771 214.974 110.192 214.959 109.519H221.924C221.939 111.306 221.5 112.873 220.606 114.221C219.727 115.554 218.526 116.594 217.002 117.341C215.494 118.073 213.787 118.439 211.883 118.439C210.022 118.439 208.396 118.139 207.005 117.539C205.613 116.923 204.449 116.074 203.511 114.99C202.588 113.891 201.893 112.609 201.424 111.145C200.97 109.68 200.743 108.09 200.743 106.376V105.871C200.743 104.157 200.97 102.568 201.424 101.103C201.893 99.6235 202.588 98.3418 203.511 97.2578C204.449 96.1592 205.606 95.3096 206.983 94.709C208.375 94.0938 209.993 93.7861 211.839 93.7861C213.816 93.7861 215.56 94.1597 217.068 94.9067C218.592 95.6538 219.786 96.7378 220.65 98.1587C221.514 99.5796 221.939 101.301 221.924 103.322H214.959C214.974 102.604 214.864 101.96 214.629 101.389C214.395 100.817 214.029 100.363 213.531 100.026C213.047 99.6748 212.425 99.499 211.663 99.499C210.901 99.499 210.286 99.6675 209.817 100.004C209.349 100.341 208.99 100.81 208.741 101.411C208.506 101.997 208.345 102.67 208.257 103.432C208.184 104.194 208.147 105.007 208.147 105.871V106.376C208.147 107.255 208.184 108.083 208.257 108.859C208.345 109.621 208.514 110.295 208.763 110.881C209.012 111.452 209.371 111.906 209.839 112.243C210.308 112.565 210.931 112.727 211.707 112.727ZM237.613 94.2256V99.3672H223.287V94.2256H237.613ZM226.297 88.3149H233.702V110.244C233.702 110.874 233.775 111.364 233.921 111.716C234.068 112.053 234.317 112.294 234.668 112.441C235.035 112.573 235.518 112.639 236.119 112.639C236.543 112.639 236.895 112.631 237.173 112.617C237.452 112.587 237.715 112.551 237.964 112.507V117.802C237.334 118.007 236.675 118.161 235.987 118.264C235.298 118.381 234.566 118.439 233.79 118.439C232.208 118.439 230.853 118.19 229.725 117.692C228.611 117.194 227.762 116.411 227.176 115.341C226.59 114.272 226.297 112.88 226.297 111.167V88.3149ZM264.881 107.146H256.927V101.191H264.881C265.965 101.191 266.844 101.008 267.518 100.642C268.191 100.275 268.682 99.77 268.99 99.1255C269.312 98.4663 269.473 97.7266 269.473 96.9062C269.473 96.0273 269.312 95.2144 268.99 94.4673C268.682 93.7202 268.191 93.1196 267.518 92.6655C266.844 92.1968 265.965 91.9624 264.881 91.9624H259.827V118H252.115V86.0078H264.881C267.444 86.0078 269.649 86.4766 271.495 87.4141C273.355 88.3516 274.783 89.6406 275.779 91.2812C276.775 92.9072 277.273 94.7676 277.273 96.8623C277.273 98.9277 276.775 100.729 275.779 102.268C274.783 103.806 273.355 105.007 271.495 105.871C269.649 106.721 267.444 107.146 264.881 107.146ZM288.326 84.25V118H280.921V84.25H288.326ZM287.447 105.3L285.711 105.344C285.711 103.674 285.916 102.136 286.326 100.729C286.736 99.3232 287.322 98.1001 288.084 97.0601C288.846 96.02 289.761 95.2144 290.831 94.6431C291.9 94.0718 293.086 93.7861 294.39 93.7861C295.562 93.7861 296.631 93.9546 297.598 94.2915C298.58 94.6284 299.422 95.1704 300.125 95.9175C300.843 96.6646 301.392 97.6387 301.773 98.8398C302.168 100.041 302.366 101.506 302.366 103.234V118H294.917V103.19C294.917 102.224 294.778 101.477 294.5 100.949C294.236 100.407 293.855 100.034 293.357 99.8286C292.859 99.6089 292.251 99.499 291.534 99.499C290.669 99.499 289.966 99.6455 289.424 99.9385C288.882 100.231 288.465 100.642 288.172 101.169C287.894 101.682 287.703 102.29 287.601 102.993C287.498 103.696 287.447 104.465 287.447 105.3ZM314.297 94.2256V118H306.871V94.2256H314.297ZM306.431 88.0952C306.431 87.0405 306.812 86.1763 307.574 85.5024C308.335 84.8286 309.324 84.4917 310.54 84.4917C311.756 84.4917 312.745 84.8286 313.506 85.5024C314.268 86.1763 314.649 87.0405 314.649 88.0952C314.649 89.1499 314.268 90.0142 313.506 90.688C312.745 91.3618 311.756 91.6987 310.54 91.6987C309.324 91.6987 308.335 91.3618 307.574 90.688C306.812 90.0142 306.431 89.1499 306.431 88.0952ZM326.69 84.25V118H319.263V84.25H326.69ZM330.337 106.354V105.893C330.337 104.15 330.586 102.546 331.084 101.081C331.583 99.6016 332.315 98.3198 333.282 97.2358C334.249 96.1519 335.442 95.3096 336.863 94.709C338.284 94.0938 339.925 93.7861 341.785 93.7861C343.66 93.7861 345.308 94.0938 346.729 94.709C348.165 95.3096 349.366 96.1519 350.333 97.2358C351.299 98.3198 352.032 99.6016 352.53 101.081C353.028 102.546 353.277 104.15 353.277 105.893V106.354C353.277 108.083 353.028 109.687 352.53 111.167C352.032 112.631 351.299 113.913 350.333 115.012C349.366 116.096 348.172 116.938 346.751 117.539C345.33 118.139 343.689 118.439 341.829 118.439C339.969 118.439 338.321 118.139 336.885 117.539C335.45 116.938 334.249 116.096 333.282 115.012C332.315 113.913 331.583 112.631 331.084 111.167C330.586 109.687 330.337 108.083 330.337 106.354ZM337.742 105.893V106.354C337.742 107.248 337.808 108.083 337.94 108.859C338.072 109.636 338.292 110.317 338.599 110.903C338.907 111.474 339.324 111.921 339.852 112.243C340.379 112.565 341.038 112.727 341.829 112.727C342.605 112.727 343.25 112.565 343.763 112.243C344.29 111.921 344.708 111.474 345.015 110.903C345.323 110.317 345.542 109.636 345.674 108.859C345.806 108.083 345.872 107.248 345.872 106.354V105.893C345.872 105.029 345.806 104.216 345.674 103.454C345.542 102.678 345.323 101.997 345.015 101.411C344.708 100.81 344.29 100.341 343.763 100.004C343.235 99.6675 342.576 99.499 341.785 99.499C341.009 99.499 340.357 99.6675 339.83 100.004C339.317 100.341 338.907 100.81 338.599 101.411C338.292 101.997 338.072 102.678 337.94 103.454C337.808 104.216 337.742 105.029 337.742 105.893ZM369.031 111.32C369.031 110.91 368.892 110.559 368.614 110.266C368.35 109.958 367.881 109.68 367.208 109.431C366.534 109.167 365.589 108.903 364.373 108.64C363.216 108.391 362.125 108.061 361.099 107.651C360.088 107.241 359.202 106.743 358.44 106.157C357.679 105.571 357.078 104.875 356.639 104.069C356.214 103.264 356.001 102.341 356.001 101.301C356.001 100.29 356.214 99.3379 356.639 98.4443C357.078 97.5361 357.715 96.7378 358.55 96.0493C359.4 95.3462 360.433 94.7969 361.648 94.4014C362.864 93.9912 364.249 93.7861 365.801 93.7861C367.94 93.7861 369.786 94.1157 371.338 94.7749C372.891 95.4194 374.085 96.3276 374.92 97.4995C375.77 98.6567 376.194 99.9971 376.194 101.521H368.79C368.79 100.92 368.687 100.407 368.482 99.9824C368.292 99.5576 367.977 99.2354 367.537 99.0156C367.098 98.7812 366.512 98.6641 365.779 98.6641C365.267 98.6641 364.798 98.7593 364.373 98.9497C363.963 99.1401 363.633 99.4038 363.384 99.7407C363.135 100.078 363.011 100.473 363.011 100.927C363.011 101.25 363.084 101.542 363.23 101.806C363.392 102.055 363.633 102.29 363.956 102.509C364.278 102.714 364.688 102.905 365.186 103.081C365.684 103.242 366.285 103.388 366.988 103.52C368.584 103.813 370.079 104.23 371.47 104.772C372.862 105.314 373.99 106.083 374.854 107.08C375.733 108.076 376.172 109.416 376.172 111.101C376.172 112.155 375.931 113.129 375.447 114.023C374.964 114.902 374.268 115.678 373.36 116.352C372.452 117.011 371.36 117.524 370.086 117.89C368.812 118.256 367.376 118.439 365.779 118.439C363.509 118.439 361.59 118.037 360.022 117.231C358.455 116.411 357.269 115.385 356.463 114.155C355.672 112.91 355.276 111.65 355.276 110.375H362.176C362.205 111.108 362.381 111.708 362.703 112.177C363.04 112.646 363.487 112.99 364.043 113.21C364.6 113.43 365.245 113.54 365.977 113.54C366.651 113.54 367.208 113.444 367.647 113.254C368.101 113.063 368.445 112.807 368.68 112.485C368.914 112.148 369.031 111.76 369.031 111.32ZM378.721 106.354V105.893C378.721 104.15 378.97 102.546 379.468 101.081C379.966 99.6016 380.699 98.3198 381.666 97.2358C382.632 96.1519 383.826 95.3096 385.247 94.709C386.668 94.0938 388.309 93.7861 390.169 93.7861C392.044 93.7861 393.692 94.0938 395.113 94.709C396.548 95.3096 397.75 96.1519 398.716 97.2358C399.683 98.3198 400.416 99.6016 400.914 101.081C401.412 102.546 401.661 104.15 401.661 105.893V106.354C401.661 108.083 401.412 109.687 400.914 111.167C400.416 112.631 399.683 113.913 398.716 115.012C397.75 116.096 396.556 116.938 395.135 117.539C393.714 118.139 392.073 118.439 390.213 118.439C388.353 118.439 386.705 118.139 385.269 117.539C383.833 116.938 382.632 116.096 381.666 115.012C380.699 113.913 379.966 112.631 379.468 111.167C378.97 109.687 378.721 108.083 378.721 106.354ZM386.126 105.893V106.354C386.126 107.248 386.192 108.083 386.324 108.859C386.456 109.636 386.675 110.317 386.983 110.903C387.291 111.474 387.708 111.921 388.235 112.243C388.763 112.565 389.422 112.727 390.213 112.727C390.989 112.727 391.634 112.565 392.146 112.243C392.674 111.921 393.091 111.474 393.399 110.903C393.707 110.317 393.926 109.636 394.058 108.859C394.19 108.083 394.256 107.248 394.256 106.354V105.893C394.256 105.029 394.19 104.216 394.058 103.454C393.926 102.678 393.707 101.997 393.399 101.411C393.091 100.81 392.674 100.341 392.146 100.004C391.619 99.6675 390.96 99.499 390.169 99.499C389.393 99.499 388.741 99.6675 388.213 100.004C387.701 100.341 387.291 100.81 386.983 101.411C386.675 101.997 386.456 102.678 386.324 103.454C386.192 104.216 386.126 105.029 386.126 105.893ZM412.427 98.7959V127.141H405.022V94.2256H411.922L412.427 98.7959ZM427.017 105.827V106.289C427.017 108.017 426.819 109.621 426.424 111.101C426.028 112.58 425.442 113.869 424.666 114.968C423.89 116.066 422.923 116.923 421.766 117.539C420.623 118.139 419.297 118.439 417.789 118.439C416.368 118.439 415.145 118.125 414.119 117.495C413.094 116.865 412.237 115.993 411.548 114.88C410.86 113.767 410.303 112.492 409.878 111.057C409.454 109.621 409.117 108.105 408.868 106.508V105.915C409.117 104.201 409.454 102.612 409.878 101.147C410.303 99.6675 410.86 98.3784 411.548 97.2798C412.237 96.1812 413.086 95.3242 414.097 94.709C415.123 94.0938 416.346 93.7861 417.767 93.7861C419.275 93.7861 420.601 94.0718 421.744 94.6431C422.901 95.2144 423.868 96.0347 424.644 97.104C425.435 98.1587 426.028 99.4258 426.424 100.905C426.819 102.385 427.017 104.025 427.017 105.827ZM419.612 106.289V105.827C419.612 104.904 419.546 104.062 419.415 103.3C419.283 102.524 419.07 101.85 418.777 101.279C418.499 100.708 418.125 100.268 417.657 99.9604C417.188 99.6528 416.609 99.499 415.921 99.499C415.13 99.499 414.463 99.6235 413.921 99.8726C413.394 100.107 412.969 100.473 412.647 100.971C412.339 101.455 412.12 102.062 411.988 102.795C411.871 103.513 411.819 104.355 411.834 105.322V107.124C411.805 108.237 411.915 109.218 412.164 110.068C412.413 110.903 412.845 111.555 413.46 112.023C414.075 112.492 414.91 112.727 415.965 112.727C416.668 112.727 417.254 112.565 417.723 112.243C418.191 111.906 418.565 111.445 418.843 110.859C419.122 110.258 419.319 109.57 419.437 108.793C419.554 108.017 419.612 107.182 419.612 106.289ZM437.564 84.25V118H430.159V84.25H437.564ZM436.685 105.3L434.949 105.344C434.949 103.674 435.154 102.136 435.564 100.729C435.975 99.3232 436.561 98.1001 437.322 97.0601C438.084 96.02 439 95.2144 440.069 94.6431C441.138 94.0718 442.325 93.7861 443.628 93.7861C444.8 93.7861 445.87 93.9546 446.836 94.2915C447.818 94.6284 448.66 95.1704 449.363 95.9175C450.081 96.6646 450.63 97.6387 451.011 98.8398C451.407 100.041 451.604 101.506 451.604 103.234V118H444.156V103.19C444.156 102.224 444.017 101.477 443.738 100.949C443.475 100.407 443.094 100.034 442.596 99.8286C442.098 99.6089 441.49 99.499 440.772 99.499C439.908 99.499 439.205 99.6455 438.663 99.9385C438.121 100.231 437.703 100.642 437.41 101.169C437.132 101.682 436.941 102.29 436.839 102.993C436.736 103.696 436.685 104.465 436.685 105.3ZM463.008 115.209L469.161 94.2256H477.115L467.557 121.538C467.352 122.138 467.081 122.783 466.744 123.471C466.407 124.174 465.945 124.841 465.359 125.471C464.773 126.101 464.019 126.613 463.096 127.009C462.188 127.404 461.06 127.602 459.712 127.602C458.995 127.602 458.467 127.565 458.13 127.492C457.808 127.434 457.31 127.324 456.636 127.163V121.867C456.827 121.867 456.988 121.867 457.12 121.867C457.266 121.867 457.427 121.867 457.603 121.867C458.394 121.867 459.024 121.787 459.493 121.625C459.976 121.464 460.342 121.23 460.591 120.922C460.855 120.615 461.06 120.241 461.207 119.802L463.008 115.209ZM461.448 94.2256L466.128 110.859L466.941 118.703H461.976L453.516 94.2256H461.448Z" fill="#424241"/>
<path d="M1363 15C1363 6.71573 1356.28 0 1348 0H1134V167H1348C1356.28 167 1363 160.284 1363 152V15Z" fill="#118AB2"/>
<path d="M1234.26 106.286H1262.74V111.857H1234.26V106.286ZM1239.96 117.429H1257.04V123H1239.96V117.429ZM1248.5 45C1240.95 45 1233.71 47.9349 1228.37 53.1592C1223.03 58.3834 1220.03 65.469 1220.03 72.8571C1219.84 76.9057 1220.63 80.9412 1222.34 84.6315C1224.05 88.3219 1226.64 91.5616 1229.88 94.0843C1232.73 96.675 1234.26 98.1514 1234.26 100.714H1239.96C1239.96 95.5886 1236.8 92.7193 1233.72 89.9614C1231.06 87.9676 1228.94 85.3658 1227.55 82.3838C1226.15 79.4019 1225.53 76.1308 1225.72 72.8571C1225.72 66.9466 1228.12 61.2781 1232.39 57.0988C1236.67 52.9194 1242.46 50.5714 1248.5 50.5714C1254.54 50.5714 1260.33 52.9194 1264.61 57.0988C1268.88 61.2781 1271.28 66.9466 1271.28 72.8571C1271.47 76.1333 1270.84 79.4059 1269.44 82.388C1268.04 85.3701 1265.92 87.9706 1263.25 89.9614C1260.2 92.7471 1257.04 95.5329 1257.04 100.714H1262.74C1262.74 98.1514 1264.25 96.675 1267.12 94.0564C1270.36 91.5381 1272.94 88.3031 1274.66 84.6176C1276.37 80.9321 1277.16 76.9014 1276.97 72.8571C1276.97 69.1989 1276.24 65.5765 1274.81 62.1967C1273.37 58.8169 1271.28 55.7459 1268.63 53.1592C1265.99 50.5724 1262.85 48.5205 1259.4 47.1205C1255.94 45.7205 1252.24 45 1248.5 45Z" fill="white"/>
</svg>
